<svg version="1.1" id="Layer_1" xmlns="http://www.w3.org/2000/svg" xmlns:xlink="http://www.w3.org/1999/xlink" x="0px" y="0px"
	 width="100%" viewBox="0 0 878 720" enable-background="new 0 0 878 720" xml:space="preserve">
<path fill="#FBFCFD" opacity="1.000000" stroke="none" 
	d="
M510.000000,721.000000 
	C340.000000,721.000000 170.500000,721.000000 1.000000,721.000000 
	C1.000000,481.000000 1.000000,241.000000 1.000000,1.000000 
	C293.666656,1.000000 586.333313,1.000000 879.000000,1.000000 
	C879.000000,241.000000 879.000000,481.000000 879.000000,721.000000 
	C756.166687,721.000000 633.333313,721.000000 510.000000,721.000000 
M482.010437,345.271576 
	C488.398590,335.406189 494.832062,325.569550 501.123932,315.643127 
	C502.023224,314.224396 502.237427,312.371399 502.768677,310.719360 
	C500.938660,310.240845 499.109894,309.361542 497.278351,309.355713 
	C490.636719,309.334564 483.994568,309.716125 477.351746,309.746155 
	C460.223724,309.823578 443.094482,309.883636 425.967621,309.733978 
	C422.455505,309.703247 420.055389,310.938202 417.936493,313.540161 
	C410.811676,322.289246 403.531281,330.912506 396.474792,339.715637 
	C394.909302,341.668640 394.016632,344.161011 392.436279,347.110260 
	C414.860718,347.110260 436.429657,347.110260 457.871674,347.784454 
	C456.635254,348.735260 455.398865,349.686096 452.797241,351.686798 
	C456.861389,353.043335 459.792297,354.021637 462.062653,354.779449 
	C461.226990,357.887695 460.472229,360.695038 459.717468,363.502350 
	C459.202637,364.175873 458.687836,364.849365 458.173004,365.522858 
	C457.454590,363.869171 456.849091,362.154602 455.996521,360.573273 
	C453.521362,355.982574 450.506287,355.243347 445.799438,357.687378 
	C444.401794,358.413086 442.719696,358.911133 441.156525,358.942383 
	C434.416351,359.077179 427.671356,359.052582 420.929199,358.981079 
	C416.454834,358.933655 413.046448,357.523621 411.523438,352.612518 
	C411.064972,351.134125 408.317627,349.289276 406.799713,349.439606 
	C403.631165,349.753418 400.583160,351.284821 397.485657,352.316040 
	C397.824982,352.647980 398.164307,352.979950 398.503632,353.311890 
	C397.242615,355.157471 395.587189,358.752991 394.782990,358.571716 
	C388.357269,357.123505 386.844086,361.299133 384.408539,365.991150 
	C380.714050,365.940948 377.019531,365.890747 373.633575,365.009277 
	C372.117767,364.363007 370.633728,363.582428 369.053497,363.208252 
	C368.802307,363.148804 368.118256,364.917358 366.749268,365.991821 
	C364.752686,366.005096 362.756073,366.029877 360.759491,366.029968 
	C323.263000,366.031799 285.766449,366.002838 248.270096,366.075043 
	C244.667770,366.081970 240.964478,366.292755 237.484497,367.136475 
	C227.752792,369.495972 218.113647,372.237274 208.512146,374.808044 
	C208.785583,375.011169 209.341995,375.645355 210.038315,375.906555 
	C215.093872,377.802856 220.210388,379.539612 225.242630,381.494202 
	C229.700790,383.225769 233.958649,386.356842 238.508224,386.804657 
	C252.466507,388.178558 266.522491,388.560211 280.273743,389.313049 
	C280.273743,462.921844 280.273743,536.974548 280.273743,611.297852 
	C276.922668,611.564697 274.271545,612.020996 271.641205,611.922546 
	C268.428864,611.802246 267.133270,613.123962 267.001434,616.242004 
	C266.404053,630.372498 265.626556,644.496277 265.177246,658.630920 
	C265.119324,660.453369 266.166595,662.713440 267.430695,664.112244 
	C278.511444,676.373413 302.052338,678.777710 317.417419,671.212280 
	C322.714661,668.604065 325.503113,665.292603 325.037201,659.328369 
	C324.287506,649.731445 322.667328,640.062195 323.259979,630.538330 
	C323.911774,620.064819 321.764099,612.274475 311.614136,607.735596 
	C309.029907,606.579895 307.834167,604.218506 307.843506,600.879700 
	C308.015594,539.386902 308.025177,477.893585 308.066772,416.400421 
	C308.073059,407.115356 308.067657,397.830261 308.067657,388.302063 
	C334.207703,388.302063 359.926575,388.302063 386.034576,388.302063 
	C386.034576,392.557556 386.037109,396.522064 386.034180,400.486603 
	C385.999420,447.482147 385.939178,494.477661 385.944366,541.473206 
	C385.945831,554.588196 395.900421,564.201721 409.210236,564.158691 
	C421.589752,564.118652 429.676331,555.090332 429.664764,541.612854 
	C429.623444,493.453522 429.654022,445.294098 429.657440,397.134735 
	C429.657654,394.188965 429.657501,391.243195 429.657501,388.298309 
	C436.850281,388.298309 443.238861,388.298309 449.531647,388.298309 
	C449.531647,405.396027 449.557434,422.196198 449.526245,438.996246 
	C449.463165,472.990845 449.283508,506.985504 449.347931,540.979797 
	C449.364166,549.559937 451.362915,557.650269 459.797577,562.093384 
	C467.807159,566.312561 475.902710,565.585815 483.252716,560.562439 
	C491.891174,554.658569 494.204651,545.677124 494.193756,535.741211 
	C494.155029,500.411346 494.189178,465.081390 494.194397,429.751495 
	C494.196411,416.135437 494.194702,402.519409 494.194702,388.502991 
	C519.423279,388.502991 544.343506,388.502991 569.854797,388.502991 
	C569.854797,391.546387 569.872803,394.672791 569.851929,397.798950 
	C569.723816,416.961243 569.464905,436.123505 569.477234,455.285614 
	C569.506104,500.277039 569.352600,545.272827 569.997437,590.256409 
	C570.149536,600.865601 567.396667,608.321106 557.882874,613.229553 
	C556.375122,614.007385 555.060120,616.457397 554.861877,618.266479 
	C553.468567,630.984497 552.400330,643.737915 551.209167,656.478271 
	C550.624390,662.732971 553.475830,668.810120 558.100220,670.817871 
	C574.189636,677.803650 589.795654,675.970703 604.696411,667.538818 
	C607.134705,666.159058 609.717651,662.547241 609.796814,659.894287 
	C610.270874,644.005005 610.031799,628.094482 610.031799,612.007446 
	C605.150940,611.680176 600.751221,611.385193 596.431763,611.095581 
	C596.431763,536.596680 596.431763,462.515442 596.431763,387.982727 
	C607.724670,387.982727 618.682434,388.004639 629.640015,387.960938 
	C631.446899,387.953735 633.312195,387.895691 635.049316,387.458862 
	C646.408386,384.602631 657.739685,381.635712 667.060791,379.226776 
	C665.228210,378.174316 661.499695,376.247131 657.994629,373.975250 
	C650.802673,369.313660 643.201965,365.974091 634.463806,365.981781 
	C594.967407,366.016602 555.471008,366.087006 515.974609,366.087585 
	C514.287964,366.087616 512.601318,365.522705 511.028290,364.547028 
	C511.789246,364.231995 512.548218,363.912079 513.311462,363.602844 
	C516.213989,362.426788 519.117798,361.254181 522.021179,360.080322 
	C521.798096,359.335815 521.575073,358.591309 521.352051,357.846802 
	C518.553650,358.161560 514.501343,357.442657 513.214600,359.003601 
	C510.427216,362.384949 507.236633,362.345154 503.923859,361.900757 
	C499.805542,361.348267 495.820068,359.484802 491.713928,359.237274 
	C485.520691,358.863983 483.571899,355.050201 482.535736,349.984161 
	C482.264587,348.658386 482.114319,347.307892 482.010437,345.271576 
M657.472107,303.324280 
	C657.825928,303.625854 658.179810,303.927429 658.533630,304.229004 
	C659.678223,301.346588 661.664917,302.428131 663.233459,303.875458 
	C661.334839,306.387970 659.619629,309.067932 657.505188,311.383270 
	C649.457581,320.195190 640.190491,323.802979 628.116150,319.632843 
	C615.630798,315.320709 602.799194,311.986816 590.053223,308.463013 
	C582.688721,306.426971 576.108154,309.967743 574.109497,316.561035 
	C571.906372,323.829163 575.033081,329.858917 582.988647,332.128693 
	C594.586304,335.437622 606.258362,338.580200 618.047485,341.096619 
	C629.340515,343.507172 640.764893,345.753540 652.243896,346.680023 
	C659.654419,347.278107 667.996521,347.200684 674.194458,342.189819 
	C680.363159,337.202515 685.455566,330.883881 690.930176,325.241516 
	C700.217163,342.822357 707.488953,361.348175 704.098083,382.323456 
	C703.203308,387.858612 702.452637,393.485352 700.808594,398.814850 
	C698.438599,406.498016 693.425354,412.025452 685.358704,414.295593 
	C682.352722,415.141541 679.390381,416.142548 676.408813,417.075134 
	C660.250549,422.128815 643.591858,425.778290 628.997437,435.061249 
	C618.467773,441.758759 610.283508,450.186035 608.475891,462.957275 
	C607.565552,469.389221 608.213318,476.033936 608.039917,482.579315 
	C607.408569,506.416443 608.697083,530.195862 612.233154,553.724854 
	C614.960693,571.873596 619.177612,589.811401 623.099365,607.762817 
	C625.279114,617.740234 632.735229,622.126038 642.248535,622.949280 
	C650.800598,623.689209 658.515320,620.675537 664.085266,614.261902 
	C666.682861,611.270874 668.294678,606.705322 668.679565,602.692871 
	C669.161987,597.664368 668.121765,592.442627 667.390503,587.354309 
	C665.697021,575.570007 663.631836,563.837891 662.023438,552.042847 
	C660.545959,541.207581 658.896667,530.345947 658.360168,519.444824 
	C657.684143,505.707123 658.106995,491.917114 657.952942,478.150818 
	C657.911560,474.452515 660.002136,473.416077 663.155396,472.957001 
	C668.060608,472.242950 672.983887,471.510040 677.803833,470.377808 
	C697.470825,465.758026 717.146973,463.031677 737.585632,463.714508 
	C769.716309,464.787964 801.909119,464.003174 834.075623,463.999054 
	C842.602905,463.997955 844.958679,461.906036 844.971191,453.628693 
	C845.021545,420.295959 845.477112,386.951385 844.718323,353.635406 
	C844.358887,337.854767 847.597107,323.382904 854.484436,309.523834 
	C864.617432,289.133484 872.838989,268.518982 870.205872,244.840591 
	C868.479736,229.318146 860.156189,219.310623 844.720764,217.297958 
	C835.424316,216.085800 829.158569,221.751968 829.204041,231.119293 
	C829.302917,251.499756 826.050171,271.362732 820.159302,290.867676 
	C818.066162,297.798279 815.619141,304.949493 815.410522,312.060883 
	C814.760498,334.223999 817.128357,356.168732 823.621582,377.492828 
	C826.784302,387.879608 830.266785,398.169006 834.088074,409.999390 
	C824.705383,409.999390 816.573059,409.941956 808.441833,410.011536 
	C792.089600,410.151489 792.392761,410.073792 786.852905,394.276764 
	C773.097351,355.052155 759.870422,315.609528 744.775879,276.899902 
	C736.277222,255.105255 724.496826,234.590271 714.248718,213.609116 
	C703.102844,221.361938 691.107605,221.010910 678.883423,221.147049 
	C678.883423,230.685898 679.523804,239.726547 678.711914,248.634842 
	C677.814331,258.483124 675.586731,268.210175 673.199707,278.028870 
	C672.460266,278.018127 671.720825,278.007385 671.018311,277.188965 
	C675.092041,264.330841 668.881775,252.731033 667.224426,240.246872 
	C646.440674,249.032913 644.375610,269.824158 635.367126,286.191437 
	C630.271912,284.910278 625.144775,283.779938 620.111633,282.324738 
	C606.781433,278.470642 593.489319,274.484894 580.187805,270.532013 
	C576.087463,269.313477 572.616516,270.085785 570.019470,273.649963 
	C565.833130,279.395325 567.629211,289.905487 573.686401,293.623138 
	C577.059692,295.693512 580.666443,297.590759 584.414490,298.805634 
	C597.476074,303.039276 610.722778,306.707672 623.751526,311.035370 
	C636.666870,315.325378 647.496582,312.193878 657.472107,303.324280 
M169.390625,465.015564 
	C183.036041,467.665161 196.655167,470.463379 210.341080,472.883972 
	C215.149551,473.734436 217.599045,475.458405 217.203308,480.834869 
	C216.523331,490.073029 217.148834,499.454041 215.903244,508.594788 
	C212.412292,534.213501 208.330399,559.753540 204.297226,585.295471 
	C202.978622,593.646057 202.271332,601.704529 206.793747,609.474182 
	C211.689224,617.884827 222.284042,624.032288 231.226639,622.972778 
	C241.553604,621.749207 247.509598,615.555847 250.019135,605.765015 
	C253.503479,592.171082 257.345734,578.648987 260.247803,564.929688 
	C267.014465,532.940613 269.325836,500.532745 269.216217,467.839386 
	C269.167999,453.445679 263.131592,443.633911 251.348923,436.352753 
	C237.380234,427.720734 221.767471,423.231995 206.406738,418.112946 
	C198.893112,415.608948 191.536804,412.805969 187.307800,405.663300 
	C181.142258,395.249847 178.123428,383.816162 176.940063,371.750946 
	C175.207687,354.087830 182.920471,339.062042 189.688812,323.221771 
	C193.792130,329.435120 198.129868,335.163757 201.544998,341.397827 
	C205.385773,348.408813 205.095520,348.861328 213.086502,347.559113 
	C223.169235,345.916046 233.215881,344.004639 243.215958,341.912109 
	C258.566803,338.699860 273.901215,335.390533 289.170288,331.813660 
	C297.329163,329.902405 301.312775,324.113098 299.694336,317.618591 
	C297.691986,309.583527 292.367188,306.523712 283.343994,308.770752 
	C269.570251,312.200836 255.821793,315.755829 242.165833,319.622375 
	C237.568863,320.923950 233.524857,320.823700 229.295364,318.680511 
	C221.790237,314.877441 215.767441,309.416382 212.052597,301.971191 
	C204.600418,287.035706 199.586899,271.287201 199.058380,254.458633 
	C198.719482,243.668076 198.994843,232.858215 198.994843,222.167145 
	C192.669571,220.961639 187.292603,220.524597 182.335251,218.847305 
	C175.744110,216.617249 167.828354,216.950165 163.086731,209.748123 
	C160.870422,212.545761 158.608658,215.157166 156.614349,217.958939 
	C146.041321,232.812805 135.323807,247.570938 125.092033,262.657684 
	C119.644577,270.689941 113.388580,278.764618 110.426361,287.782257 
	C101.056709,316.305542 95.666161,345.846741 90.983345,375.486420 
	C89.227348,386.600891 87.333366,397.693542 85.407516,409.370819 
	C72.511909,409.370819 59.887833,409.370819 48.034977,409.370819 
	C53.910534,386.800385 60.267464,364.476288 65.419296,341.877441 
	C69.047859,325.960541 69.342461,309.875702 64.387421,293.769684 
	C58.544022,274.776123 58.229336,255.289627 61.920635,235.724915 
	C63.596016,226.845047 58.928947,220.022247 50.145699,218.064285 
	C42.679466,216.399918 35.596153,217.876953 29.077208,221.596436 
	C19.144501,227.263687 15.393097,236.545425 13.681531,247.424530 
	C11.216114,263.095306 11.665868,278.066620 19.450478,292.436432 
	C22.746746,298.521057 25.217878,305.142242 27.343983,311.751221 
	C30.927366,322.890137 36.072689,333.744659 35.001934,345.941406 
	C34.626392,350.219147 33.860237,354.487000 33.813820,358.765259 
	C33.473995,390.087555 33.276936,421.411377 33.023174,452.734619 
	C32.943314,462.591888 34.335739,464.016998 44.149693,464.015381 
	C82.478134,464.009094 120.806618,463.982300 159.134964,464.042847 
	C162.258591,464.047791 165.381256,464.655396 169.390625,465.015564 
M32.197334,588.362793 
	C30.467480,588.682678 28.733620,589.298401 27.008423,589.274963 
	C14.919223,589.111206 8.492064,594.342285 6.367473,606.255798 
	C4.752398,615.312256 8.788163,625.239685 15.776040,629.399353 
	C23.547407,634.025452 32.884243,633.927124 39.235252,629.152405 
	C45.785404,624.227966 48.642006,613.908081 45.935581,604.694946 
	C45.115944,601.904785 44.112999,599.168518 43.158493,596.300842 
	C53.778027,596.300842 64.158348,595.372131 74.311760,596.495117 
	C95.165703,598.801453 114.949913,605.383301 134.127914,613.853027 
	C143.237030,617.875854 151.810287,621.035400 155.899231,632.325562 
	C160.377121,644.689697 182.427811,645.665771 190.492889,635.012573 
	C191.268723,633.987732 191.771378,632.684875 192.139526,631.434143 
	C194.727997,622.639832 191.219437,615.307800 186.510315,608.259827 
	C185.622238,606.930603 184.244904,605.456299 184.264145,604.065125 
	C184.482483,588.272400 184.833313,572.479492 185.376541,556.694519 
	C185.524368,552.398743 184.206833,550.857178 179.722824,550.957214 
	C163.065201,551.329102 146.399460,551.343933 129.736633,551.474060 
	C125.172035,551.509705 120.606926,551.479492 116.710884,551.479492 
	C116.710884,533.852966 116.710884,517.447754 116.710884,501.005646 
	C131.043060,501.005646 144.688171,500.909210 158.330139,501.073578 
	C161.732071,501.114563 163.195892,500.175629 163.018066,496.618317 
	C162.810379,492.463257 162.753098,488.272095 163.046417,484.126038 
	C163.869888,472.486420 158.942322,469.941315 148.464218,470.089081 
	C139.969864,470.208832 131.475876,470.389130 122.981125,470.439056 
	C108.494446,470.524231 94.005219,470.393951 79.521118,470.617157 
	C70.977486,470.748779 65.509193,475.998169 62.971199,483.453186 
	C61.125408,488.875000 61.196087,494.949249 60.371880,501.030853 
	C72.030846,501.030853 82.413254,501.030853 92.895859,501.030853 
	C92.895859,518.616638 92.895859,535.589661 92.895859,553.081543 
	C70.361481,560.165710 47.509720,567.075867 32.197334,588.362793 
M797.319031,558.122375 
	C792.471313,556.559021 787.623657,554.995667 784.010376,553.830444 
	C784.010376,535.928284 784.010376,518.721497 784.010376,501.116882 
	C794.410767,501.116882 803.500793,501.116882 812.657410,501.116882 
	C812.395447,496.266937 812.364990,492.112854 811.910522,488.005676 
	C810.826111,478.206268 805.678833,471.404785 794.732178,471.013580 
	C770.778687,470.157410 746.786865,470.295990 722.810120,470.233337 
	C717.814453,470.220276 712.666443,471.936218 711.282959,477.147858 
	C709.243347,484.830902 709.429382,492.822021 711.161682,501.183838 
	C727.568604,501.183838 743.633423,501.183838 759.370056,501.183838 
	C759.370056,518.127441 759.370056,534.509644 759.370056,551.266296 
	C753.343079,551.266296 747.871765,551.246277 742.400574,551.270081 
	C726.247925,551.340332 710.093872,551.570068 693.943604,551.410217 
	C689.836670,551.369629 688.923096,552.835754 688.963989,556.577881 
	C689.124390,571.235352 689.108826,585.896606 688.935791,600.553772 
	C688.913940,602.400085 687.642822,604.264587 686.821594,606.061768 
	C684.927734,610.206116 681.860718,614.154236 681.229431,618.468689 
	C679.657288,629.213745 686.799927,636.873779 699.733215,639.648743 
	C707.934753,641.408508 715.873596,636.354065 718.989319,627.017578 
	C719.992126,624.012512 721.517029,622.120178 724.348389,620.579163 
	C740.381287,611.853027 757.041992,604.637695 774.788696,600.359924 
	C793.493286,595.851196 812.438354,593.139587 831.811340,596.013550 
	C830.592346,598.197693 829.279175,600.102539 828.405823,602.191284 
	C823.992371,612.747131 827.814697,626.655457 836.324707,630.868469 
	C844.533020,634.932190 852.451904,633.771179 859.752014,628.662964 
	C867.031921,623.568848 868.303162,615.599426 867.391968,607.794373 
	C865.979126,595.691895 859.987610,590.840881 847.708618,589.641968 
	C845.946960,589.469971 843.640503,588.858398 842.661377,587.608276 
	C831.061584,572.796509 815.330261,564.454285 797.319031,558.122375 
M421.463196,276.054871 
	C451.503815,277.214294 481.544434,278.373718 511.530365,279.531036 
	C507.975037,274.799347 504.259979,270.180786 500.909119,265.311615 
	C496.877563,259.453339 491.907776,253.818985 489.621399,247.290207 
	C486.875122,239.448166 486.131195,230.806580 485.271942,222.434036 
	C484.619537,216.077103 485.142548,209.599548 485.142548,203.142242 
	C452.337402,203.142242 420.855804,203.142242 390.549408,203.142242 
	C387.868011,227.971130 385.302673,251.725327 382.678162,276.027679 
	C395.196259,276.027679 407.834839,276.027679 421.463196,276.054871 
M427.711548,26.004988 
	C426.097015,26.342754 424.478485,26.662592 422.868530,27.020950 
	C392.302826,33.824669 383.063049,64.209663 389.908142,85.339737 
	C397.290436,108.127907 418.104095,120.237236 442.607391,117.069763 
	C473.500519,113.076279 487.911530,83.371017 481.270782,58.301502 
	C475.527893,36.621449 452.557098,22.719097 427.711548,26.004988 
M375.099457,216.504211 
	C375.108917,215.338150 375.165192,214.170288 375.120575,213.006302 
	C374.709412,202.284409 375.475220,192.677704 383.959442,183.843613 
	C393.869202,173.525177 401.544403,161.055695 410.100983,149.454483 
	C410.649841,148.710297 410.877655,147.216675 410.517761,146.394302 
	C406.996307,138.348328 403.652832,130.192459 399.528412,122.457253 
	C397.746399,119.115135 394.401611,116.525986 391.505341,113.881012 
	C388.662323,111.284691 385.463226,111.776833 382.320618,113.653419 
	C358.486969,127.885452 344.241364,148.569458 342.194550,176.391998 
	C340.927826,193.610916 341.556793,210.969009 341.317291,228.264404 
	C341.300262,229.492706 341.138855,230.718994 341.052490,231.842850 
	C317.863373,232.358871 298.128021,240.869232 280.385406,255.359436 
	C311.530457,255.359436 342.675537,255.359436 375.078064,255.359436 
	C375.078064,242.771347 375.078064,230.136719 375.099457,216.504211 
M491.477600,180.032928 
	C493.230347,183.565964 494.983093,187.099014 496.874084,190.910721 
	C498.630157,190.910721 500.703766,190.910721 503.274139,190.910721 
	C504.015045,198.404984 504.720215,205.537857 505.428406,212.701035 
	C501.887146,212.972412 499.465668,213.157974 496.563110,213.380402 
	C497.779175,226.951218 500.377533,239.708267 506.225006,251.578186 
	C507.054474,253.262009 510.098328,254.767624 512.141785,254.799759 
	C532.929199,255.126999 553.721680,255.141418 574.512817,255.221039 
	C582.598511,255.251999 590.684448,255.226105 599.022278,255.226105 
	C581.203430,240.822144 560.869812,232.527634 537.951111,231.407150 
	C537.951111,224.708420 538.128601,218.887482 537.916443,213.080765 
	C537.371582,198.169540 537.913879,183.075226 535.708069,168.401901 
	C532.448792,146.720505 520.005066,130.290024 501.993652,117.822426 
	C493.006500,111.601448 480.973114,116.503723 477.951263,125.559395 
	C475.922943,131.637756 473.157043,137.470001 471.108032,142.468597 
	C477.913116,155.037903 484.505157,167.213669 491.477600,180.032928 
M155.119934,161.052902 
	C154.171936,172.411224 155.279480,183.328552 162.327103,192.847885 
	C172.452148,206.523911 186.477402,212.883179 203.012360,211.344513 
	C222.256790,209.553726 237.724182,201.103378 245.087433,181.611359 
	C249.158295,170.835007 250.249603,160.210266 245.384201,149.475952 
	C238.717072,134.766541 226.890717,127.289024 211.253799,124.716827 
	C184.037735,120.239944 161.302628,133.189972 155.119934,161.052902 
M637.780212,160.304199 
	C637.701233,165.249512 636.655579,170.410370 637.702271,175.104706 
	C643.889893,202.856842 672.376160,217.608643 700.217896,207.864548 
	C716.974121,202.000198 728.293335,187.357819 729.026794,169.887314 
	C729.738525,152.934738 722.175110,136.189041 704.690186,128.525024 
	C694.632263,124.116386 684.339722,123.442726 673.566833,124.940125 
	C655.753174,127.416168 639.787842,142.600128 637.780212,160.304199 
M215.054840,242.409927 
	C213.585815,241.499832 212.116791,240.589737 210.201645,239.403275 
	C209.090347,244.458069 207.969498,248.755371 207.222916,253.116760 
	C205.604599,262.570770 203.273010,272.137939 208.101501,281.344666 
	C211.561478,287.941956 214.910797,294.667419 219.098068,300.796997 
	C225.714478,310.482452 235.255264,313.850128 246.438065,310.705811 
	C260.117218,306.859558 273.681244,302.599335 287.263367,298.415222 
	C291.372070,297.149414 295.483551,295.784302 299.403595,294.037872 
	C306.494934,290.878571 310.023193,282.671600 307.564972,275.780731 
	C305.318298,269.482819 300.055328,267.520630 291.323761,270.152588 
	C274.332275,275.274384 257.394897,280.575684 240.626221,285.743744 
	C236.140106,275.683624 231.696457,265.540741 227.094299,255.470306 
	C224.636337,250.091782 221.109528,245.562439 215.054840,242.409927 
M405.965668,171.451584 
	C401.731476,177.383636 397.497314,183.315689 392.620636,190.147888 
	C410.650146,190.147888 427.100891,190.147888 443.810760,190.147888 
	C447.006287,179.834900 450.231415,169.595230 453.347473,159.322495 
	C456.480713,148.993027 459.505402,138.630646 462.360474,129.014282 
	C447.702240,129.014282 433.558014,129.014282 419.009216,129.014282 
	C419.009216,130.467361 418.145508,133.302567 419.182220,134.918686 
	C421.625671,138.727783 420.520935,141.590698 418.818695,144.650070 
	C419.549225,146.994736 420.417725,149.823624 419.396179,151.502426 
	C415.357513,158.139450 410.726471,164.416031 405.965668,171.451584 
M526.804688,319.533020 
	C532.364868,328.922211 542.484192,332.589294 553.666199,329.267120 
	C568.329773,324.910614 573.724121,312.617584 566.955017,298.983429 
	C562.290833,289.588837 553.042175,284.186188 543.181213,285.095825 
	C533.526062,285.986450 527.406250,291.062378 524.593994,301.034607 
	C522.874695,307.131104 523.531006,313.178345 526.804688,319.533020 
M307.824738,321.463440 
	C310.916962,326.675018 315.804260,329.368134 321.460510,330.596405 
	C330.660187,332.594147 339.222046,331.115692 345.486084,323.595001 
	C351.654175,316.189514 351.638947,306.086609 346.280365,297.174957 
	C341.652557,289.478668 332.750336,285.554504 323.234222,287.016113 
	C308.527374,289.274963 300.996277,305.354431 307.824738,321.463440 
M473.404022,190.560135 
	C476.842529,190.560135 480.281036,190.560135 485.300293,190.560135 
	C478.574280,177.668091 472.475708,165.978638 466.639252,154.791565 
	C463.108521,166.355438 459.487976,178.213470 455.693939,190.639740 
	C461.801239,190.639740 467.117218,190.639740 473.404022,190.560135 
M363.157990,357.892517 
	C361.890533,358.145844 360.623077,358.399170 359.355621,358.652496 
	C360.254730,359.711639 361.178925,361.702881 362.048859,361.679443 
	C367.912476,361.521454 373.764557,360.936401 379.620392,360.489624 
	C379.807617,359.961731 379.994873,359.433868 380.182098,358.906006 
	C378.722992,358.271729 377.260986,357.098846 375.805359,357.106781 
	C371.852539,357.128265 367.902374,357.650085 363.157990,357.892517 
z"/>
<path fill="#020203" opacity="1.000000" stroke="none" 
	d="
M168.947510,464.999268 
	C165.381256,464.655396 162.258591,464.047791 159.134964,464.042847 
	C120.806618,463.982300 82.478134,464.009094 44.149693,464.015381 
	C34.335739,464.016998 32.943314,462.591888 33.023174,452.734619 
	C33.276936,421.411377 33.473995,390.087555 33.813820,358.765259 
	C33.860237,354.487000 34.626392,350.219147 35.001934,345.941406 
	C36.072689,333.744659 30.927366,322.890137 27.343983,311.751221 
	C25.217878,305.142242 22.746746,298.521057 19.450478,292.436432 
	C11.665868,278.066620 11.216114,263.095306 13.681531,247.424530 
	C15.393097,236.545425 19.144501,227.263687 29.077208,221.596436 
	C35.596153,217.876953 42.679466,216.399918 50.145699,218.064285 
	C58.928947,220.022247 63.596016,226.845047 61.920635,235.724915 
	C58.229336,255.289627 58.544022,274.776123 64.387421,293.769684 
	C69.342461,309.875702 69.047859,325.960541 65.419296,341.877441 
	C60.267464,364.476288 53.910534,386.800385 48.034977,409.370819 
	C59.887833,409.370819 72.511909,409.370819 85.407516,409.370819 
	C87.333366,397.693542 89.227348,386.600891 90.983345,375.486420 
	C95.666161,345.846741 101.056709,316.305542 110.426361,287.782257 
	C113.388580,278.764618 119.644577,270.689941 125.092033,262.657684 
	C135.323807,247.570938 146.041321,232.812805 156.614349,217.958939 
	C158.608658,215.157166 160.870422,212.545761 163.086731,209.748123 
	C167.828354,216.950165 175.744110,216.617249 182.335251,218.847305 
	C187.292603,220.524597 192.669571,220.961639 198.994843,222.167145 
	C198.994843,232.858215 198.719482,243.668076 199.058380,254.458633 
	C199.586899,271.287201 204.600418,287.035706 212.052597,301.971191 
	C215.767441,309.416382 221.790237,314.877441 229.295364,318.680511 
	C233.524857,320.823700 237.568863,320.923950 242.165833,319.622375 
	C255.821793,315.755829 269.570251,312.200836 283.343994,308.770752 
	C292.367188,306.523712 297.691986,309.583527 299.694336,317.618591 
	C301.312775,324.113098 297.329163,329.902405 289.170288,331.813660 
	C273.901215,335.390533 258.566803,338.699860 243.215958,341.912109 
	C233.215881,344.004639 223.169235,345.916046 213.086502,347.559113 
	C205.095520,348.861328 205.385773,348.408813 201.544998,341.397827 
	C198.129868,335.163757 193.792130,329.435120 189.688812,323.221771 
	C182.920471,339.062042 175.207687,354.087830 176.940063,371.750946 
	C178.123428,383.816162 181.142258,395.249847 187.307800,405.663300 
	C191.536804,412.805969 198.893112,415.608948 206.406738,418.112946 
	C221.767471,423.231995 237.380234,427.720734 251.348923,436.352753 
	C263.131592,443.633911 269.167999,453.445679 269.216217,467.839386 
	C269.325836,500.532745 267.014465,532.940613 260.247803,564.929688 
	C257.345734,578.648987 253.503479,592.171082 250.019135,605.765015 
	C247.509598,615.555847 241.553604,621.749207 231.226639,622.972778 
	C222.284042,624.032288 211.689224,617.884827 206.793747,609.474182 
	C202.271332,601.704529 202.978622,593.646057 204.297226,585.295471 
	C208.330399,559.753540 212.412292,534.213501 215.903244,508.594788 
	C217.148834,499.454041 216.523331,490.073029 217.203308,480.834869 
	C217.599045,475.458405 215.149551,473.734436 210.341080,472.883972 
	C196.655167,470.463379 183.036041,467.665161 168.947510,464.999268 
z"/>
<path fill="#030303" opacity="1.000000" stroke="none" 
	d="
M510.914642,365.220947 
	C512.601318,365.522705 514.287964,366.087616 515.974609,366.087585 
	C555.471008,366.087006 594.967407,366.016602 634.463806,365.981781 
	C643.201965,365.974091 650.802673,369.313660 657.994629,373.975250 
	C661.499695,376.247131 665.228210,378.174316 667.060791,379.226776 
	C657.739685,381.635712 646.408386,384.602631 635.049316,387.458862 
	C633.312195,387.895691 631.446899,387.953735 629.640015,387.960938 
	C618.682434,388.004639 607.724670,387.982727 596.431763,387.982727 
	C596.431763,462.515442 596.431763,536.596680 596.431763,611.095581 
	C600.751221,611.385193 605.150940,611.680176 610.031799,612.007446 
	C610.031799,628.094482 610.270874,644.005005 609.796814,659.894287 
	C609.717651,662.547241 607.134705,666.159058 604.696411,667.538818 
	C589.795654,675.970703 574.189636,677.803650 558.100220,670.817871 
	C553.475830,668.810120 550.624390,662.732971 551.209167,656.478271 
	C552.400330,643.737915 553.468567,630.984497 554.861877,618.266479 
	C555.060120,616.457397 556.375122,614.007385 557.882874,613.229553 
	C567.396667,608.321106 570.149536,600.865601 569.997437,590.256409 
	C569.352600,545.272827 569.506104,500.277039 569.477234,455.285614 
	C569.464905,436.123505 569.723816,416.961243 569.851929,397.798950 
	C569.872803,394.672791 569.854797,391.546387 569.854797,388.502991 
	C544.343506,388.502991 519.423279,388.502991 494.194702,388.502991 
	C494.194702,402.519409 494.196411,416.135437 494.194397,429.751495 
	C494.189178,465.081390 494.155029,500.411346 494.193756,535.741211 
	C494.204651,545.677124 491.891174,554.658569 483.252716,560.562439 
	C475.902710,565.585815 467.807159,566.312561 459.797577,562.093384 
	C451.362915,557.650269 449.364166,549.559937 449.347931,540.979797 
	C449.283508,506.985504 449.463165,472.990845 449.526245,438.996246 
	C449.557434,422.196198 449.531647,405.396027 449.531647,388.298309 
	C443.238861,388.298309 436.850281,388.298309 429.657501,388.298309 
	C429.657501,391.243195 429.657654,394.188965 429.657440,397.134735 
	C429.654022,445.294098 429.623444,493.453522 429.664764,541.612854 
	C429.676331,555.090332 421.589752,564.118652 409.210236,564.158691 
	C395.900421,564.201721 385.945831,554.588196 385.944366,541.473206 
	C385.939178,494.477661 385.999420,447.482147 386.034180,400.486603 
	C386.037109,396.522064 386.034576,392.557556 386.034576,388.302063 
	C359.926575,388.302063 334.207703,388.302063 308.067657,388.302063 
	C308.067657,397.830261 308.073059,407.115356 308.066772,416.400421 
	C308.025177,477.893585 308.015594,539.386902 307.843506,600.879700 
	C307.834167,604.218506 309.029907,606.579895 311.614136,607.735596 
	C321.764099,612.274475 323.911774,620.064819 323.259979,630.538330 
	C322.667328,640.062195 324.287506,649.731445 325.037201,659.328369 
	C325.503113,665.292603 322.714661,668.604065 317.417419,671.212280 
	C302.052338,678.777710 278.511444,676.373413 267.430695,664.112244 
	C266.166595,662.713440 265.119324,660.453369 265.177246,658.630920 
	C265.626556,644.496277 266.404053,630.372498 267.001434,616.242004 
	C267.133270,613.123962 268.428864,611.802246 271.641205,611.922546 
	C274.271545,612.020996 276.922668,611.564697 280.273743,611.297852 
	C280.273743,536.974548 280.273743,462.921844 280.273743,389.313049 
	C266.522491,388.560211 252.466507,388.178558 238.508224,386.804657 
	C233.958649,386.356842 229.700790,383.225769 225.242630,381.494202 
	C220.210388,379.539612 215.093872,377.802856 210.038315,375.906555 
	C209.341995,375.645355 208.785583,375.011169 208.512146,374.808044 
	C218.113647,372.237274 227.752792,369.495972 237.484497,367.136475 
	C240.964478,366.292755 244.667770,366.081970 248.270096,366.075043 
	C285.766449,366.002838 323.263000,366.031799 360.759491,366.029968 
	C362.756073,366.029877 364.752686,366.005096 367.542236,365.991943 
	C369.998474,365.941559 371.661743,365.891052 373.325043,365.840546 
	C377.019531,365.890747 380.714050,365.940948 385.269470,365.993408 
	C427.725159,365.737396 469.319885,365.479187 510.914642,365.220947 
z"/>
<path fill="#030203" opacity="1.000000" stroke="none" 
	d="
M673.938354,277.990051 
	C675.586731,268.210175 677.814331,258.483124 678.711914,248.634842 
	C679.523804,239.726547 678.883423,230.685898 678.883423,221.147049 
	C691.107605,221.010910 703.102844,221.361938 714.248718,213.609116 
	C724.496826,234.590271 736.277222,255.105255 744.775879,276.899902 
	C759.870422,315.609528 773.097351,355.052155 786.852905,394.276764 
	C792.392761,410.073792 792.089600,410.151489 808.441833,410.011536 
	C816.573059,409.941956 824.705383,409.999390 834.088074,409.999390 
	C830.266785,398.169006 826.784302,387.879608 823.621582,377.492828 
	C817.128357,356.168732 814.760498,334.223999 815.410522,312.060883 
	C815.619141,304.949493 818.066162,297.798279 820.159302,290.867676 
	C826.050171,271.362732 829.302917,251.499756 829.204041,231.119293 
	C829.158569,221.751968 835.424316,216.085800 844.720764,217.297958 
	C860.156189,219.310623 868.479736,229.318146 870.205872,244.840591 
	C872.838989,268.518982 864.617432,289.133484 854.484436,309.523834 
	C847.597107,323.382904 844.358887,337.854767 844.718323,353.635406 
	C845.477112,386.951385 845.021545,420.295959 844.971191,453.628693 
	C844.958679,461.906036 842.602905,463.997955 834.075623,463.999054 
	C801.909119,464.003174 769.716309,464.787964 737.585632,463.714508 
	C717.146973,463.031677 697.470825,465.758026 677.803833,470.377808 
	C672.983887,471.510040 668.060608,472.242950 663.155396,472.957001 
	C660.002136,473.416077 657.911560,474.452515 657.952942,478.150818 
	C658.106995,491.917114 657.684143,505.707123 658.360168,519.444824 
	C658.896667,530.345947 660.545959,541.207581 662.023438,552.042847 
	C663.631836,563.837891 665.697021,575.570007 667.390503,587.354309 
	C668.121765,592.442627 669.161987,597.664368 668.679565,602.692871 
	C668.294678,606.705322 666.682861,611.270874 664.085266,614.261902 
	C658.515320,620.675537 650.800598,623.689209 642.248535,622.949280 
	C632.735229,622.126038 625.279114,617.740234 623.099365,607.762817 
	C619.177612,589.811401 614.960693,571.873596 612.233154,553.724854 
	C608.697083,530.195862 607.408569,506.416443 608.039917,482.579315 
	C608.213318,476.033936 607.565552,469.389221 608.475891,462.957275 
	C610.283508,450.186035 618.467773,441.758759 628.997437,435.061249 
	C643.591858,425.778290 660.250549,422.128815 676.408813,417.075134 
	C679.390381,416.142548 682.352722,415.141541 685.358704,414.295593 
	C693.425354,412.025452 698.438599,406.498016 700.808594,398.814850 
	C702.452637,393.485352 703.203308,387.858612 704.098083,382.323456 
	C707.488953,361.348175 700.217163,342.822357 690.930176,325.241516 
	C685.455566,330.883881 680.363159,337.202515 674.194458,342.189819 
	C667.996521,347.200684 659.654419,347.278107 652.243896,346.680023 
	C640.764893,345.753540 629.340515,343.507172 618.047485,341.096619 
	C606.258362,338.580200 594.586304,335.437622 582.988647,332.128693 
	C575.033081,329.858917 571.906372,323.829163 574.109497,316.561035 
	C576.108154,309.967743 582.688721,306.426971 590.053223,308.463013 
	C602.799194,311.986816 615.630798,315.320709 628.116150,319.632843 
	C640.190491,323.802979 649.457581,320.195190 657.505188,311.383270 
	C659.619629,309.067932 661.334839,306.387970 663.627869,303.364502 
	C667.327637,294.565735 670.632996,286.277893 673.938354,277.990051 
z"/>
<path fill="#040404" opacity="1.000000" stroke="none" 
	d="
M32.506886,588.108398 
	C47.509720,567.075867 70.361481,560.165710 92.895859,553.081543 
	C92.895859,535.589661 92.895859,518.616638 92.895859,501.030853 
	C82.413254,501.030853 72.030846,501.030853 60.371880,501.030853 
	C61.196087,494.949249 61.125408,488.875000 62.971199,483.453186 
	C65.509193,475.998169 70.977486,470.748779 79.521118,470.617157 
	C94.005219,470.393951 108.494446,470.524231 122.981125,470.439056 
	C131.475876,470.389130 139.969864,470.208832 148.464218,470.089081 
	C158.942322,469.941315 163.869888,472.486420 163.046417,484.126038 
	C162.753098,488.272095 162.810379,492.463257 163.018066,496.618317 
	C163.195892,500.175629 161.732071,501.114563 158.330139,501.073578 
	C144.688171,500.909210 131.043060,501.005646 116.710884,501.005646 
	C116.710884,517.447754 116.710884,533.852966 116.710884,551.479492 
	C120.606926,551.479492 125.172035,551.509705 129.736633,551.474060 
	C146.399460,551.343933 163.065201,551.329102 179.722824,550.957214 
	C184.206833,550.857178 185.524368,552.398743 185.376541,556.694519 
	C184.833313,572.479492 184.482483,588.272400 184.264145,604.065125 
	C184.244904,605.456299 185.622238,606.930603 186.510315,608.259827 
	C191.219437,615.307800 194.727997,622.639832 192.139526,631.434143 
	C191.771378,632.684875 191.268723,633.987732 190.492889,635.012573 
	C182.427811,645.665771 160.377121,644.689697 155.899231,632.325562 
	C151.810287,621.035400 143.237030,617.875854 134.127914,613.853027 
	C114.949913,605.383301 95.165703,598.801453 74.311760,596.495117 
	C64.158348,595.372131 53.778027,596.300842 43.158493,596.300842 
	C44.112999,599.168518 45.115944,601.904785 45.935581,604.694946 
	C48.642006,613.908081 45.785404,624.227966 39.235252,629.152405 
	C32.884243,633.927124 23.547407,634.025452 15.776040,629.399353 
	C8.788163,625.239685 4.752398,615.312256 6.367473,606.255798 
	C8.492064,594.342285 14.919223,589.111206 27.008423,589.274963 
	C28.733620,589.298401 30.467480,588.682678 32.506886,588.108398 
M171.032059,597.477600 
	C170.835068,596.223022 170.638077,594.968384 170.452225,593.784790 
	C162.839035,593.261475 155.605927,592.764282 148.499802,592.275818 
	C152.450302,597.080505 156.457458,601.954041 160.388138,606.734558 
	C163.639374,604.871460 167.081772,603.002563 170.379623,600.906372 
	C170.927277,600.558289 170.844391,599.218262 171.032059,597.477600 
z"/>
<path fill="#040404" opacity="1.000000" stroke="none" 
	d="
M797.654541,558.327148 
	C815.330261,564.454285 831.061584,572.796509 842.661377,587.608276 
	C843.640503,588.858398 845.946960,589.469971 847.708618,589.641968 
	C859.987610,590.840881 865.979126,595.691895 867.391968,607.794373 
	C868.303162,615.599426 867.031921,623.568848 859.752014,628.662964 
	C852.451904,633.771179 844.533020,634.932190 836.324707,630.868469 
	C827.814697,626.655457 823.992371,612.747131 828.405823,602.191284 
	C829.279175,600.102539 830.592346,598.197693 831.811340,596.013550 
	C812.438354,593.139587 793.493286,595.851196 774.788696,600.359924 
	C757.041992,604.637695 740.381287,611.853027 724.348389,620.579163 
	C721.517029,622.120178 719.992126,624.012512 718.989319,627.017578 
	C715.873596,636.354065 707.934753,641.408508 699.733215,639.648743 
	C686.799927,636.873779 679.657288,629.213745 681.229431,618.468689 
	C681.860718,614.154236 684.927734,610.206116 686.821594,606.061768 
	C687.642822,604.264587 688.913940,602.400085 688.935791,600.553772 
	C689.108826,585.896606 689.124390,571.235352 688.963989,556.577881 
	C688.923096,552.835754 689.836670,551.369629 693.943604,551.410217 
	C710.093872,551.570068 726.247925,551.340332 742.400574,551.270081 
	C747.871765,551.246277 753.343079,551.266296 759.370056,551.266296 
	C759.370056,534.509644 759.370056,518.127441 759.370056,501.183838 
	C743.633423,501.183838 727.568604,501.183838 711.161682,501.183838 
	C709.429382,492.822021 709.243347,484.830902 711.282959,477.147858 
	C712.666443,471.936218 717.814453,470.220276 722.810120,470.233337 
	C746.786865,470.295990 770.778687,470.157410 794.732178,471.013580 
	C805.678833,471.404785 810.826111,478.206268 811.910522,488.005676 
	C812.364990,492.112854 812.395447,496.266937 812.657410,501.116882 
	C803.500793,501.116882 794.410767,501.116882 784.010376,501.116882 
	C784.010376,518.721497 784.010376,535.928284 784.010376,553.830444 
	C787.623657,554.995667 792.471313,556.559021 797.654541,558.327148 
M722.495911,594.965271 
	C722.909302,594.416992 723.322693,593.868774 723.670654,593.407227 
	C717.050110,593.407227 710.646240,593.407227 704.138123,593.407227 
	C703.706177,595.763306 703.267212,598.158081 702.879517,600.272705 
	C706.763489,602.456726 710.294678,604.442383 713.581116,606.290405 
	C716.124268,602.848022 718.955688,599.015442 722.495911,594.965271 
z"/>
<path fill="#020203" opacity="1.000000" stroke="none" 
	d="
M420.968323,276.041260 
	C407.834839,276.027679 395.196259,276.027679 382.678162,276.027679 
	C385.302673,251.725327 387.868011,227.971130 390.549408,203.142242 
	C420.855804,203.142242 452.337402,203.142242 485.142548,203.142242 
	C485.142548,209.599548 484.619537,216.077103 485.271942,222.434036 
	C486.131195,230.806580 486.875122,239.448166 489.621399,247.290207 
	C491.907776,253.818985 496.877563,259.453339 500.909119,265.311615 
	C504.259979,270.180786 507.975037,274.799347 511.530365,279.531036 
	C481.544434,278.373718 451.503815,277.214294 420.968323,276.041260 
z"/>
<path fill="#030203" opacity="1.000000" stroke="none" 
	d="
M428.143677,25.994328 
	C452.557098,22.719097 475.527893,36.621449 481.270782,58.301502 
	C487.911530,83.371017 473.500519,113.076279 442.607391,117.069763 
	C418.104095,120.237236 397.290436,108.127907 389.908142,85.339737 
	C383.063049,64.209663 392.302826,33.824669 422.868530,27.020950 
	C424.478485,26.662592 426.097015,26.342754 428.143677,25.994328 
z"/>
<path fill="#040304" opacity="1.000000" stroke="none" 
	d="
M375.088745,217.003143 
	C375.078064,230.136719 375.078064,242.771347 375.078064,255.359436 
	C342.675537,255.359436 311.530457,255.359436 280.385406,255.359436 
	C298.128021,240.869232 317.863373,232.358871 341.052490,231.842850 
	C341.138855,230.718994 341.300262,229.492706 341.317291,228.264404 
	C341.556793,210.969009 340.927826,193.610916 342.194550,176.391998 
	C344.241364,148.569458 358.486969,127.885452 382.320618,113.653419 
	C385.463226,111.776833 388.662323,111.284691 391.505341,113.881012 
	C394.401611,116.525986 397.746399,119.115135 399.528412,122.457253 
	C403.652832,130.192459 406.996307,138.348328 410.517761,146.394302 
	C410.877655,147.216675 410.649841,148.710297 410.100983,149.454483 
	C401.544403,161.055695 393.869202,173.525177 383.959442,183.843613 
	C375.475220,192.677704 374.709412,202.284409 375.120575,213.006302 
	C375.165192,214.170288 375.108917,215.338150 375.088745,217.003143 
z"/>
<path fill="#040404" opacity="1.000000" stroke="none" 
	d="
M491.287415,179.711182 
	C484.505157,167.213669 477.913116,155.037903 471.108032,142.468597 
	C473.157043,137.470001 475.922943,131.637756 477.951263,125.559395 
	C480.973114,116.503723 493.006500,111.601448 501.993652,117.822426 
	C520.005066,130.290024 532.448792,146.720505 535.708069,168.401901 
	C537.913879,183.075226 537.371582,198.169540 537.916443,213.080765 
	C538.128601,218.887482 537.951111,224.708420 537.951111,231.407150 
	C560.869812,232.527634 581.203430,240.822144 599.022278,255.226105 
	C590.684448,255.226105 582.598511,255.251999 574.512817,255.221039 
	C553.721680,255.141418 532.929199,255.126999 512.141785,254.799759 
	C510.098328,254.767624 507.054474,253.262009 506.225006,251.578186 
	C500.377533,239.708267 497.779175,226.951218 496.563110,213.380402 
	C499.465668,213.157974 501.887146,212.972412 505.428406,212.701035 
	C504.720215,205.537857 504.015045,198.404984 503.274139,190.910721 
	C500.703766,190.910721 498.630157,190.910721 496.874084,190.910721 
	C494.983093,187.099014 493.230347,183.565964 491.287415,179.711182 
z"/>
<path fill="#030303" opacity="1.000000" stroke="none" 
	d="
M155.229126,160.622864 
	C161.302628,133.189972 184.037735,120.239944 211.253799,124.716827 
	C226.890717,127.289024 238.717072,134.766541 245.384201,149.475952 
	C250.249603,160.210266 249.158295,170.835007 245.087433,181.611359 
	C237.724182,201.103378 222.256790,209.553726 203.012360,211.344513 
	C186.477402,212.883179 172.452148,206.523911 162.327103,192.847885 
	C155.279480,183.328552 154.171936,172.411224 155.229126,160.622864 
z"/>
<path fill="#030303" opacity="1.000000" stroke="none" 
	d="
M637.845459,159.869995 
	C639.787842,142.600128 655.753174,127.416168 673.566833,124.940125 
	C684.339722,123.442726 694.632263,124.116386 704.690186,128.525024 
	C722.175110,136.189041 729.738525,152.934738 729.026794,169.887314 
	C728.293335,187.357819 716.974121,202.000198 700.217896,207.864548 
	C672.376160,217.608643 643.889893,202.856842 637.702271,175.104706 
	C636.655579,170.410370 637.701233,165.249512 637.845459,159.869995 
z"/>
<path fill="#050505" opacity="1.000000" stroke="none" 
	d="
M657.009399,303.004730 
	C647.496582,312.193878 636.666870,315.325378 623.751526,311.035370 
	C610.722778,306.707672 597.476074,303.039276 584.414490,298.805634 
	C580.666443,297.590759 577.059692,295.693512 573.686401,293.623138 
	C567.629211,289.905487 565.833130,279.395325 570.019470,273.649963 
	C572.616516,270.085785 576.087463,269.313477 580.187805,270.532013 
	C593.489319,274.484894 606.781433,278.470642 620.111633,282.324738 
	C625.144775,283.779938 630.271912,284.910278 635.367126,286.191437 
	C644.375610,269.824158 646.440674,249.032913 667.224426,240.246872 
	C668.881775,252.731033 675.092041,264.330841 670.711670,277.802124 
	C665.939880,286.611786 661.474609,294.808258 657.009399,303.004730 
z"/>
<path fill="#050505" opacity="1.000000" stroke="none" 
	d="
M215.349396,242.632263 
	C221.109528,245.562439 224.636337,250.091782 227.094299,255.470306 
	C231.696457,265.540741 236.140106,275.683624 240.626221,285.743744 
	C257.394897,280.575684 274.332275,275.274384 291.323761,270.152588 
	C300.055328,267.520630 305.318298,269.482819 307.564972,275.780731 
	C310.023193,282.671600 306.494934,290.878571 299.403595,294.037872 
	C295.483551,295.784302 291.372070,297.149414 287.263367,298.415222 
	C273.681244,302.599335 260.117218,306.859558 246.438065,310.705811 
	C235.255264,313.850128 225.714478,310.482452 219.098068,300.796997 
	C214.910797,294.667419 211.561478,287.941956 208.101501,281.344666 
	C203.273010,272.137939 205.604599,262.570770 207.222916,253.116760 
	C207.969498,248.755371 209.090347,244.458069 210.201645,239.403275 
	C212.116791,240.589737 213.585815,241.499832 215.349396,242.632263 
z"/>
<path fill="#050506" opacity="1.000000" stroke="none" 
	d="
M457.998627,347.110260 
	C436.429657,347.110260 414.860718,347.110260 392.436279,347.110260 
	C394.016632,344.161011 394.909302,341.668640 396.474792,339.715637 
	C403.531281,330.912506 410.811676,322.289246 417.936493,313.540161 
	C420.055389,310.938202 422.455505,309.703247 425.967621,309.733978 
	C443.094482,309.883636 460.223724,309.823578 477.351746,309.746155 
	C483.994568,309.716125 490.636719,309.334564 497.278351,309.355713 
	C499.109894,309.361542 500.938660,310.240845 502.768677,310.719360 
	C502.237427,312.371399 502.023224,314.224396 501.123932,315.643127 
	C494.832062,325.569550 488.398590,335.406189 481.602234,345.844177 
	C473.462219,346.647949 465.730408,346.879089 457.998627,347.110260 
M460.116364,329.548340 
	C459.869995,330.951599 459.623657,332.354828 459.376251,333.764038 
	C470.766907,334.615021 471.642181,334.138123 475.068146,325.983063 
	C471.730469,325.983063 467.990479,326.272003 464.321991,325.884216 
	C461.761993,325.613617 460.732178,326.428314 460.116364,329.548340 
M438.959656,322.745758 
	C433.516571,320.130157 431.762787,324.606628 429.265320,327.774139 
	C434.342773,325.884644 441.931915,332.516876 444.996857,322.899506 
	C443.056030,322.899506 441.424316,322.899506 438.959656,322.745758 
z"/>
<path fill="#040404" opacity="1.000000" stroke="none" 
	d="
M406.140381,171.138931 
	C410.726471,164.416031 415.357513,158.139450 419.396179,151.502426 
	C420.417725,149.823624 419.549225,146.994736 418.818695,144.650070 
	C420.520935,141.590698 421.625671,138.727783 419.182220,134.918686 
	C418.145508,133.302567 419.009216,130.467361 419.009216,129.014282 
	C433.558014,129.014282 447.702240,129.014282 462.360474,129.014282 
	C459.505402,138.630646 456.480713,148.993027 453.347473,159.322495 
	C450.231415,169.595230 447.006287,179.834900 443.810760,190.147888 
	C427.100891,190.147888 410.650146,190.147888 392.620636,190.147888 
	C397.497314,183.315689 401.731476,177.383636 406.140381,171.138931 
z"/>
<path fill="#050505" opacity="1.000000" stroke="none" 
	d="
M526.566406,319.230560 
	C523.531006,313.178345 522.874695,307.131104 524.593994,301.034607 
	C527.406250,291.062378 533.526062,285.986450 543.181213,285.095825 
	C553.042175,284.186188 562.290833,289.588837 566.955017,298.983429 
	C573.724121,312.617584 568.329773,324.910614 553.666199,329.267120 
	C542.484192,332.589294 532.364868,328.922211 526.566406,319.230560 
z"/>
<path fill="#040505" opacity="1.000000" stroke="none" 
	d="
M307.608795,321.151031 
	C300.996277,305.354431 308.527374,289.274963 323.234222,287.016113 
	C332.750336,285.554504 341.652557,289.478668 346.280365,297.174957 
	C351.638947,306.086609 351.654175,316.189514 345.486084,323.595001 
	C339.222046,331.115692 330.660187,332.594147 321.460510,330.596405 
	C315.804260,329.368134 310.916962,326.675018 307.608795,321.151031 
z"/>
<path fill="#F9FAFC" opacity="1.000000" stroke="none" 
	d="
M457.935150,347.447357 
	C465.730408,346.879089 473.462219,346.647949 481.551270,346.192749 
	C482.114319,347.307892 482.264587,348.658386 482.535736,349.984161 
	C483.571899,355.050201 485.520691,358.863983 491.713928,359.237274 
	C495.820068,359.484802 499.805542,361.348267 503.923859,361.900757 
	C507.236633,362.345154 510.427216,362.384949 513.214600,359.003601 
	C514.501343,357.442657 518.553650,358.161560 521.352051,357.846802 
	C521.575073,358.591309 521.798096,359.335815 522.021179,360.080322 
	C519.117798,361.254181 516.213989,362.426788 513.311462,363.602844 
	C512.548218,363.912079 511.789246,364.231995 510.971466,364.884003 
	C469.319885,365.479187 427.725159,365.737396 385.761230,365.918396 
	C386.844086,361.299133 388.357269,357.123505 394.782990,358.571716 
	C395.587189,358.752991 397.242615,355.157471 398.503632,353.311890 
	C398.164307,352.979950 397.824982,352.647980 397.485657,352.316040 
	C400.583160,351.284821 403.631165,349.753418 406.799713,349.439606 
	C408.317627,349.289276 411.064972,351.134125 411.523438,352.612518 
	C413.046448,357.523621 416.454834,358.933655 420.929199,358.981079 
	C427.671356,359.052582 434.416351,359.077179 441.156525,358.942383 
	C442.719696,358.911133 444.401794,358.413086 445.799438,357.687378 
	C450.506287,355.243347 453.521362,355.982574 455.996521,360.573273 
	C456.849091,362.154602 457.454590,363.869171 458.173004,365.522858 
	C458.687836,364.849365 459.202637,364.175873 459.717468,363.502350 
	C460.472229,360.695038 461.226990,357.887695 462.062653,354.779449 
	C459.792297,354.021637 456.861389,353.043335 452.797241,351.686798 
	C455.398865,349.686096 456.635254,348.735260 457.935150,347.447357 
z"/>
<path fill="#08080A" opacity="1.000000" stroke="none" 
	d="
M472.918610,190.599945 
	C467.117218,190.639740 461.801239,190.639740 455.693939,190.639740 
	C459.487976,178.213470 463.108521,166.355438 466.639252,154.791565 
	C472.475708,165.978638 478.574280,177.668091 485.300293,190.560135 
	C480.281036,190.560135 476.842529,190.560135 472.918610,190.599945 
z"/>
<path fill="#DFDFE0" opacity="1.000000" stroke="none" 
	d="
M657.240723,303.164490 
	C661.474609,294.808258 665.939880,286.611786 670.693237,278.205994 
	C671.720825,278.007385 672.460266,278.018127 673.569031,278.009460 
	C670.632996,286.277893 667.327637,294.565735 663.799561,303.005615 
	C661.664917,302.428131 659.678223,301.346588 658.533630,304.229004 
	C658.179810,303.927429 657.825928,303.625854 657.240723,303.164490 
z"/>
<path fill="#F9FAFC" opacity="1.000000" stroke="none" 
	d="
M363.554565,357.933044 
	C367.902374,357.650085 371.852539,357.128265 375.805359,357.106781 
	C377.260986,357.098846 378.722992,358.271729 380.182098,358.906006 
	C379.994873,359.433868 379.807617,359.961731 379.620392,360.489624 
	C373.764557,360.936401 367.912476,361.521454 362.048859,361.679443 
	C361.178925,361.702881 360.254730,359.711639 359.355621,358.652466 
	C360.623077,358.399170 361.890533,358.145844 363.554565,357.933044 
z"/>
<path fill="#F9FAFC" opacity="1.000000" stroke="none" 
	d="
M373.479309,365.424927 
	C371.661743,365.891052 369.998474,365.941559 367.984741,365.916443 
	C368.118256,364.917358 368.802307,363.148804 369.053497,363.208252 
	C370.633728,363.582428 372.117767,364.363007 373.479309,365.424927 
z"/>
<path fill="#F0F0F1" opacity="1.000000" stroke="none" 
	d="
M171.042480,597.907104 
	C170.844391,599.218262 170.927277,600.558289 170.379623,600.906372 
	C167.081772,603.002563 163.639374,604.871460 160.388138,606.734558 
	C156.457458,601.954041 152.450302,597.080505 148.499802,592.275818 
	C155.605927,592.764282 162.839035,593.261475 170.452225,593.784790 
	C170.638077,594.968384 170.835068,596.223022 171.042480,597.907104 
z"/>
<path fill="#F3F3F3" opacity="1.000000" stroke="none" 
	d="
M722.141479,595.074097 
	C718.955688,599.015442 716.124268,602.848022 713.581116,606.290405 
	C710.294678,604.442383 706.763489,602.456726 702.879517,600.272705 
	C703.267212,598.158081 703.706177,595.763306 704.138123,593.407227 
	C710.646240,593.407227 717.050110,593.407227 723.670654,593.407227 
	C723.322693,593.868774 722.909302,594.416992 722.141479,595.074097 
z"/>
<path fill="#F3F3F3" opacity="1.000000" stroke="none" 
	d="
M460.274353,329.146240 
	C460.732178,326.428314 461.761993,325.613617 464.321991,325.884216 
	C467.990479,326.272003 471.730469,325.983063 475.068146,325.983063 
	C471.642181,334.138123 470.766907,334.615021 459.376251,333.764038 
	C459.623657,332.354828 459.869995,330.951599 460.274353,329.146240 
z"/>
<path fill="#F3F3F3" opacity="1.000000" stroke="none" 
	d="
M439.376129,322.822632 
	C441.424316,322.899506 443.056030,322.899506 444.996857,322.899506 
	C441.931915,332.516876 434.342773,325.884644 429.265320,327.774139 
	C431.762787,324.606628 433.516571,320.130157 439.376129,322.822632 
z"/>
</svg>