<svg version="1.1" id="Layer_1" xmlns="http://www.w3.org/2000/svg" xmlns:xlink="http://www.w3.org/1999/xlink" x="0px" y="0px"
	 width="100%" viewBox="0 0 587 470" enable-background="new 0 0 587 470" xml:space="preserve">
<path fill="#F9FAFB" opacity="1.000000" stroke="none" 
	d="
M337.000000,471.000000 
	C224.693100,471.000000 112.886192,471.000000 1.039645,471.000000 
	C1.039645,314.396790 1.039645,157.793579 1.039645,1.095183 
	C196.556931,1.095183 392.113922,1.095183 587.835449,1.095183 
	C587.835449,157.666534 587.835449,314.333252 587.835449,471.000000 
	C504.460205,471.000000 420.980103,471.000000 337.000000,471.000000 
M269.073151,70.908813 
	C269.073151,70.908813 269.208252,70.755081 269.165131,71.475494 
	C270.098694,71.988297 271.032257,72.501099 272.634674,73.169441 
	C274.412903,74.233406 276.191132,75.297371 278.033234,76.894058 
	C278.676636,76.972458 279.320068,77.050858 280.745544,77.119720 
	C281.482574,77.367073 282.219604,77.614426 283.125061,78.300064 
	C283.735413,78.255539 284.345734,78.211014 285.748535,78.036209 
	C288.899170,78.186005 292.049774,78.335793 295.807678,78.786217 
	C296.554047,78.480339 297.300446,78.174461 298.736603,77.502563 
	C299.499481,77.362312 300.262329,77.222061 301.309143,77.528481 
	C301.882996,77.135597 302.456848,76.742714 303.593231,75.960999 
	C305.209595,75.231224 306.825928,74.501457 309.175446,73.886810 
	C309.787781,73.268806 310.400116,72.650803 311.263123,71.440987 
	C312.503052,70.291771 313.742981,69.142563 315.728821,67.930000 
	C316.086670,67.123558 316.444519,66.317116 316.753387,65.174660 
	C316.753387,65.174660 317.047485,65.004898 317.783417,64.886101 
	C318.413055,63.357533 319.042694,61.828960 319.632568,59.601864 
	C320.223053,58.079212 320.813538,56.556561 321.994293,54.916470 
	C322.019379,53.950344 322.044464,52.984222 321.934235,51.107311 
	C321.961731,47.736526 321.989227,44.365742 322.468842,40.697166 
	C322.081085,40.122398 321.693329,39.547630 320.906433,38.344044 
	C317.544769,33.371330 314.183075,28.398619 310.835266,22.630104 
	C308.977112,21.877247 307.118958,21.124388 304.546844,20.376303 
	C285.569733,12.633447 267.776215,19.769123 260.130005,38.028576 
	C260.058929,38.678452 259.987885,39.328327 260.011536,40.656509 
	C259.898346,41.095242 259.785156,41.533970 258.935242,42.217072 
	C257.827240,46.564274 256.513245,50.923126 259.989227,55.704216 
	C262.296692,59.894318 264.604156,64.084419 266.922791,68.974106 
	C267.696930,69.582069 268.471069,70.190041 269.073151,70.908813 
M135.448578,177.529755 
	C135.448578,177.529755 135.407867,177.390884 135.782776,176.732437 
	C135.399933,175.452316 135.017075,174.172180 134.384171,172.056732 
	C134.332016,170.021469 134.279877,167.986221 134.786972,165.344223 
	C134.863678,160.565994 134.856400,155.784485 135.042191,151.010498 
	C135.207458,146.764221 133.524368,145.120895 128.564560,146.569107 
	C125.734154,145.929596 122.903740,145.290100 120.054764,144.109375 
	C119.384132,143.993835 118.713493,143.878296 117.324463,143.775864 
	C114.866287,142.661224 112.408119,141.546570 109.621117,140.282822 
	C100.626999,152.924423 91.387207,165.700851 82.408646,178.658295 
	C79.686417,182.586899 76.695496,186.760284 75.534058,191.261810 
	C71.387581,207.332977 67.755814,223.547668 64.362389,239.798508 
	C62.164677,250.323166 60.720989,261.005280 58.903114,271.833130 
	C50.319065,271.833130 42.227818,271.833130 33.838028,271.833130 
	C37.251579,259.995422 40.929832,248.483521 43.853920,236.783173 
	C47.469910,222.314255 49.171974,207.789047 44.663578,192.962097 
	C42.760948,186.704834 42.281284,179.881363 42.062878,173.285172 
	C41.866402,167.351227 42.991108,161.381363 43.386265,155.417633 
	C43.740063,150.077927 41.219532,146.420990 36.599243,145.195572 
	C26.813826,142.600250 15.749902,148.169174 13.022850,157.918060 
	C9.696153,169.810638 9.206575,181.570419 14.797232,193.423843 
	C21.431427,207.489838 26.586391,221.702942 25.168159,238.292053 
	C23.399715,258.977539 24.525648,279.910431 24.399321,300.736481 
	C24.361603,306.954193 25.285372,307.933502 31.546906,307.937378 
	C54.874542,307.951813 78.202232,307.914673 101.529816,307.952209 
	C105.002762,307.957794 108.475227,308.259918 112.002213,308.961792 
	C112.663353,308.994843 113.324501,309.027893 114.783859,308.962982 
	C115.838264,309.129333 116.892677,309.295654 118.015556,309.996124 
	C118.672684,310.014160 119.329803,310.032227 120.796654,309.976685 
	C121.842194,310.225372 122.887726,310.474060 124.084923,311.200806 
	C124.721596,311.140656 125.358269,311.080505 126.795525,310.921082 
	C130.873947,311.713837 134.949646,312.521088 139.031433,313.296143 
	C146.114883,314.641174 146.306656,314.633514 146.281784,321.856628 
	C146.203979,344.456757 141.990479,366.542389 137.799225,388.632782 
	C137.185516,391.867279 136.848679,395.288879 137.183762,398.541534 
	C137.944611,405.926941 145.545319,412.893768 153.068787,413.642761 
	C159.653183,414.298309 165.650269,410.261932 167.860748,402.130005 
	C170.809143,391.283447 172.637299,380.137909 175.228989,369.187622 
	C179.640411,350.548553 180.405060,331.614746 180.853943,312.567047 
	C181.135178,300.633545 175.990326,292.705933 165.627014,288.078461 
	C156.708237,284.096039 147.299744,281.213379 138.364120,277.264404 
	C134.112610,275.385529 128.953796,273.047974 126.786301,269.389465 
	C116.011993,251.203629 117.714920,232.877258 128.578430,215.299072 
	C131.251160,219.596313 134.248810,223.439804 136.126831,227.769012 
	C137.440414,230.797089 139.176910,231.416153 141.803848,230.970306 
	C149.004105,229.748291 156.209900,228.528214 163.360046,227.048950 
	C173.772934,224.894669 184.189896,222.718903 194.506470,220.155319 
	C200.895981,218.567535 202.986710,212.194672 199.126297,207.323105 
	C196.546539,204.067627 192.992630,204.213364 189.529099,205.079208 
	C180.986176,207.214828 172.380844,209.212891 164.026917,211.955536 
	C157.760590,214.012802 152.884140,211.977448 148.606842,208.084488 
	C146.092255,205.795853 144.500183,202.493668 142.792679,198.980637 
	C142.287750,198.299500 141.782837,197.618347 140.871887,196.147308 
	C140.503708,195.032288 140.135529,193.917252 141.187347,192.699371 
	C141.659058,192.647491 142.130783,192.595612 143.098373,193.009109 
	C146.812637,197.531296 149.904663,202.848053 154.402206,206.369980 
	C159.752319,210.559586 165.639191,206.553543 171.154007,204.846863 
	C180.502502,201.953781 189.913849,199.235916 199.149811,196.017014 
	C205.186493,193.913132 207.952621,187.960815 205.928207,182.952637 
	C204.271851,178.854996 200.483963,177.939331 193.870697,179.972961 
	C183.122574,183.278107 172.365250,186.553207 161.751785,189.798187 
	C160.348679,186.762634 159.033646,183.917603 157.733795,180.379013 
	C156.923965,178.766342 156.114120,177.153671 155.252472,174.902817 
	C154.778503,173.951248 154.304520,172.999695 153.828995,171.406525 
	C153.251404,170.551071 152.673798,169.695602 151.949387,168.265503 
	C151.610428,167.552612 151.271454,166.839722 150.951752,165.411743 
	C148.471939,163.350266 146.043350,161.217987 143.436096,159.332764 
	C143.164062,159.136047 141.834091,160.402435 140.912811,161.643356 
	C140.834778,162.073074 140.756744,162.502792 140.046448,163.072586 
	C139.962860,164.366730 139.879272,165.660858 139.736023,167.617386 
	C139.631851,168.044327 139.527679,168.471283 138.872620,169.055435 
	C138.827850,170.019073 138.783066,170.982727 138.820404,172.669464 
	C138.583588,174.106384 138.346756,175.543320 137.223602,177.152100 
	C136.648239,177.323380 136.072876,177.494659 135.448578,177.529755 
M473.827728,143.771057 
	C473.827728,143.771057 473.730988,143.623001 473.000946,143.733078 
	C471.016388,144.530472 469.031830,145.327881 466.265167,146.037964 
	C465.516357,146.250778 464.767517,146.463608 463.421661,146.440430 
	C462.641357,146.698547 461.861023,146.956650 460.253052,146.980698 
	C459.096649,146.997742 457.918213,147.167267 456.787872,147.003860 
	C453.074219,146.466965 451.811249,147.979538 451.984314,151.687210 
	C452.237762,157.116104 452.032349,162.566422 451.717133,168.619156 
	C451.757355,169.751785 451.797607,170.884399 451.485077,172.778458 
	C451.420502,173.882797 451.355927,174.987122 450.791565,176.615036 
	C450.266205,178.259552 449.863464,179.961945 449.132935,181.509628 
	C448.939880,181.918579 447.736115,181.850464 447.014282,181.222809 
	C447.098206,179.488098 447.182159,177.753387 447.529541,175.366013 
	C447.152832,174.300873 446.776093,173.235718 446.584167,171.474991 
	C446.316162,170.318542 446.048126,169.162094 445.908508,167.433685 
	C445.610626,166.953873 445.312714,166.474075 445.138214,165.239151 
	C444.980072,164.496414 444.821930,163.753677 444.811401,162.315659 
	C442.281281,157.504593 440.873932,162.245392 438.394928,163.091797 
	C437.550110,163.934311 436.705261,164.776825 435.294128,165.907608 
	C434.862732,166.605057 434.431335,167.302490 433.406647,168.234314 
	C432.827728,169.562378 432.248810,170.890457 431.058563,172.621780 
	C430.030579,175.080978 429.002563,177.540176 427.577606,180.448990 
	C427.280029,181.374786 426.982483,182.300568 426.136841,183.697449 
	C425.455383,185.465683 424.773926,187.233917 423.609314,189.484497 
	C422.733643,189.674088 421.858002,189.863693 420.499237,189.616913 
	C419.665131,189.455994 418.831024,189.295074 417.432709,188.789612 
	C416.564941,188.721802 415.697144,188.653992 414.438629,188.068848 
	C413.619934,187.944077 412.801270,187.819305 411.377869,187.285751 
	C410.899750,187.247559 410.421661,187.209366 409.642365,186.668610 
	C409.091553,186.558441 408.540741,186.448273 407.337982,185.999405 
	C405.487976,185.549103 403.637939,185.098816 401.416626,184.121765 
	C400.605286,183.982330 399.793945,183.842896 398.406433,183.242889 
	C397.925995,183.195251 397.445557,183.147614 396.706085,182.564270 
	C396.133850,182.493973 395.561615,182.423676 394.378235,182.032852 
	C393.924408,182.005951 393.470612,181.979050 392.681091,181.457596 
	C392.119629,181.351883 391.558197,181.246155 390.369598,180.803406 
	C389.227478,180.593521 388.085327,180.383636 386.437195,179.716309 
	C384.763062,180.081955 383.088928,180.447601 381.121918,180.796997 
	C381.121918,180.796997 381.001953,181.064697 380.351135,181.281403 
	C379.903015,182.520691 379.454895,183.759995 378.770264,185.475861 
	C378.827148,185.643829 378.884033,185.811798 378.644165,186.424850 
	C378.754364,187.286484 378.864563,188.148117 378.816772,189.521790 
	C378.898315,189.680679 378.979889,189.839584 378.933411,190.609619 
	C379.257629,191.085800 379.581848,191.561981 379.989471,192.708145 
	C381.720551,193.930069 383.451630,195.152008 385.661499,196.916443 
	C387.442108,197.563538 389.222717,198.210617 391.478363,199.220627 
	C392.061249,199.257614 392.644165,199.294601 393.610565,199.847382 
	C394.412811,199.994278 395.215057,200.141190 396.621307,200.707825 
	C397.102386,200.739807 397.583496,200.771790 398.373688,201.290970 
	C398.919891,201.394623 399.466095,201.498276 400.705780,201.973846 
	C404.152283,202.938049 407.598785,203.902252 411.331177,205.382538 
	C411.890839,205.474213 412.450500,205.565887 413.707764,205.995926 
	C415.438080,206.493866 417.168365,206.991791 418.960999,208.028763 
	C419.636932,208.038498 420.312897,208.048218 421.797302,207.981720 
	C422.877258,208.046799 423.957245,208.111893 425.287903,208.638794 
	C425.893066,208.250198 426.498199,207.861588 427.772400,207.203064 
	C428.845001,206.693329 429.917603,206.183578 431.648682,205.762909 
	C432.938263,204.836014 434.227875,203.909134 435.812500,202.496048 
	C435.869873,202.315369 435.927246,202.134674 436.663605,201.898422 
	C437.064240,201.264450 437.464874,200.630478 438.349915,199.739212 
	C438.568848,199.449677 438.787781,199.160126 439.525879,198.892212 
	C439.586487,198.603317 439.647095,198.314423 439.890900,197.493881 
	C440.178772,197.274948 440.466644,197.056015 441.374146,197.257339 
	C441.592896,198.198944 441.811646,199.140564 441.474884,200.480957 
	C434.530426,212.525620 426.944733,216.305359 416.064301,211.607681 
	C408.954651,208.538071 401.153656,207.021240 393.601501,205.040939 
	C387.994904,203.570770 384.049316,205.751160 382.607727,210.681091 
	C381.187500,215.538116 383.140869,218.854218 388.802185,220.731934 
	C392.421936,221.932556 396.100769,223.014877 399.822052,223.838837 
	C413.249115,226.811920 426.393524,231.596848 440.550842,229.922241 
	C445.414459,229.346924 449.442017,227.802292 452.584778,223.824966 
	C454.680420,221.172836 457.354370,218.977676 459.839844,216.508148 
	C467.455750,229.008133 470.450623,242.192810 468.624817,256.342468 
	C467.289673,266.689697 462.829163,273.983337 451.530853,276.852631 
	C440.830811,279.570007 430.382843,283.714508 420.290833,288.266357 
	C410.683075,292.599762 405.268158,300.695221 404.751617,311.507629 
	C404.594879,314.788269 404.875580,318.100647 405.110718,321.387421 
	C406.451416,340.129150 407.344086,358.922485 409.417023,377.584137 
	C410.470886,387.071320 413.285370,396.437500 416.053345,405.632812 
	C417.819122,411.498688 425.549774,414.809143 431.649750,413.407715 
	C440.698212,411.328888 445.476837,406.596069 445.067078,399.325073 
	C444.702972,392.863708 443.642578,386.443481 442.953430,379.998260 
	C440.991882,361.653137 438.611633,343.336792 437.298553,324.944672 
	C436.567322,314.702179 437.589355,314.417511 447.916443,313.005341 
	C448.900208,312.870819 449.861420,312.578217 450.838348,312.385773 
	C458.814148,310.814636 466.768829,308.053040 474.772064,307.903015 
	C500.925262,307.412750 527.096313,307.878571 553.260498,307.968353 
	C560.950623,307.994751 561.864380,307.144745 561.879639,299.363922 
	C561.916992,280.364746 562.520630,261.336670 561.670166,242.375198 
	C560.984497,227.087662 563.768738,213.030701 570.946045,199.638077 
	C577.231873,187.909119 579.882751,175.422516 578.477783,162.067612 
	C577.266174,150.551056 568.849976,143.238815 558.400696,144.906738 
	C553.728271,145.652542 551.771057,148.042847 551.449463,152.927902 
	C550.828735,162.359192 549.893494,171.810699 548.328613,181.126160 
	C547.042725,188.780609 543.773865,196.153885 542.936768,203.821335 
	C540.997437,221.583801 543.726013,238.963806 549.407776,255.895172 
	C551.118896,260.994354 552.560913,266.183807 554.367615,272.126129 
	C546.286926,272.126129 539.461121,271.886383 532.663269,272.218384 
	C528.750488,272.409454 526.758301,271.280334 525.456482,267.419617 
	C518.131165,245.695648 511.075500,223.856491 502.875641,202.459854 
	C497.069855,187.310349 489.598053,172.799316 482.840454,157.314957 
	C481.989441,155.959915 481.138428,154.604858 480.341370,152.641327 
	C479.850128,151.761978 479.358917,150.882614 478.870148,149.310562 
	C477.677582,147.429382 476.485016,145.548203 475.061432,143.859283 
	C475.061432,143.859283 475.320709,143.707291 475.113861,143.020554 
	C474.634033,143.241348 474.154205,143.462143 473.827728,143.771057 
M309.231171,108.046471 
	C309.141846,108.694214 309.052521,109.341957 308.978119,110.764717 
	C307.431030,115.859703 305.883942,120.954689 304.138519,126.702888 
	C309.147125,126.702888 313.251251,126.875671 317.329681,126.627258 
	C319.259979,126.509682 321.141205,125.586349 323.447998,124.779900 
	C323.041504,124.179100 322.635010,123.578293 321.770203,122.432648 
	C318.778748,116.454575 315.787292,110.476501 312.878967,103.726845 
	C312.370087,103.223740 311.861206,102.720634 311.352386,102.217522 
	C310.965515,102.970291 310.578644,103.723068 310.283752,105.185875 
	C310.117981,106.117142 309.952179,107.048409 309.231171,108.046471 
M278.876801,95.233276 
	C278.734253,97.756714 278.591736,100.280151 278.389038,103.220474 
	C278.127808,103.541206 277.866547,103.861946 276.825745,104.257286 
	C275.964478,106.033607 275.103241,107.809937 274.148590,110.234100 
	C270.423615,115.306984 266.698639,120.379868 262.594147,125.969589 
	C265.100555,126.370148 266.527161,126.598137 268.373047,127.430412 
	C274.088776,127.617905 279.804688,127.943420 285.520111,127.934433 
	C288.362671,127.929962 291.204315,127.312004 294.743835,126.662033 
	C295.552979,125.779953 296.362091,124.897881 297.911438,123.811470 
	C298.053162,122.927002 298.194855,122.042526 298.264435,120.451057 
	C299.220428,117.638168 300.176422,114.825279 301.709320,111.936386 
	C301.773712,111.280952 301.838074,110.625519 301.894226,109.197395 
	C302.993011,105.470749 304.091797,101.744102 305.746643,97.961349 
	C305.860657,97.315331 305.974670,96.669319 306.030396,95.339165 
	C306.163666,94.904419 306.296906,94.469673 307.112640,93.791977 
	C307.232330,92.920654 307.352020,92.049332 307.369537,90.494247 
	C307.724213,88.921562 308.078888,87.348877 308.522644,85.381050 
	C305.825256,85.592949 303.408386,85.782806 300.665131,85.468399 
	C299.763641,85.820503 298.862122,86.172607 297.158997,86.738251 
	C295.785645,86.657730 294.412292,86.577202 292.845947,85.883896 
	C291.558777,85.939964 290.271606,85.996033 288.058716,86.157349 
	C285.264313,86.074295 282.469879,85.991234 279.154907,86.002800 
	C279.276703,86.681419 279.398529,87.360039 279.760101,88.947365 
	C279.713745,90.953827 279.667358,92.960281 278.876801,95.233276 
M315.956390,89.169907 
	C315.736176,89.999092 315.515991,90.828285 315.349304,92.324120 
	C312.162964,95.612556 316.920471,97.359329 316.420380,100.396362 
	C316.934174,100.932259 317.447937,101.468163 318.435883,102.509132 
	C321.383545,108.151070 324.331207,113.793007 327.117584,120.172630 
	C328.013031,121.457954 328.908447,122.743279 330.160339,124.458763 
	C330.175598,124.824020 330.190857,125.189278 330.100616,126.310806 
	C332.203918,129.239151 334.307190,132.167511 336.723450,135.906067 
	C336.644836,137.335648 336.566223,138.765244 335.795044,140.080276 
	C334.839966,140.496826 333.884888,140.913376 332.325165,141.845078 
	C332.046692,143.558212 331.269653,145.369095 331.582855,146.966217 
	C332.539001,151.842621 333.733765,156.691315 335.168640,161.450424 
	C337.468018,169.076660 337.976593,169.526581 345.848663,169.646118 
	C361.641907,169.885925 377.438385,169.915100 393.233643,170.013611 
	C394.468384,170.021286 395.703949,169.891617 396.939148,169.825775 
	C397.046539,169.385574 397.153961,168.945374 397.261353,168.505188 
	C386.211304,159.332520 373.213684,154.754745 358.814545,153.793472 
	C358.814545,148.620422 358.988861,143.979156 358.778015,139.355453 
	C358.347931,129.923401 358.446259,120.384903 356.984253,111.101707 
	C354.843964,97.511711 346.628784,87.340149 335.877716,78.264633 
	C335.022888,77.949211 334.168091,77.633789 332.604736,77.298180 
	C326.269745,75.427155 321.529877,77.632019 319.024017,83.584503 
	C318.261963,85.394791 317.427002,87.174400 315.956390,89.169907 
M252.115784,129.868530 
	C252.413315,128.935852 252.710846,128.003174 253.402695,126.526390 
	C255.567490,124.003525 257.732300,121.480667 260.575317,118.924850 
	C261.059570,118.033325 261.543854,117.141800 262.321167,115.619064 
	C265.073303,112.019875 267.825409,108.420685 271.324310,104.879601 
	C276.865051,102.207672 277.194366,96.644714 271.739685,91.437660 
	C271.327026,90.233681 270.914368,89.029694 270.771820,87.012047 
	C269.765961,85.376167 268.760132,83.740280 267.310211,81.875183 
	C267.135437,81.425407 266.960663,80.975624 266.882111,79.783257 
	C266.234680,79.196899 265.587280,78.610535 264.273224,77.772118 
	C261.504364,75.347977 258.766602,73.684227 254.950012,76.095810 
	C243.129684,83.564720 233.562485,93.263412 231.053650,107.214539 
	C228.867188,119.373077 229.054123,131.963654 228.291107,144.369415 
	C228.091980,147.606995 228.261139,150.867249 228.261139,154.075958 
	C217.119751,154.407104 207.353210,157.310394 197.572693,162.202118 
	C196.982376,162.734329 196.392075,163.266556 195.221252,164.126770 
	C193.346786,165.300964 191.472321,166.475159 188.961502,167.679443 
	C188.140869,168.055008 187.320221,168.430573 186.499588,168.806137 
	C186.824310,169.232056 187.149017,169.657990 187.473740,170.083923 
	C188.291046,169.976334 189.108368,169.868744 190.846069,169.607651 
	C210.545563,169.607651 230.245071,169.607651 250.391983,169.607651 
	C250.391983,166.718140 250.317535,164.062363 250.405106,161.411942 
	C250.750656,150.953384 251.147079,140.496506 252.115784,129.868530 
M327.516296,164.679321 
	C327.088165,164.112717 326.660034,163.546127 325.964355,162.349792 
	C325.974945,161.900284 325.985504,161.450775 326.485565,160.651672 
	C326.139160,159.755478 325.792755,158.859299 325.044891,157.256210 
	C324.773071,155.147812 324.501251,153.039398 324.730072,150.377884 
	C324.386536,147.902145 324.043030,145.426422 323.402924,142.086700 
	C323.292175,139.822113 323.181458,137.557510 323.052795,134.926025 
	C316.004181,134.926025 309.414124,134.944382 302.824219,134.921097 
	C295.527039,134.895309 288.230011,134.831436 280.319397,134.240707 
	C274.673370,134.151794 269.025146,133.952850 263.383148,134.065567 
	C262.235931,134.088486 261.112183,135.285248 259.944916,136.869400 
	C259.844788,140.569885 259.744659,144.270386 258.935364,148.203934 
	C258.917419,151.124847 258.899506,154.045776 259.031677,157.802216 
	C258.791077,159.186005 258.550446,160.569778 257.754059,162.186081 
	C257.761597,163.436768 257.769135,164.687439 257.963928,166.734009 
	C257.063690,172.054749 256.163483,177.375488 255.249878,182.775269 
	C284.201630,183.721802 312.414490,184.644196 340.396576,185.559036 
	C335.867157,178.567093 331.466309,171.773560 327.516296,164.679321 
M106.061310,312.073181 
	C105.379402,312.018402 104.697487,311.963623 103.084419,312.040405 
	C87.063133,312.056427 71.041847,312.072418 54.771534,311.592651 
	C54.159821,311.965759 53.548111,312.338867 52.229855,312.975616 
	C44.778202,314.005127 41.125443,323.056824 43.908348,332.749451 
	C50.399189,332.749451 56.976192,332.749451 63.786812,332.749451 
	C63.786812,344.361023 63.786812,355.477020 63.786812,366.845703 
	C61.202488,367.850616 58.641048,369.070770 55.952286,369.853546 
	C43.895550,373.363556 33.094540,378.765411 25.098825,388.916992 
	C24.080355,390.210083 21.770258,391.003174 20.006001,391.103455 
	C11.635454,391.579163 7.446464,395.230621 6.434426,403.419250 
	C5.415877,411.660522 11.144423,419.001678 19.403782,420.039581 
	C26.765362,420.964661 33.186005,415.175842 33.524632,406.634491 
	C33.657234,403.289764 32.361767,399.888397 31.466206,395.202057 
	C35.913952,395.202057 40.151672,395.015259 44.368382,395.233887 
	C64.334045,396.268860 82.635193,403.158813 100.406860,411.660065 
	C102.021912,412.432617 103.181099,414.804993 103.904716,416.683746 
	C107.278786,425.443909 114.930405,428.666962 123.737350,424.817719 
	C130.795624,421.732758 132.264282,415.307648 127.845253,406.710876 
	C127.240623,405.534668 126.496964,404.429901 125.894249,402.530884 
	C125.622734,401.358185 125.351227,400.185455 124.993050,398.077301 
	C124.993050,387.515839 124.993050,376.954376 124.993050,365.873169 
	C109.905190,365.873169 95.470551,365.873169 80.967888,364.953735 
	C80.957916,354.251099 80.947945,343.548462 81.845169,332.557373 
	C88.221878,332.666321 94.598587,332.775269 101.541924,333.438843 
	C103.441788,333.577271 105.474617,334.187531 107.198608,333.701752 
	C108.528770,333.326935 109.471375,331.576691 110.464081,329.593597 
	C110.485817,326.272797 111.080528,322.818787 110.349007,319.673157 
	C109.757790,317.130798 107.568428,314.960083 106.061310,312.073181 
M227.499969,257.797821 
	C235.997726,257.761932 244.499969,257.875977 252.991196,257.621674 
	C256.767273,257.508636 258.718506,258.448639 258.108643,262.588409 
	C257.892395,264.056396 258.073395,265.582703 258.070862,267.082397 
	C258.019531,297.413788 257.926636,327.745239 257.939423,358.076599 
	C257.943695,368.237274 264.134705,374.662567 273.416016,374.489410 
	C282.053925,374.328247 286.866974,368.424927 286.841156,358.232117 
	C286.782959,335.233429 286.776459,312.234619 286.772461,289.235840 
	C286.770905,280.236816 286.717377,271.234467 286.974762,262.241882 
	C287.019348,260.683746 288.315430,258.008545 289.352936,257.842194 
	C292.828674,257.284973 296.449188,257.630707 299.958527,257.630707 
	C299.958527,286.095001 299.961365,313.583374 299.956482,341.071777 
	C299.955322,347.571411 299.702301,354.080383 299.969788,360.568359 
	C300.309967,368.817383 304.313477,373.266754 312.061584,374.722687 
	C317.993958,375.837372 325.065704,371.976410 327.614838,365.568329 
	C328.932159,362.256744 329.738556,358.506866 329.755615,354.950104 
	C329.901978,324.452484 329.814880,293.953705 329.797760,263.455292 
	C329.796783,261.717773 329.797638,259.980255 329.797638,258.068542 
	C346.763428,258.068542 362.873444,258.068542 379.468475,258.068542 
	C379.573181,260.135468 379.751099,261.921936 379.740387,263.707275 
	C379.649445,278.871185 379.426208,294.034882 379.430450,309.198608 
	C379.438263,336.861908 379.456757,364.526489 379.746735,392.187592 
	C379.812866,398.497498 378.722595,403.534027 372.516388,406.563782 
	C371.190979,407.210815 369.955261,409.272461 369.768280,410.814575 
	C368.787109,418.907074 368.124359,427.039276 367.414459,435.163208 
	C366.903595,441.009277 368.736298,443.737427 374.089722,445.932709 
	C382.294037,449.297211 390.327942,448.518738 398.332672,445.289246 
	C405.759613,442.292847 406.936768,440.549255 406.822205,432.587402 
	C406.738312,426.755157 406.602417,420.923035 406.585327,415.090607 
	C406.559937,406.430328 406.595459,406.435242 398.292572,405.658508 
	C398.016235,405.632660 397.770294,405.281799 397.703796,405.230835 
	C397.703796,356.025482 397.703796,306.972778 397.703796,257.093689 
	C413.577728,259.571320 428.280182,255.915527 443.109009,251.883301 
	C436.864868,247.435760 430.681274,242.998306 422.615601,242.997345 
	C337.620697,242.987198 252.625122,242.861450 167.631866,243.242935 
	C158.938797,243.281967 150.259583,246.412354 141.866180,248.051178 
	C155.850479,259.129333 172.070038,258.667877 188.247391,257.955994 
	C188.371887,259.917816 188.490295,260.897919 188.488098,261.877747 
	C188.419678,292.374725 188.351074,322.871735 188.256271,353.368652 
	C188.207581,369.033325 188.032043,384.698181 188.088974,400.362305 
	C188.102524,404.089417 187.532669,406.386749 182.994766,406.195984 
	C181.801849,406.145844 179.531143,408.272491 179.427505,409.536560 
	C178.692947,418.496796 178.264633,427.489899 178.071152,436.479706 
	C178.035294,438.144623 179.092728,440.288544 180.348907,441.451904 
	C188.439056,448.944214 201.988190,450.453400 212.576508,445.479492 
	C216.172989,443.790039 217.952682,441.347015 217.698029,437.283234 
	C217.147049,428.490173 216.857300,419.679535 216.196472,410.895935 
	C216.093887,409.532227 214.898254,407.684357 213.692276,407.065338 
	C207.575485,403.925720 206.206848,399.320465 206.286926,392.472870 
	C206.772125,350.980774 206.618958,309.481232 206.677933,267.984161 
	C206.682571,264.711365 206.678543,261.438568 206.678543,257.778381 
	C213.600037,257.778381 220.050171,257.778381 227.499969,257.797821 
M559.147400,388.624268 
	C557.534729,386.948242 556.015442,385.168915 554.293640,383.613708 
	C545.819214,375.959229 535.426575,372.084290 524.791016,368.642700 
	C523.252991,368.145020 520.795959,366.773529 520.795898,365.806335 
	C520.795227,355.056793 521.195007,344.307220 521.509033,332.733887 
	C528.341553,332.733887 534.196228,332.733887 539.939453,332.733887 
	C540.955505,316.589874 536.768066,312.089783 521.791199,312.143127 
	C509.302338,312.187592 496.812988,312.093811 484.324219,312.148346 
	C482.187012,312.157684 479.635468,311.961578 478.018921,313.008545 
	C475.907440,314.376099 473.501221,316.690704 473.072174,318.949310 
	C472.283783,323.099823 472.847260,327.507111 472.847260,332.669495 
	C483.950256,332.669495 494.650665,332.669495 505.060120,332.669495 
	C505.060120,344.259430 505.060120,354.966919 505.060120,366.163391 
	C489.413513,366.163391 474.329407,366.163391 458.465240,366.163391 
	C458.465240,375.444550 458.430695,384.232056 458.480042,393.019104 
	C458.504120,397.303162 458.367432,401.133881 455.451477,405.058441 
	C450.915619,411.163116 453.336243,418.882355 459.866089,422.479279 
	C466.943420,426.377777 475.000854,424.917542 477.402710,418.414276 
	C479.193787,413.564758 482.470520,411.385651 486.622650,409.521088 
	C489.953613,408.025269 493.163544,406.247101 496.536224,404.859131 
	C514.401184,397.507111 532.848206,393.596771 552.598267,395.474457 
	C551.632507,398.264832 550.591614,400.677399 549.968567,403.193451 
	C548.570312,408.840302 551.451782,416.187561 555.807678,418.579803 
	C560.799927,421.321503 567.236816,420.752777 571.786682,417.167999 
	C576.145874,413.733429 577.920105,406.945251 576.361694,400.822205 
	C574.815979,394.748749 570.454102,392.434265 564.855835,391.308167 
	C563.052734,390.945435 561.386047,389.904816 559.147400,388.624268 
M105.522591,118.610909 
	C110.719757,139.106644 135.209396,147.972458 155.059265,133.944046 
	C167.944794,124.837524 170.770676,105.531471 161.565689,93.625244 
	C150.003937,78.670631 122.681206,78.815559 111.102783,93.768433 
	C105.522713,100.974770 104.262238,109.044449 105.522591,118.610909 
M463.491882,83.768791 
	C455.453888,81.683647 447.573578,82.573807 440.080475,85.765694 
	C428.893280,90.531151 421.620331,105.576996 424.666138,116.863022 
	C430.343658,137.900864 454.198120,147.073975 472.429199,135.024902 
	C482.788635,128.178299 486.762054,118.137993 484.657593,106.058113 
	C482.650818,94.538795 475.717499,87.083305 463.491882,83.768791 
M328.789886,218.340378 
	C331.195282,214.428040 333.600677,210.515701 336.496429,205.805817 
	C320.509064,205.805817 306.193970,206.416489 291.964905,205.574173 
	C283.583252,205.078003 278.120911,207.940491 273.782379,214.539886 
	C272.332001,216.746063 270.371033,218.609665 268.757568,220.717209 
	C266.689209,223.418930 264.736053,226.208832 262.019470,229.941559 
	C266.599304,230.216812 269.853027,230.582245 273.106140,230.577225 
	C284.575043,230.559525 296.136902,229.472809 307.485168,230.594971 
	C317.905731,231.625366 324.459106,228.285675 328.789886,218.340378 
M375.159393,215.707306 
	C379.897552,211.791458 380.342804,206.697266 378.896606,201.247742 
	C376.719482,193.043961 369.153198,188.450928 360.446991,189.857697 
	C353.408325,190.995026 348.902863,197.144730 349.252167,205.137924 
	C349.815643,218.030670 362.144592,223.414841 375.159393,215.707306 
M210.826065,217.898773 
	C219.837341,222.021591 228.361649,220.168350 232.317169,213.226456 
	C236.111740,206.567017 233.837784,197.022110 227.476562,192.908035 
	C220.766968,188.568695 212.166718,190.056870 207.462433,196.371277 
	C202.188187,203.450760 203.207321,211.566803 210.826065,217.898773 
M310.482269,84.581055 
	C310.482269,84.581055 310.423859,84.480560 310.482269,84.581055 
z"/>
<path fill="#040404" opacity="1.000000" stroke="none" 
	d="
M123.933258,310.722778 
	C122.887726,310.474060 121.842194,310.225372 120.234192,309.760864 
	C119.096855,309.517334 118.521973,309.489655 117.947090,309.461975 
	C116.892677,309.295654 115.838264,309.129333 114.184723,308.809875 
	C113.039696,308.579468 112.493805,308.502167 111.947914,308.424866 
	C108.475227,308.259918 105.002762,307.957794 101.529816,307.952209 
	C78.202232,307.914673 54.874542,307.951813 31.546906,307.937378 
	C25.285372,307.933502 24.361603,306.954193 24.399321,300.736481 
	C24.525648,279.910431 23.399715,258.977539 25.168159,238.292053 
	C26.586391,221.702942 21.431427,207.489838 14.797232,193.423843 
	C9.206575,181.570419 9.696153,169.810638 13.022850,157.918060 
	C15.749902,148.169174 26.813826,142.600250 36.599243,145.195572 
	C41.219532,146.420990 43.740063,150.077927 43.386265,155.417633 
	C42.991108,161.381363 41.866402,167.351227 42.062878,173.285172 
	C42.281284,179.881363 42.760948,186.704834 44.663578,192.962097 
	C49.171974,207.789047 47.469910,222.314255 43.853920,236.783173 
	C40.929832,248.483521 37.251579,259.995422 33.838028,271.833130 
	C42.227818,271.833130 50.319065,271.833130 58.903114,271.833130 
	C60.720989,261.005280 62.164677,250.323166 64.362389,239.798508 
	C67.755814,223.547668 71.387581,207.332977 75.534058,191.261810 
	C76.695496,186.760284 79.686417,182.586899 82.408646,178.658295 
	C91.387207,165.700851 100.626999,152.924423 109.621117,140.282822 
	C112.408119,141.546570 114.866287,142.661224 117.867203,144.004456 
	C118.964409,144.372223 119.518875,144.511414 120.073334,144.650604 
	C122.903740,145.290100 125.734154,145.929596 129.260529,146.805908 
	C132.879517,147.236191 133.680298,148.809738 133.640762,151.658539 
	C133.574707,156.419052 134.005859,161.186462 134.227722,165.950958 
	C134.279877,167.986221 134.332016,170.021469 134.358521,172.796692 
	C134.691208,174.821381 135.049530,176.106140 135.407867,177.390884 
	C135.407867,177.390884 135.448578,177.529755 135.370987,177.821289 
	C135.295807,178.477737 135.457779,178.746323 135.747391,179.335571 
	C136.005264,180.802505 136.295074,181.852432 136.539413,183.271179 
	C137.585083,186.694061 138.676224,189.748154 139.767365,192.802231 
	C140.135529,193.917252 140.503708,195.032288 141.036865,196.852081 
	C141.632294,198.253693 142.062729,198.950531 142.493164,199.647369 
	C144.500183,202.493668 146.092255,205.795853 148.606842,208.084488 
	C152.884140,211.977448 157.760590,214.012802 164.026917,211.955536 
	C172.380844,209.212891 180.986176,207.214828 189.529099,205.079208 
	C192.992630,204.213364 196.546539,204.067627 199.126297,207.323105 
	C202.986710,212.194672 200.895981,218.567535 194.506470,220.155319 
	C184.189896,222.718903 173.772934,224.894669 163.360046,227.048950 
	C156.209900,228.528214 149.004105,229.748291 141.803848,230.970306 
	C139.176910,231.416153 137.440414,230.797089 136.126831,227.769012 
	C134.248810,223.439804 131.251160,219.596313 128.578430,215.299072 
	C117.714920,232.877258 116.011993,251.203629 126.786301,269.389465 
	C128.953796,273.047974 134.112610,275.385529 138.364120,277.264404 
	C147.299744,281.213379 156.708237,284.096039 165.627014,288.078461 
	C175.990326,292.705933 181.135178,300.633545 180.853943,312.567047 
	C180.405060,331.614746 179.640411,350.548553 175.228989,369.187622 
	C172.637299,380.137909 170.809143,391.283447 167.860748,402.130005 
	C165.650269,410.261932 159.653183,414.298309 153.068787,413.642761 
	C145.545319,412.893768 137.944611,405.926941 137.183762,398.541534 
	C136.848679,395.288879 137.185516,391.867279 137.799225,388.632782 
	C141.990479,366.542389 146.203979,344.456757 146.281784,321.856628 
	C146.306656,314.633514 146.114883,314.641174 139.031433,313.296143 
	C134.949646,312.521088 130.873947,311.713837 126.194351,310.764099 
	C125.039871,310.645691 124.486565,310.684235 123.933258,310.722778 
z"/>
<path fill="#080809" opacity="1.000000" stroke="none" 
	d="
M227.000153,257.788086 
	C220.050171,257.778381 213.600037,257.778381 206.678543,257.778381 
	C206.678543,261.438568 206.682571,264.711365 206.677933,267.984161 
	C206.618958,309.481232 206.772125,350.980774 206.286926,392.472870 
	C206.206848,399.320465 207.575485,403.925720 213.692276,407.065338 
	C214.898254,407.684357 216.093887,409.532227 216.196472,410.895935 
	C216.857300,419.679535 217.147049,428.490173 217.698029,437.283234 
	C217.952682,441.347015 216.172989,443.790039 212.576508,445.479492 
	C201.988190,450.453400 188.439056,448.944214 180.348907,441.451904 
	C179.092728,440.288544 178.035294,438.144623 178.071152,436.479706 
	C178.264633,427.489899 178.692947,418.496796 179.427505,409.536560 
	C179.531143,408.272491 181.801849,406.145844 182.994766,406.195984 
	C187.532669,406.386749 188.102524,404.089417 188.088974,400.362305 
	C188.032043,384.698181 188.207581,369.033325 188.256271,353.368652 
	C188.351074,322.871735 188.419678,292.374725 188.488098,261.877747 
	C188.490295,260.897919 188.371887,259.917816 188.247391,257.955994 
	C172.070038,258.667877 155.850479,259.129333 141.866180,248.051178 
	C150.259583,246.412354 158.938797,243.281967 167.631866,243.242935 
	C252.625122,242.861450 337.620697,242.987198 422.615601,242.997345 
	C430.681274,242.998306 436.864868,247.435760 443.109009,251.883301 
	C428.280182,255.915527 413.577728,259.571320 397.703796,257.093689 
	C397.703796,306.972778 397.703796,356.025482 397.703796,405.230835 
	C397.770294,405.281799 398.016235,405.632660 398.292572,405.658508 
	C406.595459,406.435242 406.559937,406.430328 406.585327,415.090607 
	C406.602417,420.923035 406.738312,426.755157 406.822205,432.587402 
	C406.936768,440.549255 405.759613,442.292847 398.332672,445.289246 
	C390.327942,448.518738 382.294037,449.297211 374.089722,445.932709 
	C368.736298,443.737427 366.903595,441.009277 367.414459,435.163208 
	C368.124359,427.039276 368.787109,418.907074 369.768280,410.814575 
	C369.955261,409.272461 371.190979,407.210815 372.516388,406.563782 
	C378.722595,403.534027 379.812866,398.497498 379.746735,392.187592 
	C379.456757,364.526489 379.438263,336.861908 379.430450,309.198608 
	C379.426208,294.034882 379.649445,278.871185 379.740387,263.707275 
	C379.751099,261.921936 379.573181,260.135468 379.468475,258.068542 
	C362.873444,258.068542 346.763428,258.068542 329.797638,258.068542 
	C329.797638,259.980255 329.796783,261.717773 329.797760,263.455292 
	C329.814880,293.953705 329.901978,324.452484 329.755615,354.950104 
	C329.738556,358.506866 328.932159,362.256744 327.614838,365.568329 
	C325.065704,371.976410 317.993958,375.837372 312.061584,374.722687 
	C304.313477,373.266754 300.309967,368.817383 299.969788,360.568359 
	C299.702301,354.080383 299.955322,347.571411 299.956482,341.071777 
	C299.961365,313.583374 299.958527,286.095001 299.958527,257.630707 
	C296.449188,257.630707 292.828674,257.284973 289.352936,257.842194 
	C288.315430,258.008545 287.019348,260.683746 286.974762,262.241882 
	C286.717377,271.234467 286.770905,280.236816 286.772461,289.235840 
	C286.776459,312.234619 286.782959,335.233429 286.841156,358.232117 
	C286.866974,368.424927 282.053925,374.328247 273.416016,374.489410 
	C264.134705,374.662567 257.943695,368.237274 257.939423,358.076599 
	C257.926636,327.745239 258.019531,297.413788 258.070862,267.082397 
	C258.073395,265.582703 257.892395,264.056396 258.108643,262.588409 
	C258.718506,258.448639 256.767273,257.508636 252.991196,257.621674 
	C244.499969,257.875977 235.997726,257.761932 227.000153,257.788086 
z"/>
<path fill="#050505" opacity="1.000000" stroke="none" 
	d="
M478.867676,150.003250 
	C479.358917,150.882614 479.850128,151.761978 480.244507,153.335999 
	C481.055084,155.354858 481.962524,156.679062 482.869995,158.003265 
	C489.598053,172.799316 497.069855,187.310349 502.875641,202.459854 
	C511.075500,223.856491 518.131165,245.695648 525.456482,267.419617 
	C526.758301,271.280334 528.750488,272.409454 532.663269,272.218384 
	C539.461121,271.886383 546.286926,272.126129 554.367615,272.126129 
	C552.560913,266.183807 551.118896,260.994354 549.407776,255.895172 
	C543.726013,238.963806 540.997437,221.583801 542.936768,203.821335 
	C543.773865,196.153885 547.042725,188.780609 548.328613,181.126160 
	C549.893494,171.810699 550.828735,162.359192 551.449463,152.927902 
	C551.771057,148.042847 553.728271,145.652542 558.400696,144.906738 
	C568.849976,143.238815 577.266174,150.551056 578.477783,162.067612 
	C579.882751,175.422516 577.231873,187.909119 570.946045,199.638077 
	C563.768738,213.030701 560.984497,227.087662 561.670166,242.375198 
	C562.520630,261.336670 561.916992,280.364746 561.879639,299.363922 
	C561.864380,307.144745 560.950623,307.994751 553.260498,307.968353 
	C527.096313,307.878571 500.925262,307.412750 474.772064,307.903015 
	C466.768829,308.053040 458.814148,310.814636 450.838348,312.385773 
	C449.861420,312.578217 448.900208,312.870819 447.916443,313.005341 
	C437.589355,314.417511 436.567322,314.702179 437.298553,324.944672 
	C438.611633,343.336792 440.991882,361.653137 442.953430,379.998260 
	C443.642578,386.443481 444.702972,392.863708 445.067078,399.325073 
	C445.476837,406.596069 440.698212,411.328888 431.649750,413.407715 
	C425.549774,414.809143 417.819122,411.498688 416.053345,405.632812 
	C413.285370,396.437500 410.470886,387.071320 409.417023,377.584137 
	C407.344086,358.922485 406.451416,340.129150 405.110718,321.387421 
	C404.875580,318.100647 404.594879,314.788269 404.751617,311.507629 
	C405.268158,300.695221 410.683075,292.599762 420.290833,288.266357 
	C430.382843,283.714508 440.830811,279.570007 451.530853,276.852631 
	C462.829163,273.983337 467.289673,266.689697 468.624817,256.342468 
	C470.450623,242.192810 467.455750,229.008133 459.839844,216.508148 
	C457.354370,218.977676 454.680420,221.172836 452.584778,223.824966 
	C449.442017,227.802292 445.414459,229.346924 440.550842,229.922241 
	C426.393524,231.596848 413.249115,226.811920 399.822052,223.838837 
	C396.100769,223.014877 392.421936,221.932556 388.802185,220.731934 
	C383.140869,218.854218 381.187500,215.538116 382.607727,210.681091 
	C384.049316,205.751160 387.994904,203.570770 393.601501,205.040939 
	C401.153656,207.021240 408.954651,208.538071 416.064301,211.607681 
	C426.944733,216.305359 434.530426,212.525620 442.105469,200.265594 
	C444.359894,196.705231 445.983765,193.360199 447.917786,189.875259 
	C449.124847,187.359711 450.268402,185.041916 450.843262,182.590729 
	C451.332642,180.504059 451.167145,178.263779 451.291351,176.091461 
	C451.355927,174.987122 451.420502,173.882797 451.922455,172.253357 
	C452.247375,170.488037 452.134918,169.247818 452.022461,168.007599 
	C452.032349,162.566422 452.237762,157.116104 451.984314,151.687210 
	C451.811249,147.979538 453.074219,146.466965 456.787872,147.003860 
	C457.918213,147.167267 459.096649,146.997742 460.843842,147.308838 
	C462.295990,147.316788 463.157349,146.996597 464.018707,146.676422 
	C464.767517,146.463608 465.516357,146.250778 466.888489,146.329163 
	C469.584839,145.621231 471.657928,144.622116 473.730988,143.623001 
	C473.730988,143.623001 473.827728,143.771057 474.162109,143.773285 
	C474.771271,143.752762 475.045990,143.730026 475.320709,143.707291 
	C475.320709,143.707291 475.061432,143.859283 475.114197,144.132080 
	C476.400513,146.271011 477.634094,148.137131 478.867676,150.003250 
z"/>
<path fill="#080808" opacity="1.000000" stroke="none" 
	d="
M559.402161,388.899292 
	C561.386047,389.904816 563.052734,390.945435 564.855835,391.308167 
	C570.454102,392.434265 574.815979,394.748749 576.361694,400.822205 
	C577.920105,406.945251 576.145874,413.733429 571.786682,417.167999 
	C567.236816,420.752777 560.799927,421.321503 555.807678,418.579803 
	C551.451782,416.187561 548.570312,408.840302 549.968567,403.193451 
	C550.591614,400.677399 551.632507,398.264832 552.598267,395.474457 
	C532.848206,393.596771 514.401184,397.507111 496.536224,404.859131 
	C493.163544,406.247101 489.953613,408.025269 486.622650,409.521088 
	C482.470520,411.385651 479.193787,413.564758 477.402710,418.414276 
	C475.000854,424.917542 466.943420,426.377777 459.866089,422.479279 
	C453.336243,418.882355 450.915619,411.163116 455.451477,405.058441 
	C458.367432,401.133881 458.504120,397.303162 458.480042,393.019104 
	C458.430695,384.232056 458.465240,375.444550 458.465240,366.163391 
	C474.329407,366.163391 489.413513,366.163391 505.060120,366.163391 
	C505.060120,354.966919 505.060120,344.259430 505.060120,332.669495 
	C494.650665,332.669495 483.950256,332.669495 472.847260,332.669495 
	C472.847260,327.507111 472.283783,323.099823 473.072174,318.949310 
	C473.501221,316.690704 475.907440,314.376099 478.018921,313.008545 
	C479.635468,311.961578 482.187012,312.157684 484.324219,312.148346 
	C496.812988,312.093811 509.302338,312.187592 521.791199,312.143127 
	C536.768066,312.089783 540.955505,316.589874 539.939453,332.733887 
	C534.196228,332.733887 528.341553,332.733887 521.509033,332.733887 
	C521.195007,344.307220 520.795227,355.056793 520.795898,365.806335 
	C520.795959,366.773529 523.252991,368.145020 524.791016,368.642700 
	C535.426575,372.084290 545.819214,375.959229 554.293640,383.613708 
	C556.015442,385.168915 557.534729,386.948242 559.402161,388.899292 
M471.635498,400.404755 
	C472.657379,401.123230 473.679230,401.841736 474.794373,402.625793 
	C476.900696,399.753662 478.898285,397.029755 481.244629,393.830292 
	C477.855621,393.830292 475.041443,393.591278 472.297821,393.927734 
	C470.853424,394.104828 468.978241,394.942291 468.266327,396.085083 
	C466.575012,398.800018 469.279755,399.237427 471.635498,400.404755 
z"/>
<path fill="#080808" opacity="1.000000" stroke="none" 
	d="
M55.020561,312.088440 
	C71.041847,312.072418 87.063133,312.056427 103.755180,312.186584 
	C104.979958,312.430054 105.533981,312.527283 106.088005,312.624512 
	C107.568428,314.960083 109.757790,317.130798 110.349007,319.673157 
	C111.080528,322.818787 110.485817,326.272797 110.228455,330.307434 
	C106.986992,331.642273 103.981140,332.263214 100.975296,332.884155 
	C94.598587,332.775269 88.221878,332.666321 80.993217,332.764160 
	C79.774147,343.453033 79.380646,353.934509 79.126595,364.419373 
	C79.115234,364.888275 80.370575,365.387878 81.035912,365.873169 
	C95.470551,365.873169 109.905190,365.873169 124.993050,365.873169 
	C124.993050,376.954376 124.993050,387.515839 124.839813,398.792938 
	C125.063599,400.769745 125.440636,402.030884 125.817673,403.292053 
	C126.496964,404.429901 127.240623,405.534668 127.845253,406.710876 
	C132.264282,415.307648 130.795624,421.732758 123.737350,424.817719 
	C114.930405,428.666962 107.278786,425.443909 103.904716,416.683746 
	C103.181099,414.804993 102.021912,412.432617 100.406860,411.660065 
	C82.635193,403.158813 64.334045,396.268860 44.368382,395.233887 
	C40.151672,395.015259 35.913952,395.202057 31.466206,395.202057 
	C32.361767,399.888397 33.657234,403.289764 33.524632,406.634491 
	C33.186005,415.175842 26.765362,420.964661 19.403782,420.039581 
	C11.144423,419.001678 5.415877,411.660522 6.434426,403.419250 
	C7.446464,395.230621 11.635454,391.579163 20.006001,391.103455 
	C21.770258,391.003174 24.080355,390.210083 25.098825,388.916992 
	C33.094540,378.765411 43.895550,373.363556 55.952286,369.853546 
	C58.641048,369.070770 61.202488,367.850616 63.786812,366.845703 
	C63.786812,355.477020 63.786812,344.361023 63.786812,332.749451 
	C56.976192,332.749451 50.399189,332.749451 43.908348,332.749451 
	C41.125443,323.056824 44.778202,314.005127 52.870968,312.933411 
	C54.014908,312.623627 54.517738,312.356049 55.020561,312.088440 
M113.180420,393.825836 
	C109.294838,393.825836 105.409248,393.825836 101.421448,393.825836 
	C103.734238,396.743835 106.197777,399.852020 108.660004,402.958557 
	C110.384705,401.794739 111.924988,400.511383 113.668472,399.630035 
	C117.216560,397.836487 116.667953,395.975342 113.180420,393.825836 
z"/>
<path fill="#050505" opacity="1.000000" stroke="none" 
	d="
M280.932922,134.784134 
	C288.230011,134.831436 295.527039,134.895309 302.824219,134.921097 
	C309.414124,134.944382 316.004181,134.926025 323.052795,134.926025 
	C323.181458,137.557510 323.292175,139.822113 323.405273,142.922562 
	C323.681580,146.149277 323.955505,148.540146 324.229431,150.931000 
	C324.501251,153.039398 324.773071,155.147812 325.140442,157.914795 
	C325.489349,159.382660 325.742737,160.191971 325.996094,161.001266 
	C325.985504,161.450775 325.974945,161.900284 326.026733,162.965118 
	C326.414520,164.046982 326.739960,164.513504 327.065430,164.980011 
	C331.466309,171.773560 335.867157,178.567093 340.396576,185.559036 
	C312.414490,184.644196 284.201630,183.721802 255.249878,182.775269 
	C256.163483,177.375488 257.063690,172.054749 258.085907,166.064728 
	C258.241882,164.248138 258.275848,163.100861 258.309845,161.953568 
	C258.550446,160.569778 258.791077,159.186005 259.201904,157.070892 
	C259.462921,153.550018 259.553741,150.760437 259.644531,147.970871 
	C259.744659,144.270386 259.844788,140.569885 260.422607,136.304596 
	C263.038757,135.631271 265.176910,135.516495 267.315704,135.415543 
	C271.854584,135.201248 276.393829,134.994171 280.932922,134.784134 
z"/>
<path fill="#050505" opacity="1.000000" stroke="none" 
	d="
M260.670258,37.971996 
	C267.776215,19.769123 285.569733,12.633447 305.141235,20.640205 
	C307.430878,21.744707 309.126129,22.585310 310.821411,23.425909 
	C314.183075,28.398619 317.544769,33.371330 321.053406,38.938042 
	C321.472473,40.019680 321.744598,40.507320 322.016724,40.994957 
	C321.989227,44.365742 321.961731,47.736526 321.827759,51.829933 
	C321.615540,53.379673 321.509766,54.206791 321.404022,55.033913 
	C320.813538,56.556561 320.223053,58.079212 319.395142,60.179710 
	C318.454285,62.173332 317.750885,63.589115 317.047485,65.004898 
	C317.047485,65.004898 316.753387,65.174660 316.489990,65.488518 
	C315.812042,66.532707 315.397491,67.263031 314.982941,67.993347 
	C313.742981,69.142563 312.503052,70.291771 310.815216,71.772690 
	C309.725647,72.660149 309.083954,73.215919 308.442291,73.771683 
	C306.825928,74.501457 305.209595,75.231224 303.018494,76.097244 
	C301.970886,76.516266 301.498047,76.799049 301.025208,77.081825 
	C300.262329,77.222061 299.499481,77.362312 298.099243,77.569550 
	C296.708038,77.919556 295.954224,78.202576 295.200409,78.485588 
	C292.049774,78.335793 288.899170,78.186005 285.156342,77.901413 
	C284.028320,77.798340 283.492462,77.830063 282.956635,77.861786 
	C282.219604,77.614426 281.482574,77.367073 280.212616,76.862991 
	C279.109589,76.524620 278.539459,76.442978 277.969360,76.361336 
	C276.191132,75.297371 274.412903,74.233406 272.193665,72.801758 
	C270.904510,71.874420 270.056396,71.314751 269.208252,70.755081 
	C269.208252,70.755081 269.073151,70.908813 269.093384,70.558548 
	C268.379608,69.563690 267.645630,68.919098 266.911621,68.274513 
	C264.604156,64.084419 262.296692,59.894318 259.868042,54.902462 
	C259.721924,50.058037 259.696930,46.015369 259.671967,41.972698 
	C259.785156,41.533970 259.898346,41.095242 260.168243,40.116142 
	C260.440033,39.041183 260.555145,38.506588 260.670258,37.971996 
z"/>
<path fill="#070707" opacity="1.000000" stroke="none" 
	d="
M270.577545,104.821487 
	C267.825409,108.420685 265.073303,112.019875 261.881195,116.018158 
	C260.926514,117.264099 260.411804,118.110947 259.897095,118.957794 
	C257.732300,121.480667 255.567490,124.003525 252.882675,126.846115 
	C252.083313,128.123550 251.803955,129.081284 251.524597,130.039001 
	C251.147079,140.496506 250.750656,150.953384 250.405106,161.411942 
	C250.317535,164.062363 250.391983,166.718140 250.391983,169.607651 
	C230.245071,169.607651 210.545563,169.607651 190.315338,169.154694 
	C189.722366,168.350937 189.660110,168.000137 189.597855,167.649353 
	C191.472321,166.475159 193.346786,165.300964 195.822662,164.035797 
	C197.011414,163.413925 197.598785,162.883041 198.186142,162.352158 
	C207.353210,157.310394 217.119751,154.407104 228.261139,154.075958 
	C228.261139,150.867249 228.091980,147.606995 228.291107,144.369415 
	C229.054123,131.963654 228.867188,119.373077 231.053650,107.214539 
	C233.562485,93.263412 243.129684,83.564720 254.950012,76.095810 
	C258.766602,73.684227 261.504364,75.347977 264.654724,78.219505 
	C265.619446,79.286545 266.202667,79.906197 266.785889,80.525848 
	C266.960663,80.975624 267.135437,81.425407 267.533508,82.353683 
	C268.671814,84.496696 269.586761,86.161201 270.501740,87.825706 
	C270.914368,89.029694 271.327026,90.233681 271.907532,92.093719 
	C275.646881,97.278778 272.952148,101.030273 270.577545,104.821487 
z"/>
<path fill="#080809" opacity="1.000000" stroke="none" 
	d="
M330.206146,125.554535 
	C330.190857,125.189278 330.175598,124.824020 329.982239,123.904572 
	C328.962372,122.045242 328.120605,120.740105 327.278870,119.434952 
	C324.331207,113.793007 321.383545,108.151070 318.218292,101.950508 
	C317.616272,100.942451 317.231842,100.493011 316.847412,100.043571 
	C316.920471,97.359329 312.162964,95.612556 315.591095,91.811783 
	C316.097046,90.522316 316.361237,89.745186 316.625397,88.968048 
	C317.427002,87.174400 318.261963,85.394791 319.024017,83.584503 
	C321.529877,77.632019 326.269745,75.427155 333.143860,77.582733 
	C334.452667,78.251656 335.222321,78.636024 335.992004,79.020401 
	C346.628784,87.340149 354.843964,97.511711 356.984253,111.101707 
	C358.446259,120.384903 358.347931,129.923401 358.778015,139.355453 
	C358.988861,143.979156 358.814545,148.620422 358.814545,153.793472 
	C373.213684,154.754745 386.211304,159.332520 397.261353,168.505188 
	C397.153961,168.945374 397.046539,169.385574 396.939148,169.825775 
	C395.703949,169.891617 394.468384,170.021286 393.233643,170.013611 
	C377.438385,169.915100 361.641907,169.885925 345.848663,169.646118 
	C337.976593,169.526581 337.468018,169.076660 335.168640,161.450424 
	C333.733765,156.691315 332.539001,151.842621 331.582855,146.966217 
	C331.269653,145.369095 332.046692,143.558212 332.965973,141.737076 
	C334.567047,141.150986 335.527313,140.672897 336.487610,140.194824 
	C336.566223,138.765244 336.644836,137.335648 336.683777,135.175323 
	C336.217896,130.235794 336.282532,125.671577 330.206146,125.554535 
z"/>
<path fill="#050505" opacity="1.000000" stroke="none" 
	d="
M105.454880,118.187363 
	C104.262238,109.044449 105.522713,100.974770 111.102783,93.768433 
	C122.681206,78.815559 150.003937,78.670631 161.565689,93.625244 
	C170.770676,105.531471 167.944794,124.837524 155.059265,133.944046 
	C135.209396,147.972458 110.719757,139.106644 105.454880,118.187363 
z"/>
<path fill="#050505" opacity="1.000000" stroke="none" 
	d="
M463.893768,83.893051 
	C475.717499,87.083305 482.650818,94.538795 484.657593,106.058113 
	C486.762054,118.137993 482.788635,128.178299 472.429199,135.024902 
	C454.198120,147.073975 430.343658,137.900864 424.666138,116.863022 
	C421.620331,105.576996 428.893280,90.531151 440.080475,85.765694 
	C447.573578,82.573807 455.453888,81.683647 463.893768,83.893051 
z"/>
<path fill="#090909" opacity="1.000000" stroke="none" 
	d="
M150.932495,166.126831 
	C151.271454,166.839722 151.610428,167.552612 151.968018,168.903198 
	C152.601273,170.376648 153.215897,171.212387 153.830536,172.048141 
	C154.304520,172.999695 154.778503,173.951248 155.175049,175.588837 
	C155.971283,177.874084 156.844940,179.473328 157.718597,181.072571 
	C159.033646,183.917603 160.348679,186.762634 161.751785,189.798187 
	C172.365250,186.553207 183.122574,183.278107 193.870697,179.972961 
	C200.483963,177.939331 204.271851,178.854996 205.928207,182.952637 
	C207.952621,187.960815 205.186493,193.913132 199.149811,196.017014 
	C189.913849,199.235916 180.502502,201.953781 171.154007,204.846863 
	C165.639191,206.553543 159.752319,210.559586 154.402206,206.369980 
	C149.904663,202.848053 146.812637,197.531296 142.833740,192.408417 
	C141.220001,188.845245 139.870911,185.882751 138.501892,182.526093 
	C138.337646,181.091583 138.193314,180.051254 138.187576,178.838440 
	C138.254089,178.104034 138.182022,177.542130 138.109924,176.980240 
	C138.346756,175.543320 138.583588,174.106384 139.042053,172.096313 
	C139.316971,170.648193 139.370239,169.773209 139.423523,168.898224 
	C139.527679,168.471283 139.631851,168.044327 140.149780,167.194824 
	C140.601913,165.492325 140.640305,164.212418 140.678711,162.932495 
	C140.756744,162.502792 140.834778,162.073074 141.328064,161.257446 
	C144.806366,162.623291 147.869431,164.375061 150.932495,166.126831 
z"/>
<path fill="#050505" opacity="1.000000" stroke="none" 
	d="
M440.754517,196.837097 
	C440.466644,197.056015 440.178772,197.274948 439.638306,197.859497 
	C439.192505,198.401001 439.066162,198.616165 439.006714,198.870590 
	C438.787781,199.160126 438.568848,199.449677 437.802368,199.910980 
	C436.831390,200.706512 436.407990,201.330261 435.984619,201.954010 
	C435.927246,202.134674 435.869873,202.315369 435.341675,202.738129 
	C433.577332,203.878082 432.283752,204.775955 430.990204,205.673828 
	C429.917603,206.183578 428.845001,206.693329 427.145630,207.252991 
	C426.024963,207.594284 425.531097,207.885635 425.037201,208.177002 
	C423.957245,208.111893 422.877258,208.046799 421.229462,207.761978 
	C420.073975,207.524734 419.486328,207.507233 418.898682,207.489731 
	C417.168365,206.991791 415.438080,206.493866 413.317993,205.565414 
	C412.300568,205.045410 411.672943,204.955933 411.045288,204.866455 
	C407.598785,203.902252 404.152283,202.938049 400.318054,201.532928 
	C399.308441,200.995926 398.686493,200.899857 398.064575,200.803772 
	C397.583496,200.771790 397.102386,200.739807 396.166626,200.203094 
	C394.883667,199.576111 394.055359,199.453842 393.227051,199.331573 
	C392.644165,199.294601 392.061249,199.257614 391.160461,198.677948 
	C388.955933,197.548172 387.069305,196.961060 385.182709,196.373947 
	C383.451630,195.152008 381.720551,193.930069 380.188843,192.215881 
	C379.945953,191.148575 379.503723,190.573532 379.061493,189.998474 
	C378.979889,189.839584 378.898315,189.680679 379.148499,189.078278 
	C379.300476,187.749771 379.120697,186.864761 378.940948,185.979767 
	C378.884033,185.811798 378.827148,185.643829 379.190308,185.081467 
	C380.074219,183.479614 380.538086,182.272156 381.001953,181.064697 
	C381.001953,181.064697 381.121918,180.796997 381.609802,180.846619 
	C383.712891,180.655411 385.328033,180.414581 386.943207,180.173752 
	C388.085327,180.383636 389.227478,180.593521 390.719696,181.256042 
	C391.718781,181.789856 392.367798,181.871002 393.016785,181.952148 
	C393.470612,181.979050 393.924408,182.005951 394.726410,182.455597 
	C395.704773,182.952240 396.334930,183.026108 396.965118,183.099976 
	C397.445557,183.147614 397.925995,183.195251 398.847870,183.770020 
	C400.122192,184.414276 400.955048,184.531403 401.787933,184.648529 
	C403.637939,185.098816 405.487976,185.549103 407.702881,186.429031 
	C408.693024,186.962830 409.318268,187.067001 409.943542,187.171173 
	C410.421661,187.209366 410.899750,187.247559 411.836639,187.790878 
	C413.140076,188.392731 413.984711,188.489456 414.829376,188.586182 
	C415.697144,188.653992 416.564941,188.721802 417.763916,189.273529 
	C419.057495,189.856049 420.019928,189.954681 420.982330,190.053299 
	C421.858002,189.863693 422.733643,189.674088 424.214478,189.168030 
	C425.441376,186.976517 426.063141,185.101440 426.684906,183.226364 
	C426.982483,182.300568 427.280029,181.374786 428.135742,180.164642 
	C429.685883,177.326385 430.677887,174.772461 431.669891,172.218536 
	C432.248810,170.890457 432.827728,169.562378 434.052307,168.061417 
	C435.085449,167.132111 435.472931,166.375717 435.860413,165.619324 
	C436.705261,164.776825 437.550110,163.934311 438.995361,163.179291 
	C441.285126,163.181488 442.974457,163.096207 444.663788,163.010925 
	C444.821930,163.753677 444.980072,164.496414 444.849121,165.770233 
	C444.966705,166.869431 445.373413,167.437546 445.780121,168.005646 
	C446.048126,169.162094 446.316162,170.318542 446.379944,172.186493 
	C446.539215,173.938217 446.902679,174.978439 447.266113,176.018677 
	C447.182159,177.753387 447.098206,179.488098 446.759430,181.782654 
	C446.689026,183.587616 446.873444,184.832703 446.786743,186.362366 
	C444.595245,190.043655 442.674896,193.440369 440.754517,196.837097 
z"/>
<path fill="#090A0A" opacity="1.000000" stroke="none" 
	d="
M328.606689,218.652573 
	C324.459106,228.285675 317.905731,231.625366 307.485168,230.594971 
	C296.136902,229.472809 284.575043,230.559525 273.106140,230.577225 
	C269.853027,230.582245 266.599304,230.216812 262.019470,229.941559 
	C264.736053,226.208832 266.689209,223.418930 268.757568,220.717209 
	C270.371033,218.609665 272.332001,216.746063 273.782379,214.539886 
	C278.120911,207.940491 283.583252,205.078003 291.964905,205.574173 
	C306.193970,206.416489 320.509064,205.805817 336.496429,205.805817 
	C333.600677,210.515701 331.195282,214.428040 328.606689,218.652573 
M311.523834,216.423477 
	C306.976624,215.506180 306.825989,218.379883 306.720337,221.480927 
	C312.254089,223.129456 315.682678,221.440582 317.219116,215.929016 
	C315.509186,216.114410 313.906830,216.288147 311.523834,216.423477 
M294.187073,214.250870 
	C290.883728,213.320450 288.159760,213.616791 286.774475,217.948059 
	C289.565125,217.948059 292.000214,218.132568 294.379547,217.849258 
	C295.226868,217.748367 295.938965,216.512405 296.712769,215.794571 
	C296.150024,215.272781 295.587280,214.750977 294.187073,214.250870 
z"/>
<path fill="#0A0A0A" opacity="1.000000" stroke="none" 
	d="
M301.132446,112.012390 
	C300.176422,114.825279 299.220428,117.638168 298.082703,121.040863 
	C297.657715,122.425705 297.414459,123.220749 297.171204,124.015793 
	C296.362091,124.897881 295.552979,125.779953 293.956909,126.634499 
	C284.764557,126.680016 276.359161,126.753067 267.953766,126.826126 
	C266.527161,126.598137 265.100555,126.370148 262.594147,125.969589 
	C266.698639,120.379868 270.423615,115.306984 274.489136,109.705910 
	C275.754883,107.512703 276.680084,105.847687 277.605316,104.182678 
	C277.866547,103.861946 278.127808,103.541206 278.785614,102.768829 
	C279.328461,99.867043 279.474731,97.416893 279.620972,94.966743 
	C279.667358,92.960281 279.713745,90.953827 279.749207,88.148369 
	C279.717377,86.868980 279.696411,86.388580 279.675476,85.908188 
	C282.469879,85.991234 285.264313,86.074295 288.774933,86.357224 
	C290.673737,86.536964 291.856354,86.516823 293.038940,86.496681 
	C294.412292,86.577202 295.785645,86.657730 297.877808,86.719215 
	C299.394928,86.457672 300.193207,86.215164 300.991486,85.972672 
	C303.408386,85.782806 305.825256,85.592949 308.522644,85.381050 
	C308.078888,87.348877 307.724213,88.921562 307.168945,91.040985 
	C306.789001,92.403465 306.609589,93.219200 306.430176,94.034927 
	C306.296906,94.469673 306.163666,94.904419 305.825317,95.861740 
	C305.477020,96.928696 305.333771,97.473076 305.190552,98.017456 
	C304.091797,101.744102 302.993011,105.470749 301.633972,109.733330 
	C301.293304,110.850311 301.212891,111.431351 301.132446,112.012390 
z"/>
<path fill="#0A0A0A" opacity="1.000000" stroke="none" 
	d="
M374.883179,215.958939 
	C362.144592,223.414841 349.815643,218.030670 349.252167,205.137924 
	C348.902863,197.144730 353.408325,190.995026 360.446991,189.857697 
	C369.153198,188.450928 376.719482,193.043961 378.896606,201.247742 
	C380.342804,206.697266 379.897552,211.791458 374.883179,215.958939 
z"/>
<path fill="#0B0B0B" opacity="1.000000" stroke="none" 
	d="
M210.476654,217.745941 
	C203.207321,211.566803 202.188187,203.450760 207.462433,196.371277 
	C212.166718,190.056870 220.766968,188.568695 227.476562,192.908035 
	C233.837784,197.022110 236.111740,206.567017 232.317169,213.226456 
	C228.361649,220.168350 219.837341,222.021591 210.476654,217.745941 
z"/>
<path fill="#171717" opacity="1.000000" stroke="none" 
	d="
M323.044647,125.028076 
	C321.141205,125.586349 319.259979,126.509682 317.329681,126.627258 
	C313.251251,126.875671 309.147125,126.702888 304.138519,126.702888 
	C305.883942,120.954689 307.431030,115.859703 309.216797,110.213470 
	C309.565796,109.101372 309.676086,108.540520 309.786377,107.979675 
	C309.952179,107.048409 310.117981,106.117142 310.561127,104.715118 
	C311.490936,104.329048 312.143402,104.413742 312.795837,104.498428 
	C315.787292,110.476501 318.778748,116.454575 321.990906,123.098740 
	C322.489288,124.185913 322.766968,124.606995 323.044647,125.028076 
z"/>
<path fill="#C8C8C9" opacity="1.000000" stroke="none" 
	d="
M81.001900,365.413452 
	C80.370575,365.387878 79.115234,364.888275 79.126595,364.419373 
	C79.380646,353.934509 79.774147,343.453033 80.539619,332.908386 
	C80.947945,343.548462 80.957916,354.251099 81.001900,365.413452 
z"/>
<path fill="#E8E8E8" opacity="1.000000" stroke="none" 
	d="
M268.163391,127.128265 
	C276.359161,126.753067 284.764557,126.680016 293.608154,126.789261 
	C291.204315,127.312004 288.362671,127.929962 285.520111,127.934433 
	C279.804688,127.943420 274.088776,127.617905 268.163391,127.128265 
z"/>
<path fill="#CECECE" opacity="1.000000" stroke="none" 
	d="
M134.507339,165.647583 
	C134.005859,161.186462 133.574707,156.419052 133.640762,151.658539 
	C133.680298,148.809738 132.879517,147.236191 129.649445,146.770874 
	C133.524368,145.120895 135.207458,146.764221 135.042191,151.010498 
	C134.856400,155.784485 134.863678,160.565994 134.507339,165.647583 
z"/>
<path fill="#E8E8E8" opacity="1.000000" stroke="none" 
	d="
M280.626160,134.512421 
	C276.393829,134.994171 271.854584,135.201248 267.315704,135.415543 
	C265.176910,135.516495 263.038757,135.631271 260.438965,135.840332 
	C261.112183,135.285248 262.235931,134.088486 263.383148,134.065567 
	C269.025146,133.952850 274.673370,134.151794 280.626160,134.512421 
z"/>
<path fill="#C8C8C9" opacity="1.000000" stroke="none" 
	d="
M441.064331,197.047211 
	C442.674896,193.440369 444.595245,190.043655 446.807281,186.866302 
	C447.268524,188.062195 447.438080,189.038681 447.607635,190.015182 
	C445.983765,193.360199 444.359894,196.705231 442.383179,200.066223 
	C441.811646,199.140564 441.592896,198.198944 441.064331,197.047211 
z"/>
<path fill="#CECECE" opacity="1.000000" stroke="none" 
	d="
M138.521820,182.920273 
	C139.870911,185.882751 141.220001,188.845245 142.585785,192.175720 
	C142.130783,192.595612 141.659058,192.647491 140.477356,192.750793 
	C138.676224,189.748154 137.585083,186.694061 136.862259,183.256836 
	C137.660995,182.889206 138.091400,182.904739 138.521820,182.920273 
z"/>
<path fill="#0A0A0A" opacity="1.000000" stroke="none" 
	d="
M447.917786,189.875259 
	C447.438080,189.038681 447.268524,188.062195 447.078430,186.581757 
	C446.873444,184.832703 446.689026,183.587616 446.750519,182.171967 
	C447.736115,181.850464 448.939880,181.918579 449.132935,181.509628 
	C449.863464,179.961945 450.266205,178.259552 451.041443,176.353241 
	C451.167145,178.263779 451.332642,180.504059 450.843262,182.590729 
	C450.268402,185.041916 449.124847,187.359711 447.917786,189.875259 
z"/>
<path fill="#E8E8E8" opacity="1.000000" stroke="none" 
	d="
M270.950928,104.850540 
	C272.952148,101.030273 275.646881,97.278778 272.081329,92.370590 
	C277.194366,96.644714 276.865051,102.207672 270.950928,104.850540 
z"/>
<path fill="#E8E8E8" opacity="1.000000" stroke="none" 
	d="
M259.303589,42.094887 
	C259.696930,46.015369 259.721924,50.058037 259.703491,54.565155 
	C256.513245,50.923126 257.827240,46.564274 259.303589,42.094887 
z"/>
<path fill="#DFDFDF" opacity="1.000000" stroke="none" 
	d="
M330.153381,125.932671 
	C336.282532,125.671577 336.217896,130.235794 336.527283,134.770203 
	C334.307190,132.167511 332.203918,129.239151 330.153381,125.932671 
z"/>
<path fill="#CECECE" opacity="1.000000" stroke="none" 
	d="
M150.942123,165.769287 
	C147.869431,164.375061 144.806366,162.623291 141.369141,160.930756 
	C141.834091,160.402435 143.164062,159.136047 143.436096,159.332764 
	C146.043350,161.217987 148.471939,163.350266 150.942123,165.769287 
z"/>
<path fill="#C8C8C9" opacity="1.000000" stroke="none" 
	d="
M101.258606,333.161499 
	C103.981140,332.263214 106.986992,331.642273 110.289566,330.729645 
	C109.471375,331.576691 108.528770,333.326935 107.198608,333.701752 
	C105.474617,334.187531 103.441788,333.577271 101.258606,333.161499 
z"/>
<path fill="#E8E8E8" opacity="1.000000" stroke="none" 
	d="
M259.289978,148.087402 
	C259.553741,150.760437 259.462921,153.550018 259.126862,156.653137 
	C258.899506,154.045776 258.917419,151.124847 259.289978,148.087402 
z"/>
<path fill="#0A0A0A" opacity="1.000000" stroke="none" 
	d="
M444.737610,162.663300 
	C442.974457,163.096207 441.285126,163.181488 439.296844,163.132874 
	C440.873932,162.245392 442.281281,157.504593 444.737610,162.663300 
z"/>
<path fill="#E8E8E8" opacity="1.000000" stroke="none" 
	d="
M324.479767,150.654449 
	C323.955505,148.540146 323.681580,146.149277 323.553589,143.354553 
	C324.043030,145.426422 324.386536,147.902145 324.479767,150.654449 
z"/>
<path fill="#E8E8E8" opacity="1.000000" stroke="none" 
	d="
M279.248901,95.100006 
	C279.474731,97.416893 279.328461,99.867043 278.815704,102.560394 
	C278.591736,100.280151 278.734253,97.756714 279.248901,95.100006 
z"/>
<path fill="#0A0A0A" opacity="1.000000" stroke="none" 
	d="
M431.364227,172.420166 
	C430.677887,174.772461 429.685883,177.326385 428.334229,179.939850 
	C429.002563,177.540176 430.030579,175.080978 431.364227,172.420166 
z"/>
<path fill="#0A0A0A" opacity="1.000000" stroke="none" 
	d="
M478.868896,149.656906 
	C477.634094,148.137131 476.400513,146.271011 475.229675,144.035950 
	C476.485016,145.548203 477.677582,147.429382 478.868896,149.656906 
z"/>
<path fill="#0A0A0A" opacity="1.000000" stroke="none" 
	d="
M473.365967,143.678040 
	C471.657928,144.622116 469.584839,145.621231 467.279541,146.372803 
	C469.031830,145.327881 471.016388,144.530472 473.365967,143.678040 
z"/>
<path fill="#E8E8E8" opacity="1.000000" stroke="none" 
	d="
M270.636780,87.418877 
	C269.586761,86.161201 268.671814,84.496696 267.755554,82.468292 
	C268.760132,83.740280 269.765961,85.376167 270.636780,87.418877 
z"/>
<path fill="#E8E8E8" opacity="1.000000" stroke="none" 
	d="
M277.215515,104.219986 
	C276.680084,105.847687 275.754883,107.512703 274.535828,109.381989 
	C275.103241,107.809937 275.964478,106.033607 277.215515,104.219986 
z"/>
<path fill="#E8E8E8" opacity="1.000000" stroke="none" 
	d="
M310.828339,23.028008 
	C309.126129,22.585310 307.430878,21.744707 305.498199,20.637817 
	C307.118958,21.124388 308.977112,21.877247 310.828339,23.028008 
z"/>
<path fill="#0A0A0A" opacity="1.000000" stroke="none" 
	d="
M386.690186,179.945038 
	C385.328033,180.414581 383.712891,180.655411 381.756256,180.854752 
	C383.088928,180.447601 384.763062,180.081955 386.690186,179.945038 
z"/>
<path fill="#0A0A0A" opacity="1.000000" stroke="none" 
	d="
M385.422119,196.645203 
	C387.069305,196.961060 388.955933,197.548172 390.922913,198.496490 
	C389.222717,198.210617 387.442108,197.563538 385.422119,196.645203 
z"/>
<path fill="#3B3B3B" opacity="1.000000" stroke="none" 
	d="
M157.726196,180.725800 
	C156.844940,179.473328 155.971283,177.874084 155.200958,175.907928 
	C156.114120,177.153671 156.923965,178.766342 157.726196,180.725800 
z"/>
<path fill="#0A0A0A" opacity="1.000000" stroke="none" 
	d="
M426.410889,183.461914 
	C426.063141,185.101440 425.441376,186.976517 424.456024,188.926865 
	C424.773926,187.233917 425.455383,185.465683 426.410889,183.461914 
z"/>
<path fill="#0A0A0A" opacity="1.000000" stroke="none" 
	d="
M431.319458,205.718384 
	C432.283752,204.775955 433.577332,203.878082 435.194153,202.981232 
	C434.227875,203.909134 432.938263,204.836014 431.319458,205.718384 
z"/>
<path fill="#0A0A0A" opacity="1.000000" stroke="none" 
	d="
M482.855225,157.659103 
	C481.962524,156.679062 481.055084,155.354858 480.217529,153.640228 
	C481.138428,154.604858 481.989441,155.959915 482.855225,157.659103 
z"/>
<path fill="#E8E8E8" opacity="1.000000" stroke="none" 
	d="
M258.031952,162.069824 
	C258.275848,163.100861 258.241882,164.248138 257.992279,165.666779 
	C257.769135,164.687439 257.761597,163.436768 258.031952,162.069824 
z"/>
<path fill="#0A0A0A" opacity="1.000000" stroke="none" 
	d="
M451.869812,168.313385 
	C452.134918,169.247818 452.247375,170.488037 452.098846,171.872650 
	C451.797607,170.884399 451.757355,169.751785 451.869812,168.313385 
z"/>
<path fill="#CECECE" opacity="1.000000" stroke="none" 
	d="
M140.362579,163.002533 
	C140.640305,164.212418 140.601913,165.492325 140.179596,166.863617 
	C139.879272,165.660858 139.962860,164.366730 140.362579,163.002533 
z"/>
<path fill="#E8E8E8" opacity="1.000000" stroke="none" 
	d="
M317.415466,64.945496 
	C317.750885,63.589115 318.454285,62.173332 319.415009,60.528969 
	C319.042694,61.828960 318.413055,63.357533 317.415466,64.945496 
z"/>
<path fill="#E8E8E8" opacity="1.000000" stroke="none" 
	d="
M292.942444,86.190292 
	C291.856354,86.516823 290.673737,86.536964 289.237793,86.304604 
	C290.271606,85.996033 291.558777,85.939964 292.942444,86.190292 
z"/>
<path fill="#CECECE" opacity="1.000000" stroke="none" 
	d="
M135.595306,177.061661 
	C135.049530,176.106140 134.691208,174.821381 134.483551,173.214355 
	C135.017075,174.172180 135.399933,175.452316 135.595306,177.061661 
z"/>
<path fill="#DFDFDF" opacity="1.000000" stroke="none" 
	d="
M327.198212,119.803802 
	C328.120605,120.740105 328.962372,122.045242 329.803986,123.689491 
	C328.908447,122.743279 328.013031,121.457954 327.198212,119.803802 
z"/>
<path fill="#C8C8C9" opacity="1.000000" stroke="none" 
	d="
M125.855957,402.911469 
	C125.440636,402.030884 125.063599,400.769745 124.883141,399.260681 
	C125.351227,400.185455 125.622734,401.358185 125.855957,402.911469 
z"/>
<path fill="#E8E8E8" opacity="1.000000" stroke="none" 
	d="
M300.828308,85.720535 
	C300.193207,86.215164 299.394928,86.457672 298.278625,86.612442 
	C298.862122,86.172607 299.763641,85.820503 300.828308,85.720535 
z"/>
<path fill="#0A0A0A" opacity="1.000000" stroke="none" 
	d="
M378.792542,186.202301 
	C379.120697,186.864761 379.300476,187.749771 379.227478,188.822266 
	C378.864563,188.148117 378.754364,187.286484 378.792542,186.202301 
z"/>
<path fill="#E8E8E8" opacity="1.000000" stroke="none" 
	d="
M326.240845,160.826477 
	C325.742737,160.191971 325.489349,159.382660 325.341187,158.268250 
	C325.792755,158.859299 326.139160,159.755478 326.240845,160.826477 
z"/>
<path fill="#0A0A0A" opacity="1.000000" stroke="none" 
	d="
M380.676544,181.173050 
	C380.538086,182.272156 380.074219,183.479614 379.308594,184.843170 
	C379.454895,183.759995 379.903015,182.520691 380.676544,181.173050 
z"/>
<path fill="#E8E8E8" opacity="1.000000" stroke="none" 
	d="
M312.837402,104.112640 
	C312.143402,104.413742 311.490936,104.329048 310.515137,104.360092 
	C310.578644,103.723068 310.965515,102.970291 311.352356,102.217522 
	C311.861206,102.720634 312.370087,103.223740 312.837402,104.112640 
z"/>
<path fill="#0A0A0A" opacity="1.000000" stroke="none" 
	d="
M420.740784,189.835114 
	C420.019928,189.954681 419.057495,189.856049 418.046021,189.445801 
	C418.831024,189.295074 419.665131,189.455994 420.740784,189.835114 
z"/>
<path fill="#CECECE" opacity="1.000000" stroke="none" 
	d="
M137.666779,177.066162 
	C138.182022,177.542130 138.254089,178.104034 137.810211,178.800110 
	C136.789291,178.929047 136.284317,178.923828 135.779343,178.918594 
	C135.457779,178.746323 135.295807,178.477737 135.395447,177.889374 
	C136.072876,177.494659 136.648239,177.323380 137.666779,177.066162 
z"/>
<path fill="#0A0A0A" opacity="1.000000" stroke="none" 
	d="
M447.397827,175.692352 
	C446.902679,174.978439 446.539215,173.938217 446.287567,172.534286 
	C446.776093,173.235718 447.152832,174.300873 447.397827,175.692352 
z"/>
<path fill="#CECECE" opacity="1.000000" stroke="none" 
	d="
M139.148071,168.976837 
	C139.370239,169.773209 139.316971,170.648193 139.000992,171.734772 
	C138.783066,170.982727 138.827850,170.019073 139.148071,168.976837 
z"/>
<path fill="#DFDFDF" opacity="1.000000" stroke="none" 
	d="
M336.141327,140.137543 
	C335.527313,140.672897 334.567047,141.150986 333.268311,141.479507 
	C333.884888,140.913376 334.839966,140.496826 336.141327,140.137543 
z"/>
<path fill="#E8E8E8" opacity="1.000000" stroke="none" 
	d="
M321.699158,54.975189 
	C321.509766,54.206791 321.615540,53.379673 321.895447,52.285324 
	C322.044464,52.984222 322.019379,53.950344 321.699158,54.975189 
z"/>
<path fill="#0A0A0A" opacity="1.000000" stroke="none" 
	d="
M463.720184,146.558411 
	C463.157349,146.996597 462.295990,147.316788 461.257690,147.425873 
	C461.861023,146.956650 462.641357,146.698547 463.720184,146.558411 
z"/>
<path fill="#6A6C6B" opacity="1.000000" stroke="none" 
	d="
M189.279678,167.664398 
	C189.660110,168.000137 189.722366,168.350937 189.855133,169.231445 
	C189.108368,169.868744 188.291046,169.976334 187.473740,170.083923 
	C187.149017,169.657990 186.824310,169.232056 186.499588,168.806137 
	C187.320221,168.430573 188.140869,168.055008 189.279678,167.664398 
z"/>
<path fill="#3B3B3B" opacity="1.000000" stroke="none" 
	d="
M153.829773,171.727325 
	C153.215897,171.212387 152.601273,170.376648 152.041412,169.190521 
	C152.673798,169.695602 153.251404,170.551071 153.829773,171.727325 
z"/>
<path fill="#E8E8E8" opacity="1.000000" stroke="none" 
	d="
M251.820190,129.953766 
	C251.803955,129.081284 252.083313,128.123550 252.685516,127.118172 
	C252.710846,128.003174 252.413315,128.935852 251.820190,129.953766 
z"/>
<path fill="#E8E8E8" opacity="1.000000" stroke="none" 
	d="
M269.186707,71.115288 
	C270.056396,71.314751 270.904510,71.874420 271.859253,72.723991 
	C271.032257,72.501099 270.098694,71.988297 269.186707,71.115288 
z"/>
<path fill="#E8E8E8" opacity="1.000000" stroke="none" 
	d="
M260.236206,118.941322 
	C260.411804,118.110947 260.926514,117.264099 261.734680,116.333763 
	C261.543854,117.141800 261.059570,118.033325 260.236206,118.941322 
z"/>
<path fill="#E8E8E8" opacity="1.000000" stroke="none" 
	d="
M266.917206,68.624313 
	C267.645630,68.919098 268.379608,69.563690 269.179413,70.503143 
	C268.471069,70.190041 267.696930,69.582069 266.917206,68.624313 
z"/>
<path fill="#0A0A0A" opacity="1.000000" stroke="none" 
	d="
M398.219116,201.047379 
	C398.686493,200.899857 399.308441,200.995926 399.971313,201.346970 
	C399.466095,201.498276 398.919891,201.394623 398.219116,201.047379 
z"/>
<path fill="#E8E8E8" opacity="1.000000" stroke="none" 
	d="
M295.504028,78.635902 
	C295.954224,78.202576 296.708038,77.919556 297.754333,77.752563 
	C297.300446,78.174461 296.554047,78.480339 295.504028,78.635902 
z"/>
<path fill="#C8C8C9" opacity="1.000000" stroke="none" 
	d="
M425.162537,208.407898 
	C425.531097,207.885635 426.024963,207.594284 426.811096,207.387939 
	C426.498199,207.861588 425.893066,208.250198 425.162537,208.407898 
z"/>
<path fill="#C8C8C9" opacity="1.000000" stroke="none" 
	d="
M418.929840,207.759247 
	C419.486328,207.507233 420.073975,207.524734 420.825226,207.800079 
	C420.312897,208.048218 419.636932,208.038498 418.929840,207.759247 
z"/>
<path fill="#0A0A0A" opacity="1.000000" stroke="none" 
	d="
M436.324097,201.926208 
	C436.407990,201.330261 436.831390,200.706512 437.560150,200.039642 
	C437.464874,200.630478 437.064240,201.264450 436.324097,201.926208 
z"/>
<path fill="#0A0A0A" opacity="1.000000" stroke="none" 
	d="
M411.188232,205.124496 
	C411.672943,204.955933 412.300568,205.045410 412.969177,205.396240 
	C412.450500,205.565887 411.890839,205.474213 411.188232,205.124496 
z"/>
<path fill="#E8E8E8" opacity="1.000000" stroke="none" 
	d="
M335.934875,78.642517 
	C335.222321,78.636024 334.452667,78.251656 333.498108,77.592819 
	C334.168091,77.633789 335.022888,77.949211 335.934875,78.642517 
z"/>
<path fill="#E8E8E8" opacity="1.000000" stroke="none" 
	d="
M266.833984,80.154556 
	C266.202667,79.906197 265.619446,79.286545 264.988037,78.345535 
	C265.587280,78.610535 266.234680,79.196899 266.833984,80.154556 
z"/>
<path fill="#CECECE" opacity="1.000000" stroke="none" 
	d="
M54.896049,311.840546 
	C54.517738,312.356049 54.014908,312.623627 53.224239,312.801575 
	C53.548111,312.338867 54.159821,311.965759 54.896049,311.840546 
z"/>
<path fill="#E8E8E8" opacity="1.000000" stroke="none" 
	d="
M283.040833,78.080925 
	C283.492462,77.830063 284.028320,77.798340 284.760132,77.966553 
	C284.345734,78.211014 283.735413,78.255539 283.040833,78.080925 
z"/>
<path fill="#E8E8E8" opacity="1.000000" stroke="none" 
	d="
M301.167175,77.305161 
	C301.498047,76.799049 301.970886,76.516266 302.737213,76.291656 
	C302.456848,76.742714 301.882996,77.135597 301.167175,77.305161 
z"/>
<path fill="#DFDFDF" opacity="1.000000" stroke="none" 
	d="
M111.975067,308.693298 
	C112.493805,308.502167 113.039696,308.579468 113.785614,308.858826 
	C113.324501,309.027893 112.663353,308.994843 111.975067,308.693298 
z"/>
<path fill="#DFDFDF" opacity="1.000000" stroke="none" 
	d="
M117.981323,309.729065 
	C118.521973,309.489655 119.096855,309.517334 119.829330,309.797668 
	C119.329803,310.032227 118.672684,310.014160 117.981323,309.729065 
z"/>
<path fill="#DFDFDF" opacity="1.000000" stroke="none" 
	d="
M124.009094,310.961792 
	C124.486565,310.684235 125.039871,310.645691 125.794060,310.813751 
	C125.358269,311.080505 124.721596,311.140656 124.009094,310.961792 
z"/>
<path fill="#E8E8E8" opacity="1.000000" stroke="none" 
	d="
M316.290894,89.068977 
	C316.361237,89.745186 316.097046,90.522316 315.564331,91.478462 
	C315.515991,90.828285 315.736176,89.999092 316.290894,89.068977 
z"/>
<path fill="#C8C8C9" opacity="1.000000" stroke="none" 
	d="
M106.074661,312.348846 
	C105.533981,312.527283 104.979958,312.430054 104.220764,312.120819 
	C104.697487,311.963623 105.379402,312.018402 106.074661,312.348846 
z"/>
<path fill="#E8E8E8" opacity="1.000000" stroke="none" 
	d="
M278.001282,76.627701 
	C278.539459,76.442978 279.109589,76.524620 279.821594,76.867767 
	C279.320068,77.050858 278.676636,76.972458 278.001282,76.627701 
z"/>
<path fill="#E8E8E8" opacity="1.000000" stroke="none" 
	d="
M308.808868,73.829254 
	C309.083954,73.215919 309.725647,72.660149 310.689880,72.068588 
	C310.400116,72.650803 309.787781,73.268806 308.808868,73.829254 
z"/>
<path fill="#E8E8E8" opacity="1.000000" stroke="none" 
	d="
M315.355896,67.961678 
	C315.397491,67.263031 315.812042,66.532707 316.514496,65.656525 
	C316.444519,66.317116 316.086670,67.123558 315.355896,67.961678 
z"/>
<path fill="#E8E8E8" opacity="1.000000" stroke="none" 
	d="
M322.242798,40.846062 
	C321.744598,40.507320 321.472473,40.019680 321.252960,39.252449 
	C321.693329,39.547630 322.081085,40.122398 322.242798,40.846062 
z"/>
<path fill="#E8E8E8" opacity="1.000000" stroke="none" 
	d="
M260.400146,38.000286 
	C260.555145,38.506588 260.440033,39.041183 260.120880,39.776993 
	C259.987885,39.328327 260.058929,38.678452 260.400146,38.000286 
z"/>
<path fill="#0A0A0A" opacity="1.000000" stroke="none" 
	d="
M396.835602,182.832123 
	C396.334930,183.026108 395.704773,182.952240 395.031982,182.615860 
	C395.561615,182.423676 396.133850,182.493973 396.835602,182.832123 
z"/>
<path fill="#6A6C6B" opacity="1.000000" stroke="none" 
	d="
M197.879425,162.277130 
	C197.598785,162.883041 197.011414,163.413925 196.112915,163.871796 
	C196.392075,163.266556 196.982376,162.734329 197.879425,162.277130 
z"/>
<path fill="#E8E8E8" opacity="1.000000" stroke="none" 
	d="
M327.290863,164.829681 
	C326.739960,164.513504 326.414520,164.046982 326.160492,163.279999 
	C326.660034,163.546127 327.088165,164.112717 327.290863,164.829681 
z"/>
<path fill="#CECECE" opacity="1.000000" stroke="none" 
	d="
M120.064049,144.379990 
	C119.518875,144.511414 118.964409,144.372223 118.226402,143.997894 
	C118.713493,143.878296 119.384132,143.993835 120.064049,144.379990 
z"/>
<path fill="#0A0A0A" opacity="1.000000" stroke="none" 
	d="
M435.577271,165.763458 
	C435.472931,166.375717 435.085449,167.132111 434.348969,167.944214 
	C434.431335,167.302490 434.862732,166.605057 435.577271,165.763458 
z"/>
<path fill="#0A0A0A" opacity="1.000000" stroke="none" 
	d="
M445.844299,167.719666 
	C445.373413,167.437546 444.966705,166.869431 444.787415,166.147797 
	C445.312714,166.474075 445.610626,166.953873 445.844299,167.719666 
z"/>
<path fill="#E8E8E8" opacity="1.000000" stroke="none" 
	d="
M323.246338,124.903992 
	C322.766968,124.606995 322.489288,124.185913 322.220062,123.371162 
	C322.635010,123.578293 323.041504,124.179100 323.246338,124.903992 
z"/>
<path fill="#E8E8E8" opacity="1.000000" stroke="none" 
	d="
M297.541321,123.913635 
	C297.414459,123.220749 297.657715,122.425705 298.118774,121.394356 
	C298.194855,122.042526 298.053162,122.927002 297.541321,123.913635 
z"/>
<path fill="#E8E8E8" opacity="1.000000" stroke="none" 
	d="
M301.420898,111.974388 
	C301.212891,111.431351 301.293304,110.850311 301.638092,110.119675 
	C301.838074,110.625519 301.773712,111.280952 301.420898,111.974388 
z"/>
<path fill="#E8E8E8" opacity="1.000000" stroke="none" 
	d="
M309.508789,108.013077 
	C309.676086,108.540520 309.565796,109.101372 309.209320,109.825966 
	C309.052521,109.341957 309.141846,108.694214 309.508789,108.013077 
z"/>
<path fill="#0A0A0A" opacity="1.000000" stroke="none" 
	d="
M392.848938,181.704865 
	C392.367798,181.871002 391.718781,181.789856 391.033264,181.424561 
	C391.558197,181.246155 392.119629,181.351883 392.848938,181.704865 
z"/>
<path fill="#0A0A0A" opacity="1.000000" stroke="none" 
	d="
M393.418823,199.589478 
	C394.055359,199.453842 394.883667,199.576111 395.864624,199.993225 
	C395.215057,200.141190 394.412811,199.994278 393.418823,199.589478 
z"/>
<path fill="#E8E8E8" opacity="1.000000" stroke="none" 
	d="
M316.633911,100.219971 
	C317.231842,100.493011 317.616272,100.942451 317.981201,101.697968 
	C317.447937,101.468163 316.934174,100.932259 316.633911,100.219971 
z"/>
<path fill="#0A0A0A" opacity="1.000000" stroke="none" 
	d="
M401.602295,184.385162 
	C400.955048,184.531403 400.122192,184.414276 399.135956,184.000305 
	C399.793945,183.842896 400.605286,183.982330 401.602295,184.385162 
z"/>
<path fill="#E8E8E8" opacity="1.000000" stroke="none" 
	d="
M305.468597,97.989403 
	C305.333771,97.473076 305.477020,96.928696 305.854462,96.203812 
	C305.974670,96.669319 305.860657,97.315331 305.468597,97.989403 
z"/>
<path fill="#0A0A0A" opacity="1.000000" stroke="none" 
	d="
M409.792969,186.919891 
	C409.318268,187.067001 408.693024,186.962830 408.028839,186.598389 
	C408.540741,186.448273 409.091553,186.558441 409.792969,186.919891 
z"/>
<path fill="#0A0A0A" opacity="1.000000" stroke="none" 
	d="
M414.634003,188.327515 
	C413.984711,188.489456 413.140076,188.392731 412.138977,187.995270 
	C412.801270,187.819305 413.619934,187.944077 414.634003,188.327515 
z"/>
<path fill="#E8E8E8" opacity="1.000000" stroke="none" 
	d="
M306.771423,93.913452 
	C306.609589,93.219200 306.789001,92.403465 307.220062,91.382874 
	C307.352020,92.049332 307.232330,92.920654 306.771423,93.913452 
z"/>
<path fill="#E8E8E8" opacity="1.000000" stroke="none" 
	d="
M279.415192,85.955490 
	C279.696411,86.388580 279.717377,86.868980 279.629333,87.694016 
	C279.398529,87.360039 279.276703,86.681419 279.415192,85.955490 
z"/>
<path fill="#0A0A0A" opacity="1.000000" stroke="none" 
	d="
M378.997437,190.304047 
	C379.503723,190.573532 379.945953,191.148575 380.147125,191.880890 
	C379.581848,191.561981 379.257629,191.085800 378.997437,190.304047 
z"/>
<path fill="#CECECE" opacity="1.000000" stroke="none" 
	d="
M142.642914,199.313995 
	C142.062729,198.950531 141.632294,198.253693 141.239883,197.247040 
	C141.782837,197.618347 142.287750,198.299500 142.642914,199.313995 
z"/>
<path fill="#E8E8E8" opacity="1.000000" stroke="none" 
	d="
M310.453064,84.530807 
	C310.423859,84.480560 310.482269,84.581055 310.453064,84.530807 
z"/>
<path fill="#0A0A0A" opacity="1.000000" stroke="none" 
	d="
M475.217285,143.363922 
	C475.045990,143.730026 474.771271,143.752762 474.085449,143.729218 
	C474.154205,143.462143 474.634033,143.241348 475.217285,143.363922 
z"/>
<path fill="#0A0A0A" opacity="1.000000" stroke="none" 
	d="
M439.266296,198.881409 
	C439.066162,198.616165 439.192505,198.401001 439.546753,198.125320 
	C439.647095,198.314423 439.586487,198.603317 439.266296,198.881409 
z"/>
<path fill="#F9FAFB" opacity="1.000000" stroke="none" 
	d="
M135.747391,179.335571 
	C136.284317,178.923828 136.789291,178.929047 137.671631,178.972610 
	C138.193314,180.051254 138.337646,181.091583 138.501892,182.526093 
	C138.091400,182.904739 137.660995,182.889206 136.907730,182.888031 
	C136.295074,181.852432 136.005264,180.802505 135.747391,179.335571 
z"/>
<path fill="#DFDFDF" opacity="1.000000" stroke="none" 
	d="
M471.297455,400.240540 
	C469.279755,399.237427 466.575012,398.800018 468.266327,396.085083 
	C468.978241,394.942291 470.853424,394.104828 472.297821,393.927734 
	C475.041443,393.591278 477.855621,393.830292 481.244629,393.830292 
	C478.898285,397.029755 476.900696,399.753662 474.794373,402.625793 
	C473.679230,401.841736 472.657379,401.123230 471.297455,400.240540 
z"/>
<path fill="#DFDFDF" opacity="1.000000" stroke="none" 
	d="
M113.607796,393.856323 
	C116.667953,395.975342 117.216560,397.836487 113.668472,399.630035 
	C111.924988,400.511383 110.384705,401.794739 108.660004,402.958557 
	C106.197777,399.852020 103.734238,396.743835 101.421448,393.825836 
	C105.409248,393.825836 109.294838,393.825836 113.607796,393.856323 
z"/>
<path fill="#C8C8C9" opacity="1.000000" stroke="none" 
	d="
M311.914124,216.442688 
	C313.906830,216.288147 315.509186,216.114410 317.219116,215.929016 
	C315.682678,221.440582 312.254089,223.129456 306.720337,221.480927 
	C306.825989,218.379883 306.976624,215.506180 311.914124,216.442688 
z"/>
<path fill="#C8C8C9" opacity="1.000000" stroke="none" 
	d="
M294.605804,214.240021 
	C295.587280,214.750977 296.150024,215.272781 296.712769,215.794586 
	C295.938965,216.512405 295.226868,217.748367 294.379547,217.849258 
	C292.000214,218.132568 289.565125,217.948059 286.774475,217.948059 
	C288.159760,213.616791 290.883728,213.320450 294.605804,214.240021 
z"/>
</svg>