<svg version="1.1" id="Layer_1" xmlns="http://www.w3.org/2000/svg" xmlns:xlink="http://www.w3.org/1999/xlink" x="0px" y="0px"
	 width="100%" viewBox="0 0 878 720" enable-background="new 0 0 878 720" xml:space="preserve">
<path fill="#FFFF00" opacity="1.000000" stroke="none" 
	d="
M509.000000,721.000000 
	C339.333344,721.000000 170.166672,721.000000 1.000000,721.000000 
	C1.000000,481.000000 1.000000,241.000000 1.000000,1.000000 
	C293.666656,1.000000 586.333313,1.000000 879.000000,1.000000 
	C879.000000,241.000000 879.000000,481.000000 879.000000,721.000000 
	C755.833313,721.000000 632.666687,721.000000 509.000000,721.000000 
M758.101257,550.993530 
	C747.067200,551.051270 736.033142,551.108948 724.072449,551.017273 
	C712.530212,551.017273 700.987976,551.017273 689.000488,551.017273 
	C689.000488,553.994080 689.000488,555.615662 689.000488,557.237183 
	C689.000488,571.400024 689.084778,585.563904 688.909180,599.724548 
	C688.883057,601.834534 688.199036,604.425171 686.859497,605.950317 
	C678.399597,615.582458 678.008911,625.612976 687.494507,634.274536 
	C697.567505,643.472412 714.415771,642.228882 719.070618,626.928711 
	C719.680481,624.924133 720.973816,622.451050 722.667236,621.565674 
	C731.607117,616.891357 740.553284,612.089294 749.918396,608.400635 
	C764.308716,602.732605 779.192566,598.814453 794.665039,596.789062 
	C807.033691,595.169922 819.211243,594.282288 831.697266,596.354492 
	C823.332397,606.928040 824.749268,618.490967 831.550415,627.866760 
	C837.043396,635.439026 852.805054,634.903320 860.853455,627.719177 
	C866.036255,623.092896 866.935486,617.290405 867.240662,610.770386 
	C867.642822,602.180115 864.050842,592.558411 853.660583,591.184937 
	C846.524719,590.241638 841.166016,587.538757 837.198669,581.702209 
	C836.661011,580.911133 835.835327,580.315979 835.143738,579.629395 
	C822.028198,566.608337 805.026917,560.993347 788.210510,555.040527 
	C786.166687,554.317078 784.037170,553.835815 782.355896,553.358337 
	C784.363708,535.757874 780.840210,518.730103 785.103638,501.333862 
	C794.050659,501.333862 802.871338,501.333862 811.998413,501.333862 
	C811.998413,496.861053 812.166138,493.219299 811.966980,489.597687 
	C811.369324,478.728851 804.859619,471.611206 794.515991,470.305878 
	C771.344360,470.260345 748.172729,470.214783 724.192871,470.018433 
	C722.628662,470.345764 721.078003,470.780426 719.497681,470.980865 
	C714.141296,471.660309 710.089111,475.968628 710.015320,481.314758 
	C709.946655,486.288055 710.197205,491.273346 709.935974,496.233856 
	C709.740234,499.951782 711.065125,501.109711 714.767761,501.072021 
	C729.485840,500.922211 744.206787,501.052917 759.022766,502.002594 
	C758.995911,518.348267 758.968994,534.693909 758.960022,550.956665 
	C758.960022,550.956665 759.044678,550.963013 758.101257,550.993530 
M280.075073,459.097137 
	C280.063751,472.425018 280.031433,485.752960 280.045166,499.080811 
	C280.081818,534.724976 280.138245,570.369080 280.019165,606.855957 
	C280.742554,611.235352 278.582733,612.260132 274.596283,612.104492 
	C271.790863,611.994934 267.787079,610.454956 267.052460,615.328674 
	C266.516418,618.884705 266.174225,622.488220 266.031525,626.081909 
	C265.611298,636.664124 265.193726,647.250916 265.110718,657.838501 
	C265.092865,660.118042 265.959625,662.823425 267.357941,664.588928 
	C269.102966,666.792419 271.626709,668.589355 274.149475,669.931885 
	C288.613434,677.628906 303.245209,677.868530 318.120880,670.825317 
	C323.102509,668.466675 325.331573,664.933228 324.993317,659.601746 
	C324.347717,649.426880 322.602448,639.181091 323.295685,629.101135 
	C324.002686,618.820984 320.715729,612.273865 311.701080,607.787354 
	C309.939636,606.910706 308.291107,604.022095 308.168152,601.967163 
	C307.771423,595.334717 308.110779,588.658264 308.810211,581.448547 
	C308.873138,572.344543 309.002686,563.240295 308.958221,554.136780 
	C308.944946,551.423706 308.443939,548.713013 308.016327,545.176514 
	C308.066345,543.783936 308.116364,542.391357 308.810211,540.448547 
	C308.870148,526.691467 308.942719,512.934448 308.954529,499.177368 
	C308.955139,498.452209 308.440948,497.726562 308.016388,496.209045 
	C308.066376,495.138977 308.116394,494.068939 308.810181,492.448608 
	C308.870178,473.359344 308.939301,454.270111 308.955139,435.180817 
	C308.955719,434.454498 308.441010,433.727692 308.016144,432.074341 
	C308.016144,417.477295 308.016144,402.880249 308.016144,388.690918 
	C334.236786,388.690918 359.917358,388.690918 385.727417,388.690918 
	C385.864105,389.996582 385.988831,390.632263 385.988983,391.267944 
	C385.999084,439.739777 385.974426,488.211609 386.047119,536.683350 
	C386.053040,540.620850 386.207581,544.689270 387.180542,548.468323 
	C389.638184,558.014343 399.272675,565.189331 408.596588,564.982056 
	C418.104553,564.770630 426.216309,558.076233 429.696594,547.519043 
	C429.797546,545.702026 429.985199,543.885010 429.986420,542.067932 
	C430.005066,514.146118 430.020569,486.224243 429.992737,458.302429 
	C429.970367,435.868469 429.888641,413.434601 429.985016,390.125671 
	C430.603333,389.419342 431.204468,388.118195 431.842590,388.099823 
	C437.433685,387.938751 443.031403,388.006653 448.541138,388.006653 
	C449.002625,392.295288 449.417236,396.148285 449.180328,400.541992 
	C449.124481,401.037201 449.019867,401.532410 449.019745,402.027618 
	C449.008423,448.985748 448.996918,495.943848 449.040771,542.901917 
	C449.042053,544.300415 449.629150,545.698303 449.994751,547.889282 
	C451.192535,560.426697 464.798462,566.985168 473.510742,564.616638 
	C487.387024,560.844299 491.303467,555.424500 494.810211,539.448547 
	C494.870209,520.026062 494.939148,500.603516 494.955078,481.180969 
	C494.955658,480.454559 494.440979,479.727753 494.016144,478.074341 
	C494.066223,468.049194 494.116302,458.024017 494.810181,447.448608 
	C494.870148,431.358795 494.940948,415.268982 494.954834,399.179138 
	C494.955475,398.453369 494.440979,397.727142 494.016418,396.118958 
	C494.080322,393.736145 494.144257,391.353333 495.117554,389.003906 
	C519.662903,389.003906 544.208191,389.003906 569.044434,389.003906 
	C569.044434,392.444733 569.045349,395.096313 569.044312,397.747864 
	C569.025757,443.517609 568.996216,489.287384 568.996826,535.057129 
	C568.996948,544.706726 569.107544,554.356262 569.034241,564.933472 
	C569.078491,577.891174 569.122681,590.848816 568.962280,604.489075 
	C565.693665,606.986511 562.622620,609.819946 559.102478,611.889587 
	C555.370850,614.083435 554.052307,616.741455 553.841919,621.134033 
	C553.341797,631.577698 551.815857,641.967896 551.088867,652.406494 
	C550.540161,660.284790 550.565186,668.112061 558.280823,670.801514 
	C564.768005,673.062622 571.817078,676.130920 578.274109,675.473022 
	C587.215820,674.561951 595.988892,670.882324 604.496887,667.531860 
	C606.934265,666.571960 609.308472,662.836975 609.772644,660.051392 
	C610.615356,654.993774 610.001099,649.693848 610.000122,644.495056 
	C609.998108,633.741638 609.999512,622.988159 609.999512,611.847351 
	C605.280212,611.847351 601.144958,611.847351 597.004028,610.929382 
	C597.003479,569.453918 597.021545,527.978394 596.994873,486.502930 
	C596.980347,464.019592 596.889709,441.536285 596.974243,418.114807 
	C596.971558,408.148102 596.968811,398.181427 597.889954,388.021057 
	C613.714966,386.964264 629.742249,390.346954 645.389709,384.245117 
	C652.866577,381.329407 661.375977,381.061401 668.079956,379.838257 
	C665.190430,378.143768 661.491150,375.952454 657.770752,373.797394 
	C650.512329,369.592957 643.122620,365.962311 634.382812,365.969666 
	C567.452881,366.025879 500.522980,366.000519 433.593048,366.000519 
	C371.464874,366.000519 309.336700,365.987671 247.208557,366.038330 
	C244.085403,366.040894 240.868759,366.213562 237.856934,366.958862 
	C227.723099,369.466431 217.662247,372.268921 207.583542,374.955872 
	C207.820999,375.141052 208.312744,375.857727 208.806046,375.858795 
	C215.094452,375.872589 220.228195,378.979187 225.303940,382.075897 
	C232.097076,386.220459 239.557266,388.507874 247.325272,388.868347 
	C258.412689,389.382812 269.541779,388.999268 281.198090,388.999268 
	C280.832855,392.578369 280.159912,396.184204 280.162750,399.789490 
	C280.168060,406.534790 280.565216,413.279785 280.165253,420.575989 
	C280.182068,433.115356 280.198883,445.654755 280.075073,459.097137 
M483.975891,189.121964 
	C478.170319,177.566971 472.364777,166.011963 466.478027,154.295349 
	C464.279419,161.882538 462.134003,169.267960 460.000153,176.656738 
	C458.713104,181.113312 457.444061,185.575073 456.546692,190.783875 
	C464.839050,190.845306 473.131470,190.937637 481.423645,190.918900 
	C482.227448,190.917084 483.029663,190.227676 483.975891,189.121964 
M398.551361,190.810211 
	C407.367523,190.817673 416.183685,190.825134 425.925232,190.982651 
	C430.089325,190.988235 434.279999,190.704330 438.409760,191.083694 
	C442.269409,191.438232 443.976013,189.874908 444.991852,186.346207 
	C447.989105,175.934738 451.218170,165.590027 454.356720,155.219238 
	C457.045349,146.335129 459.734192,137.451080 462.696625,127.662773 
	C447.104706,131.426483 432.596863,130.279037 418.391907,127.993423 
	C416.474609,133.929672 424.594696,139.184509 418.801910,143.411819 
	C419.205383,146.572174 420.526245,149.454865 419.601288,150.882706 
	C413.523743,160.264557 406.920654,169.304306 400.577637,178.516693 
	C397.995178,182.267380 395.634125,186.170532 392.824158,190.546509 
	C395.496460,190.350311 396.748779,190.258362 398.551361,190.810211 
M422.239288,309.985748 
	C421.485352,310.384918 420.538483,310.612457 420.007172,311.209686 
	C414.386108,317.528198 408.611633,323.729736 403.330017,330.324310 
	C399.364136,335.276062 396.055054,340.753754 392.549011,345.858337 
	C393.385956,346.658569 393.491669,346.848328 393.597778,346.848541 
	C421.901306,346.907196 450.204956,346.976654 478.508270,346.916504 
	C479.722443,346.913940 481.376678,346.020203 482.076019,345.018219 
	C487.151276,337.746643 492.209290,330.450134 496.903748,322.931061 
	C499.276520,319.130615 500.881104,314.850555 502.847229,309.965515 
	C501.839417,309.652405 500.832306,309.068359 499.823730,309.065918 
	C475.265686,309.005981 450.707428,308.997437 426.149353,309.034912 
	C425.095306,309.036530 424.042084,309.566315 422.239288,309.985748 
M558.792664,255.991180 
	C572.057861,255.991180 585.323059,255.991180 599.818787,255.991180 
	C581.153748,240.909729 561.107666,232.625320 538.152893,231.782959 
	C537.768982,227.079819 537.129089,222.585663 537.084534,218.085617 
	C536.932617,202.761459 538.590881,187.222977 536.592834,172.159622 
	C533.607910,149.657013 521.700500,131.677673 502.955841,118.260391 
	C495.044952,112.597832 481.351532,115.011658 478.654999,124.150406 
	C477.695129,127.403427 476.374115,130.611969 474.766907,133.598038 
	C472.050385,138.645050 470.334351,142.538528 474.244446,148.781586 
	C482.636200,162.180435 489.288574,176.668686 496.689880,190.780991 
	C498.567566,190.780991 500.639587,190.780991 502.618469,190.780991 
	C503.440094,196.548767 504.243866,202.022766 504.992493,207.504303 
	C505.514404,211.325989 504.499664,213.725006 499.936005,213.025406 
	C496.331482,212.472855 495.433807,214.766983 496.069641,217.603516 
	C497.909271,225.810822 499.676422,234.056702 502.052795,242.116196 
	C505.797699,254.816818 505.998260,254.757675 519.491577,255.727264 
	C532.273560,255.790695 545.055481,255.854126 558.792664,255.991180 
M92.189789,503.551422 
	C92.129837,517.974915 92.057816,532.398438 92.045334,546.822021 
	C92.044708,547.547363 92.559013,548.273193 92.983299,549.793274 
	C92.163971,551.145813 91.656349,553.160522 90.464462,553.721680 
	C87.397194,555.165649 84.037651,556.000610 80.775742,557.017456 
	C63.907726,562.275696 47.878506,569.089722 36.591850,583.471313 
	C32.645508,588.499817 28.306744,590.725830 21.946758,590.100586 
	C16.878521,589.602356 12.972419,592.336121 9.981600,596.355103 
	C2.167821,606.855042 5.628872,627.179138 20.563931,631.927490 
	C27.963867,634.280151 41.294750,630.494385 44.474510,622.742310 
	C48.099926,613.903809 46.984646,605.634705 43.142262,597.128662 
	C44.828312,596.732544 46.374424,596.125366 47.949883,596.036072 
	C68.322609,594.881531 88.300652,597.367432 107.514038,604.127991 
	C121.417969,609.020264 134.975433,614.924866 148.538544,620.726013 
	C150.420074,621.530762 151.684692,624.204285 152.814255,626.245422 
	C154.741989,629.728821 155.637482,634.038452 158.219727,636.850220 
	C163.222031,642.297058 170.125351,643.551208 177.186539,641.914185 
	C184.102310,640.310791 191.018967,638.089600 192.680618,629.749268 
	C194.100662,622.621582 191.360077,616.243225 187.845932,610.384644 
	C185.743820,606.880249 184.403519,604.124390 184.674057,599.482910 
	C185.544632,584.547180 185.078308,569.527588 184.845535,554.544678 
	C184.826920,553.346619 182.698944,551.230347 181.464539,551.164429 
	C175.659958,550.854553 169.825089,551.111816 163.073715,551.034607 
	C148.048843,551.078613 133.023987,551.122620 117.135010,550.990234 
	C116.756538,549.905823 116.068680,548.826294 116.051636,547.736267 
	C115.964836,542.184204 116.051575,536.629333 116.725060,530.511353 
	C116.892281,520.547180 117.059494,510.583038 117.808395,500.741943 
	C132.542206,500.741943 147.276031,500.741943 162.748459,500.741943 
	C162.748459,492.816803 163.131592,484.878906 162.493805,477.023865 
	C162.322647,474.916046 159.373245,472.090149 157.110168,471.316071 
	C153.677658,470.141998 149.729904,470.474274 145.073715,470.034668 
	C129.382187,470.078674 113.690651,470.122681 97.076447,470.017303 
	C93.419014,470.011780 89.707054,469.606598 86.117203,470.096405 
	C81.016296,470.792267 75.310547,470.969360 71.095848,473.456696 
	C61.396721,479.180817 59.403221,489.074615 61.761681,501.000244 
	C71.343987,501.000244 80.946648,500.954498 90.546852,501.086823 
	C91.317734,501.097443 92.071724,502.334167 92.189789,503.551422 
M196.949417,221.548386 
	C188.547775,219.684723 180.073517,218.087006 171.781387,215.822357 
	C168.604492,214.954758 165.843658,212.563736 162.111969,210.417587 
	C157.559204,216.829727 152.563721,223.951035 147.478531,231.007706 
	C139.528412,242.040009 131.423767,252.962219 123.571571,264.063324 
	C119.573204,269.716034 114.780724,275.210907 112.427284,281.549408 
	C104.634834,302.536865 99.731155,324.360809 95.990158,346.430267 
	C92.650330,366.133148 89.389191,385.850067 85.857986,405.518555 
	C85.560822,407.173737 83.517677,409.754120 82.218285,409.795624 
	C71.400833,410.141449 60.567081,410.044281 49.739426,409.948486 
	C47.505276,409.928741 46.725040,409.080902 47.735352,406.421082 
	C49.918945,400.672272 51.599594,394.721130 53.276756,388.793579 
	C56.594864,377.066406 60.189816,365.393555 62.869423,353.517548 
	C64.902718,344.505951 65.332123,335.141937 67.142830,326.067993 
	C68.956329,316.980133 68.177834,308.084076 65.667282,299.479279 
	C59.604858,278.700714 57.616367,257.823669 61.848576,236.455383 
	C62.913727,231.077454 61.218189,221.973923 54.736801,219.702576 
	C43.373188,215.720291 29.512186,217.635284 21.076233,228.173172 
	C16.651320,233.700607 14.515235,239.949371 13.515324,246.856216 
	C11.982943,257.441040 10.315330,268.081146 13.953821,278.445679 
	C17.209625,287.720093 21.712280,296.561371 24.879759,305.861176 
	C30.176044,321.411194 37.908039,336.606049 33.253372,354.491516 
	C33.224480,385.301056 33.195583,416.110596 33.017464,447.844849 
	C33.011845,450.510651 32.989643,453.176575 33.003952,455.842255 
	C33.037010,462.000885 35.058426,463.998657 41.240173,463.998840 
	C80.389801,464.000031 119.539429,463.999207 158.689056,464.000580 
	C160.021652,464.000610 161.390350,463.819489 162.681366,464.055634 
	C178.942429,467.029358 195.197906,470.034668 211.440109,473.109589 
	C214.586060,473.705139 217.021194,475.485229 216.950989,478.973694 
	C216.737778,489.568512 216.800903,500.203491 215.842300,510.739655 
	C214.737076,522.887573 212.835022,534.974609 210.947830,547.036255 
	C209.244781,557.920776 207.038483,568.725647 205.160934,579.584167 
	C203.806351,587.418091 201.730438,595.134766 203.902451,603.282715 
	C206.693390,613.752441 217.065735,622.583374 228.232086,622.967651 
	C239.142380,623.343140 246.341324,617.923035 249.966766,606.087830 
	C254.817947,590.251221 258.189423,574.105164 261.441681,557.839539 
	C265.661957,536.732361 266.910492,515.442627 268.836090,494.182404 
	C269.778961,483.772400 269.196991,473.201141 268.922363,462.712921 
	C268.767242,456.788574 266.778564,451.298096 263.028870,446.529083 
	C256.381897,438.075104 247.130722,433.301941 237.581863,429.383881 
	C226.315689,424.761139 214.672272,421.051514 203.164139,417.026855 
	C195.071930,414.196838 188.322281,409.861023 185.007004,401.497986 
	C182.987564,396.403839 180.335709,391.437653 179.174530,386.149078 
	C175.724396,370.435425 175.162964,354.814514 182.581711,339.764252 
	C185.049957,334.756989 186.788376,329.389984 189.494370,322.595825 
	C194.012589,330.391418 198.038818,337.419006 202.165771,344.386993 
	C202.944275,345.701416 204.001205,347.639221 205.141403,347.801514 
	C208.392365,348.264130 211.868774,348.520355 215.049896,347.861084 
	C229.993820,344.763977 244.868088,341.330902 259.767853,338.020721 
	C270.313538,335.677856 280.945038,333.659271 291.377777,330.891144 
	C298.757751,328.932983 301.419189,322.877319 298.934113,315.128235 
	C297.072937,309.324585 290.972504,306.761169 284.822479,308.215118 
	C270.368744,311.632202 256.105133,315.848541 241.733749,319.623993 
	C239.099014,320.316193 235.875824,321.547668 233.681595,320.659393 
	C223.863968,316.684906 215.733810,310.433380 211.083069,300.528503 
	C203.699875,284.804108 198.867157,268.434326 198.973984,249.977905 
	C198.976791,242.044601 199.044418,234.110306 198.924301,226.178864 
	C198.901962,224.704208 198.124466,223.240982 196.949417,221.548386 
M666.999939,586.385742 
	C666.619263,582.473877 666.355103,578.546631 665.838684,574.652771 
	C662.925842,552.692444 659.455688,530.790894 657.204407,508.764130 
	C656.039612,497.367706 656.999634,485.754120 656.999634,474.141876 
	C665.347656,472.671356 672.342896,471.092987 679.425842,470.265717 
	C692.894470,468.692596 705.480286,463.359344 719.574829,463.689423 
	C758.048767,464.590515 796.557739,464.006042 835.052795,463.993439 
	C842.129089,463.991119 844.355957,461.909363 844.985107,454.815430 
	C845.073120,453.823273 844.999451,452.816772 844.999451,451.816895 
	C844.999573,419.654327 844.999817,387.491791 844.998535,355.329224 
	C844.998474,353.996185 844.945801,352.662109 844.982300,351.330292 
	C845.140991,345.542542 843.997070,339.312653 845.752808,334.053436 
	C850.511597,319.798645 855.702148,305.569885 862.208801,292.046356 
	C870.561279,274.686096 871.875244,256.722198 868.792908,238.415146 
	C866.147522,222.703781 851.862549,215.386276 837.699829,218.092438 
	C833.093811,218.972534 829.238281,223.593002 828.983215,227.697769 
	C828.371521,237.542313 828.383911,247.496094 826.825317,257.193817 
	C824.798645,269.804199 821.492432,282.208862 818.741638,294.703094 
	C817.492126,300.378357 815.485046,306.017212 815.195740,311.742035 
	C814.790955,319.751343 815.250671,327.870392 816.104431,335.860870 
	C817.225769,346.356537 818.328796,356.958466 820.820190,367.178101 
	C824.234436,381.183136 828.945129,394.872101 833.321167,409.431885 
	C819.431458,409.431885 806.298584,409.431885 792.351990,409.431885 
	C789.696411,401.782043 786.914734,393.804291 784.157227,385.818237 
	C778.089417,368.245270 772.343872,350.553406 765.896729,333.120941 
	C757.413879,310.184357 748.651733,287.341492 739.461548,264.680664 
	C735.557861,255.055267 730.316650,245.966782 725.584229,236.684799 
	C721.683838,229.034866 717.637390,221.459442 713.758972,214.048340 
	C702.904907,221.137482 691.015320,221.097961 677.999939,221.058197 
	C677.999939,234.156494 679.014526,246.829834 677.759460,259.274292 
	C675.927795,277.436798 670.336182,294.757172 659.187378,309.552704 
	C654.324951,316.005646 647.585327,321.390045 639.002747,321.260010 
	C632.963440,321.168457 626.888611,319.065735 620.953491,317.415649 
	C610.459229,314.497955 600.170410,310.769287 589.584412,308.277222 
	C581.307861,306.328796 576.453247,309.389557 573.281799,318.418976 
	C571.639099,323.095947 575.906494,329.965027 581.850830,332.289734 
	C584.847900,333.461884 588.023621,334.215424 591.161377,334.983185 
	C603.577698,338.021240 615.922241,341.459656 628.467041,343.830902 
	C637.900208,345.613953 647.588684,346.630554 657.182190,346.778503 
	C663.710083,346.879181 670.736816,345.926086 675.875977,340.991669 
	C681.111633,335.964508 685.885864,330.456787 690.878601,325.141998 
	C692.303833,328.538971 693.488586,332.280762 695.351074,335.647675 
	C704.924438,352.954163 706.128662,371.464935 702.838440,390.384644 
	C701.474670,398.226898 699.330566,406.492462 691.676331,410.943054 
	C687.122192,413.591034 681.955994,415.330200 676.891907,416.930176 
	C661.972046,421.643982 646.701294,425.198517 632.761047,432.801758 
	C615.491943,442.220581 605.872131,455.850739 607.014099,476.043304 
	C607.255859,480.317383 607.814941,484.577515 607.939636,488.852478 
	C608.004517,491.074921 607.099426,493.334442 607.220825,495.544891 
	C607.684448,503.986450 608.354065,512.417419 609.008240,520.847595 
	C609.986084,533.447815 610.319519,546.149353 612.204590,558.614624 
	C614.427124,573.310852 617.752441,587.860840 621.093628,602.360413 
	C623.491760,612.767517 628.163696,621.189148 640.452393,623.099915 
	C649.895569,624.568237 667.956360,616.766907 667.969910,606.043762 
	C667.977844,599.798035 667.347961,593.551575 666.999939,586.385742 
M392.660919,275.999451 
	C405.914307,276.332611 419.167511,276.672485 432.421082,276.997131 
	C445.917542,277.327728 459.415802,277.594482 472.910248,277.991089 
	C477.842957,278.136047 482.765778,278.596710 487.695343,278.872925 
	C495.638489,279.318024 503.583466,279.729645 511.235870,280.139771 
	C503.998077,269.408356 496.994507,259.095612 490.095856,248.713104 
	C489.139832,247.274231 488.300323,245.540558 488.091827,243.858459 
	C486.943390,234.593811 485.947937,225.308716 485.026245,216.018112 
	C484.606689,211.788406 484.477325,207.529922 484.169800,202.527786 
	C452.359161,203.034500 420.820557,203.536880 389.885498,204.029648 
	C387.453491,228.064453 385.072723,251.592850 382.665894,275.378693 
	C385.468323,275.571198 388.585388,275.785339 392.660919,275.999451 
M462.949768,109.568237 
	C464.146729,108.693863 465.482117,107.958145 466.518921,106.923302 
	C475.292694,98.165932 480.962402,88.176323 482.232788,75.330505 
	C483.711761,60.375961 479.562134,48.060684 468.640625,38.093792 
	C455.299377,25.918629 439.175903,23.701876 422.288086,27.191679 
	C410.876129,29.549908 401.702972,35.863594 395.002167,46.005566 
	C389.739197,53.971306 388.211639,62.787846 387.322998,71.693748 
	C386.849457,76.440041 388.002228,81.869240 390.052155,86.221985 
	C392.965790,92.408592 396.924622,98.259026 401.254639,103.588699 
	C409.249603,113.429459 420.405090,117.430428 432.702026,117.901649 
	C443.270691,118.306633 453.225098,115.468781 462.949768,109.568237 
M341.000549,200.500153 
	C341.000549,210.934280 341.000549,221.368393 341.000549,231.837738 
	C317.458588,232.440781 297.564117,240.851089 278.593872,255.499435 
	C311.336365,255.499435 342.537109,255.499435 374.999451,255.499435 
	C374.999451,239.698853 374.963806,223.969910 375.014740,208.241272 
	C375.039581,200.570816 375.071533,193.947983 381.573120,187.078003 
	C392.744232,175.273926 401.421112,161.109421 411.233215,147.816254 
	C407.126953,139.182098 403.157013,130.627365 399.005096,122.161873 
	C394.723053,113.430946 387.057526,109.701149 380.100616,114.494362 
	C363.256744,126.099548 350.095306,140.609192 344.566071,160.899734 
	C341.118652,173.550720 340.686951,186.494507 341.000549,200.500153 
M241.328705,142.265823 
	C233.342407,131.815720 222.944962,126.332062 209.713470,124.741997 
	C195.157028,122.992714 181.860764,124.521698 170.361496,134.218109 
	C153.454132,148.474731 149.441193,172.393967 160.315430,190.251648 
	C169.612000,205.518509 186.620300,214.432312 206.293579,211.040710 
	C223.581192,208.060379 237.367706,200.394958 244.257141,183.281006 
	C249.834534,169.426254 250.408493,155.853424 241.328705,142.265823 
M689.108643,210.999176 
	C692.999207,209.845673 696.953918,208.871048 700.767334,207.502533 
	C709.527527,204.358780 717.058411,199.252670 721.967041,191.293961 
	C729.010132,179.874481 731.067444,167.608185 727.061462,154.420227 
	C724.125183,144.753769 719.034851,136.942123 710.287170,131.743805 
	C694.628723,122.438843 678.275024,121.725960 661.629578,128.520905 
	C650.748596,132.962708 643.025879,141.521118 639.335999,152.143555 
	C635.101257,164.334320 635.058167,177.030029 642.908142,188.688263 
	C648.039429,196.308792 653.894043,202.928299 662.384338,206.710449 
	C670.578064,210.360458 679.236206,211.682999 689.108643,210.999176 
M596.346008,275.053406 
	C590.817261,273.686951 585.284180,272.337708 579.760925,270.949402 
	C573.752686,269.439117 570.261475,270.804047 568.661377,276.470886 
	C567.072876,282.096527 566.701721,288.601990 572.056824,292.199188 
	C578.107239,296.263489 584.965820,299.479340 591.896423,301.799194 
	C603.520752,305.690247 615.588074,308.244110 627.265930,311.993164 
	C637.259155,315.201416 646.102356,312.693268 653.046509,306.140106 
	C666.627319,293.324127 674.781067,277.845520 670.960571,258.276550 
	C669.813904,252.403015 668.219482,246.616928 666.813965,240.722855 
	C655.627808,244.241547 650.365417,252.488617 646.097961,261.400482 
	C642.740234,268.412659 640.097229,275.771088 637.237305,283.015411 
	C636.222961,285.584900 634.975769,286.481903 632.016296,285.586853 
	C620.399170,282.073425 608.693115,278.854065 596.346008,275.053406 
M303.756226,291.222321 
	C304.557220,290.171936 305.579102,289.223785 306.120911,288.053406 
	C308.448090,283.026489 309.442932,277.760223 306.046448,272.939362 
	C303.885010,269.871521 299.973816,267.688446 292.768463,269.920074 
	C275.355103,275.313385 257.841003,280.381226 240.526718,285.532867 
	C236.276840,276.177094 231.749420,266.805420 227.752579,257.212708 
	C224.849594,250.245361 220.107117,245.222748 213.846832,241.319977 
	C211.117844,239.618668 209.366211,239.255585 208.945541,243.318680 
	C208.664444,246.033676 207.631088,248.668365 207.319870,251.383163 
	C206.483475,258.679199 204.148438,266.335419 205.509674,273.236938 
	C208.072983,286.233093 214.449966,297.834686 224.764252,306.790771 
	C230.166550,311.481659 236.330887,313.177185 243.248230,311.279297 
	C255.441727,307.933746 267.683289,304.715820 279.723724,300.876709 
	C287.703949,298.332245 295.368652,294.798401 303.756226,291.222321 
M547.263672,330.995422 
	C548.503296,330.662109 549.727417,330.248047 550.984802,330.007721 
	C567.039124,326.939575 573.178467,315.049988 566.910706,299.418488 
	C563.180115,290.114655 555.314514,285.314728 545.352783,285.105408 
	C535.884827,284.906494 528.963623,289.885010 525.373901,298.431122 
	C518.883179,313.883453 528.981689,330.296631 547.263672,330.995422 
M326.634430,331.998993 
	C334.238739,331.564667 340.921143,329.233398 345.825500,322.983459 
	C353.973450,312.600037 349.551178,297.649658 340.941376,291.207214 
	C331.175751,283.899933 316.924713,285.888702 309.224152,295.416046 
	C303.163177,302.914856 303.641144,316.401001 309.608124,323.879944 
	C313.884155,329.239471 319.873138,330.316071 326.634430,331.998993 
z"/>
<path fill="#000000" opacity="1.000000" stroke="none" 
	d="
M198.833267,250.888611 
	C198.867157,268.434326 203.699875,284.804108 211.083069,300.528503 
	C215.733810,310.433380 223.863968,316.684906 233.681595,320.659393 
	C235.875824,321.547668 239.099014,320.316193 241.733749,319.623993 
	C256.105133,315.848541 270.368744,311.632202 284.822479,308.215118 
	C290.972504,306.761169 297.072937,309.324585 298.934113,315.128235 
	C301.419189,322.877319 298.757751,328.932983 291.377777,330.891144 
	C280.945038,333.659271 270.313538,335.677856 259.767853,338.020721 
	C244.868088,341.330902 229.993820,344.763977 215.049896,347.861084 
	C211.868774,348.520355 208.392365,348.264130 205.141403,347.801514 
	C204.001205,347.639221 202.944275,345.701416 202.165771,344.386993 
	C198.038818,337.419006 194.012589,330.391418 189.494370,322.595825 
	C186.788376,329.389984 185.049957,334.756989 182.581711,339.764252 
	C175.162964,354.814514 175.724396,370.435425 179.174530,386.149078 
	C180.335709,391.437653 182.987564,396.403839 185.007004,401.497986 
	C188.322281,409.861023 195.071930,414.196838 203.164139,417.026855 
	C214.672272,421.051514 226.315689,424.761139 237.581863,429.383881 
	C247.130722,433.301941 256.381897,438.075104 263.028870,446.529083 
	C266.778564,451.298096 268.767242,456.788574 268.922363,462.712921 
	C269.196991,473.201141 269.778961,483.772400 268.836090,494.182404 
	C266.910492,515.442627 265.661957,536.732361 261.441681,557.839539 
	C258.189423,574.105164 254.817947,590.251221 249.966766,606.087830 
	C246.341324,617.923035 239.142380,623.343140 228.232086,622.967651 
	C217.065735,622.583374 206.693390,613.752441 203.902451,603.282715 
	C201.730438,595.134766 203.806351,587.418091 205.160934,579.584167 
	C207.038483,568.725647 209.244781,557.920776 210.947830,547.036255 
	C212.835022,534.974609 214.737076,522.887573 215.842300,510.739655 
	C216.800903,500.203491 216.737778,489.568512 216.950989,478.973694 
	C217.021194,475.485229 214.586060,473.705139 211.440109,473.109589 
	C195.197906,470.034668 178.942429,467.029358 162.681366,464.055634 
	C161.390350,463.819489 160.021652,464.000610 158.689056,464.000580 
	C119.539429,463.999207 80.389801,464.000031 41.240173,463.998840 
	C35.058426,463.998657 33.037010,462.000885 33.003952,455.842255 
	C32.989643,453.176575 33.011845,450.510651 33.398056,447.104065 
	C33.822048,415.554718 33.865448,384.746185 33.908848,353.937622 
	C37.908039,336.606049 30.176044,321.411194 24.879759,305.861176 
	C21.712280,296.561371 17.209625,287.720093 13.953821,278.445679 
	C10.315330,268.081146 11.982943,257.441040 13.515324,246.856216 
	C14.515235,239.949371 16.651320,233.700607 21.076233,228.173172 
	C29.512186,217.635284 43.373188,215.720291 54.736801,219.702576 
	C61.218189,221.973923 62.913727,231.077454 61.848576,236.455383 
	C57.616367,257.823669 59.604858,278.700714 65.667282,299.479279 
	C68.177834,308.084076 68.956329,316.980133 67.142830,326.067993 
	C65.332123,335.141937 64.902718,344.505951 62.869423,353.517548 
	C60.189816,365.393555 56.594864,377.066406 53.276756,388.793579 
	C51.599594,394.721130 49.918945,400.672272 47.735352,406.421082 
	C46.725040,409.080902 47.505276,409.928741 49.739426,409.948486 
	C60.567081,410.044281 71.400833,410.141449 82.218285,409.795624 
	C83.517677,409.754120 85.560822,407.173737 85.857986,405.518555 
	C89.389191,385.850067 92.650330,366.133148 95.990158,346.430267 
	C99.731155,324.360809 104.634834,302.536865 112.427284,281.549408 
	C114.780724,275.210907 119.573204,269.716034 123.571571,264.063324 
	C131.423767,252.962219 139.528412,242.040009 147.478531,231.007706 
	C152.563721,223.951035 157.559204,216.829727 162.111969,210.417587 
	C165.843658,212.563736 168.604492,214.954758 171.781387,215.822357 
	C180.073517,218.087006 188.547775,219.684723 197.414719,222.141998 
	C197.889389,224.564011 197.847641,226.394363 197.917023,228.220505 
	C198.204132,235.777237 198.524887,243.332687 198.833267,250.888611 
z"/>
<path fill="#000000" opacity="1.000000" stroke="none" 
	d="
M597.009644,611.847351 
	C601.144958,611.847351 605.280212,611.847351 609.999512,611.847351 
	C609.999512,622.988159 609.998108,633.741638 610.000122,644.495056 
	C610.001099,649.693848 610.615356,654.993774 609.772644,660.051392 
	C609.308472,662.836975 606.934265,666.571960 604.496887,667.531860 
	C595.988892,670.882324 587.215820,674.561951 578.274109,675.473022 
	C571.817078,676.130920 564.768005,673.062622 558.280823,670.801514 
	C550.565186,668.112061 550.540161,660.284790 551.088867,652.406494 
	C551.815857,641.967896 553.341797,631.577698 553.841919,621.134033 
	C554.052307,616.741455 555.370850,614.083435 559.102478,611.889587 
	C562.622620,609.819946 565.693665,606.986511 569.333374,603.849854 
	C569.749573,590.152832 569.794617,577.094910 569.879395,563.567627 
	C569.919128,504.773712 569.919128,446.449280 569.919128,388.062317 
	C545.331665,388.062317 521.545715,388.049316 497.759888,388.100952 
	C496.575348,388.103516 495.392029,388.667786 494.208191,388.970520 
	C494.144257,391.353333 494.080322,393.736145 494.017731,397.023529 
	C494.068176,414.618347 494.117310,431.308624 494.166443,447.998871 
	C494.116302,458.024017 494.066223,468.049194 494.017578,479.001221 
	C494.068146,499.951660 494.117279,519.975220 494.166412,539.998779 
	C491.303467,555.424500 487.387024,560.844299 473.510742,564.616638 
	C464.798462,566.985168 451.192535,560.426697 450.058533,547.024658 
	C450.080444,523.212830 450.041656,500.265686 449.995880,477.318542 
	C449.944519,451.546112 449.886810,425.773712 449.831848,400.001282 
	C449.417236,396.148285 449.002625,392.295288 448.541138,388.006653 
	C443.031403,388.006653 437.433685,387.938751 431.842590,388.099823 
	C431.204468,388.118195 430.603333,389.419342 429.582520,390.832520 
	C429.121857,392.199982 429.012756,392.860565 429.012878,393.521149 
	C429.021790,445.046570 429.039246,496.571991 429.056091,548.097412 
	C426.216309,558.076233 418.104553,564.770630 408.596588,564.982056 
	C399.272675,565.189331 389.638184,558.014343 387.180542,548.468323 
	C386.207581,544.689270 386.053040,540.620850 386.047119,536.683350 
	C385.974426,488.211609 385.999084,439.739777 385.988983,391.267944 
	C385.988831,390.632263 385.864105,389.996582 385.727417,388.690918 
	C359.917358,388.690918 334.236786,388.690918 308.016144,388.690918 
	C308.016144,402.880249 308.016144,417.477295 308.017578,433.001221 
	C308.068146,453.618347 308.117279,473.308624 308.166412,492.998871 
	C308.116394,494.068939 308.066376,495.138977 308.017700,497.068573 
	C308.068146,512.284973 308.117279,526.641907 308.166412,540.998779 
	C308.116364,542.391357 308.066345,543.783936 308.017670,546.052368 
	C308.068146,558.618408 308.117279,570.308594 308.166412,581.998779 
	C308.110779,588.658264 307.771423,595.334717 308.168152,601.967163 
	C308.291107,604.022095 309.939636,606.910706 311.701080,607.787354 
	C320.715729,612.273865 324.002686,618.820984 323.295685,629.101135 
	C322.602448,639.181091 324.347717,649.426880 324.993317,659.601746 
	C325.331573,664.933228 323.102509,668.466675 318.120880,670.825317 
	C303.245209,677.868530 288.613434,677.628906 274.149475,669.931885 
	C271.626709,668.589355 269.102966,666.792419 267.357941,664.588928 
	C265.959625,662.823425 265.092865,660.118042 265.110718,657.838501 
	C265.193726,647.250916 265.611298,636.664124 266.031525,626.081909 
	C266.174225,622.488220 266.516418,618.884705 267.052460,615.328674 
	C267.787079,610.454956 271.790863,611.994934 274.596283,612.104492 
	C278.582733,612.260132 280.742554,611.235352 280.430908,606.164307 
	C280.906494,596.035706 281.025330,586.598877 281.024628,577.161987 
	C281.021698,537.443909 280.983124,497.725861 281.032227,457.543121 
	C281.004425,444.727264 280.901886,432.376068 280.799377,420.024902 
	C280.565216,413.279785 280.168060,406.534790 280.162750,399.789490 
	C280.159912,396.184204 280.832855,392.578369 281.198090,388.999268 
	C269.541779,388.999268 258.412689,389.382812 247.325272,388.868347 
	C239.557266,388.507874 232.097076,386.220459 225.303940,382.075897 
	C220.228195,378.979187 215.094452,375.872589 208.806046,375.858795 
	C208.312744,375.857727 207.820999,375.141052 207.583542,374.955872 
	C217.662247,372.268921 227.723099,369.466431 237.856934,366.958862 
	C240.868759,366.213562 244.085403,366.040894 247.208557,366.038330 
	C309.336700,365.987671 371.464874,366.000519 433.593048,366.000519 
	C500.522980,366.000519 567.452881,366.025879 634.382812,365.969666 
	C643.122620,365.962311 650.512329,369.592957 657.770752,373.797394 
	C661.491150,375.952454 665.190430,378.143768 668.079956,379.838257 
	C661.375977,381.061401 652.866577,381.329407 645.389709,384.245117 
	C629.742249,390.346954 613.714966,386.964264 597.052246,388.305054 
	C596.201782,398.741302 596.189026,408.893616 596.089478,419.504456 
	C595.994873,442.236908 595.982361,464.510834 595.980469,486.784729 
	C595.976990,527.353333 595.971558,567.921936 596.023132,608.490479 
	C596.024597,609.609863 596.666443,610.728394 597.009644,611.847351 
z"/>
<path fill="#000000" opacity="1.000000" stroke="none" 
	d="
M667.002502,586.845581 
	C667.347961,593.551575 667.977844,599.798035 667.969910,606.043762 
	C667.956360,616.766907 649.895569,624.568237 640.452393,623.099915 
	C628.163696,621.189148 623.491760,612.767517 621.093628,602.360413 
	C617.752441,587.860840 614.427124,573.310852 612.204590,558.614624 
	C610.319519,546.149353 609.986084,533.447815 609.008240,520.847595 
	C608.354065,512.417419 607.684448,503.986450 607.220825,495.544891 
	C607.099426,493.334442 608.004517,491.074921 607.939636,488.852478 
	C607.814941,484.577515 607.255859,480.317383 607.014099,476.043304 
	C605.872131,455.850739 615.491943,442.220581 632.761047,432.801758 
	C646.701294,425.198517 661.972046,421.643982 676.891907,416.930176 
	C681.955994,415.330200 687.122192,413.591034 691.676331,410.943054 
	C699.330566,406.492462 701.474670,398.226898 702.838440,390.384644 
	C706.128662,371.464935 704.924438,352.954163 695.351074,335.647675 
	C693.488586,332.280762 692.303833,328.538971 690.878601,325.141998 
	C685.885864,330.456787 681.111633,335.964508 675.875977,340.991669 
	C670.736816,345.926086 663.710083,346.879181 657.182190,346.778503 
	C647.588684,346.630554 637.900208,345.613953 628.467041,343.830902 
	C615.922241,341.459656 603.577698,338.021240 591.161377,334.983185 
	C588.023621,334.215424 584.847900,333.461884 581.850830,332.289734 
	C575.906494,329.965027 571.639099,323.095947 573.281799,318.418976 
	C576.453247,309.389557 581.307861,306.328796 589.584412,308.277222 
	C600.170410,310.769287 610.459229,314.497955 620.953491,317.415649 
	C626.888611,319.065735 632.963440,321.168457 639.002747,321.260010 
	C647.585327,321.390045 654.324951,316.005646 659.187378,309.552704 
	C670.336182,294.757172 675.927795,277.436798 677.759460,259.274292 
	C679.014526,246.829834 677.999939,234.156494 677.999939,221.058197 
	C691.015320,221.097961 702.904907,221.137482 713.758972,214.048340 
	C717.637390,221.459442 721.683838,229.034866 725.584229,236.684799 
	C730.316650,245.966782 735.557861,255.055267 739.461548,264.680664 
	C748.651733,287.341492 757.413879,310.184357 765.896729,333.120941 
	C772.343872,350.553406 778.089417,368.245270 784.157227,385.818237 
	C786.914734,393.804291 789.696411,401.782043 792.351990,409.431885 
	C806.298584,409.431885 819.431458,409.431885 833.321167,409.431885 
	C828.945129,394.872101 824.234436,381.183136 820.820190,367.178101 
	C818.328796,356.958466 817.225769,346.356537 816.104431,335.860870 
	C815.250671,327.870392 814.790955,319.751343 815.195740,311.742035 
	C815.485046,306.017212 817.492126,300.378357 818.741638,294.703094 
	C821.492432,282.208862 824.798645,269.804199 826.825317,257.193817 
	C828.383911,247.496094 828.371521,237.542313 828.983215,227.697769 
	C829.238281,223.593002 833.093811,218.972534 837.699829,218.092438 
	C851.862549,215.386276 866.147522,222.703781 868.792908,238.415146 
	C871.875244,256.722198 870.561279,274.686096 862.208801,292.046356 
	C855.702148,305.569885 850.511597,319.798645 845.752808,334.053436 
	C843.997070,339.312653 845.140991,345.542542 844.982300,351.330292 
	C844.945801,352.662109 844.998474,353.996185 844.998535,355.329224 
	C844.999817,387.491791 844.999573,419.654327 844.999451,451.816895 
	C844.999451,452.816772 845.073120,453.823273 844.985107,454.815430 
	C844.355957,461.909363 842.129089,463.991119 835.052795,463.993439 
	C796.557739,464.006042 758.048767,464.590515 719.574829,463.689423 
	C705.480286,463.359344 692.894470,468.692596 679.425842,470.265717 
	C672.342896,471.092987 665.347656,472.671356 656.999634,474.141876 
	C656.999634,485.754120 656.039612,497.367706 657.204407,508.764130 
	C659.455688,530.790894 662.925842,552.692444 665.838684,574.652771 
	C666.355103,578.546631 666.619263,582.473877 667.002502,586.845581 
z"/>
<path fill="#000000" opacity="1.000000" stroke="none" 
	d="
M146.001038,470.166626 
	C149.729904,470.474274 153.677658,470.141998 157.110168,471.316071 
	C159.373245,472.090149 162.322647,474.916046 162.493805,477.023865 
	C163.131592,484.878906 162.748459,492.816803 162.748459,500.741943 
	C147.276031,500.741943 132.542206,500.741943 117.150154,500.968689 
	C116.353798,511.155457 116.215683,521.115479 116.077568,531.075500 
	C116.051575,536.629333 115.964836,542.184204 116.051636,547.736267 
	C116.068680,548.826294 116.756538,549.905823 117.836334,551.405396 
	C132.969604,551.877686 147.401520,551.946899 161.833496,551.956543 
	C162.555817,551.957031 163.278519,551.441711 164.001038,551.166626 
	C169.825089,551.111816 175.659958,550.854553 181.464539,551.164429 
	C182.698944,551.230347 184.826920,553.346619 184.845535,554.544678 
	C185.078308,569.527588 185.544632,584.547180 184.674057,599.482910 
	C184.403519,604.124390 185.743820,606.880249 187.845932,610.384644 
	C191.360077,616.243225 194.100662,622.621582 192.680618,629.749268 
	C191.018967,638.089600 184.102310,640.310791 177.186539,641.914185 
	C170.125351,643.551208 163.222031,642.297058 158.219727,636.850220 
	C155.637482,634.038452 154.741989,629.728821 152.814255,626.245422 
	C151.684692,624.204285 150.420074,621.530762 148.538544,620.726013 
	C134.975433,614.924866 121.417969,609.020264 107.514038,604.127991 
	C88.300652,597.367432 68.322609,594.881531 47.949883,596.036072 
	C46.374424,596.125366 44.828312,596.732544 43.142262,597.128662 
	C46.984646,605.634705 48.099926,613.903809 44.474510,622.742310 
	C41.294750,630.494385 27.963867,634.280151 20.563931,631.927490 
	C5.628872,627.179138 2.167821,606.855042 9.981600,596.355103 
	C12.972419,592.336121 16.878521,589.602356 21.946758,590.100586 
	C28.306744,590.725830 32.645508,588.499817 36.591850,583.471313 
	C47.878506,569.089722 63.907726,562.275696 80.775742,557.017456 
	C84.037651,556.000610 87.397194,555.165649 90.464462,553.721680 
	C91.656349,553.160522 92.163971,551.145813 92.982132,548.932495 
	C92.931831,533.048218 92.882698,518.024658 92.833557,503.001129 
	C92.071724,502.334167 91.317734,501.097443 90.546852,501.086823 
	C80.946648,500.954498 71.343987,501.000244 61.761681,501.000244 
	C59.403221,489.074615 61.396721,479.180817 71.095848,473.456696 
	C75.310547,470.969360 81.016296,470.792267 86.117203,470.096405 
	C89.707054,469.606598 93.419014,470.011780 97.807060,470.418945 
	C113.636131,470.877747 128.734573,470.946381 143.833069,470.956635 
	C144.555542,470.957123 145.278381,470.441772 146.001038,470.166626 
M167.517105,602.046631 
	C174.359863,600.935303 169.614929,597.003174 169.695282,594.403931 
	C162.423965,593.635315 155.443085,592.897400 148.361038,592.148743 
	C152.627151,597.317017 156.613205,602.146057 160.349884,606.672913 
	C162.610428,605.152161 164.721954,603.731628 167.517105,602.046631 
z"/>
<path fill="#000000" opacity="1.000000" stroke="none" 
	d="
M758.926636,501.079712 
	C744.206787,501.052917 729.485840,500.922211 714.767761,501.072021 
	C711.065125,501.109711 709.740234,499.951782 709.935974,496.233856 
	C710.197205,491.273346 709.946655,486.288055 710.015320,481.314758 
	C710.089111,475.968628 714.141296,471.660309 719.497681,470.980865 
	C721.078003,470.780426 722.628662,470.345764 724.867310,470.420013 
	C748.726013,470.862854 771.910339,470.904114 795.094604,470.945404 
	C804.859619,471.611206 811.369324,478.728851 811.966980,489.597687 
	C812.166138,493.219299 811.998413,496.861053 811.998413,501.333862 
	C802.871338,501.333862 794.050659,501.333862 785.103638,501.333862 
	C780.840210,518.730103 784.363708,535.757874 782.355896,553.358337 
	C784.037170,553.835815 786.166687,554.317078 788.210510,555.040527 
	C805.026917,560.993347 822.028198,566.608337 835.143738,579.629395 
	C835.835327,580.315979 836.661011,580.911133 837.198669,581.702209 
	C841.166016,587.538757 846.524719,590.241638 853.660583,591.184937 
	C864.050842,592.558411 867.642822,602.180115 867.240662,610.770386 
	C866.935486,617.290405 866.036255,623.092896 860.853455,627.719177 
	C852.805054,634.903320 837.043396,635.439026 831.550415,627.866760 
	C824.749268,618.490967 823.332397,606.928040 831.697266,596.354492 
	C819.211243,594.282288 807.033691,595.169922 794.665039,596.789062 
	C779.192566,598.814453 764.308716,602.732605 749.918396,608.400635 
	C740.553284,612.089294 731.607117,616.891357 722.667236,621.565674 
	C720.973816,622.451050 719.680481,624.924133 719.070618,626.928711 
	C714.415771,642.228882 697.567505,643.472412 687.494507,634.274536 
	C678.008911,625.612976 678.399597,615.582458 686.859497,605.950317 
	C688.199036,604.425171 688.883057,601.834534 688.909180,599.724548 
	C689.084778,585.563904 689.000488,571.400024 689.000488,557.237183 
	C689.000488,555.615662 689.000488,553.994080 689.000488,551.017273 
	C700.987976,551.017273 712.530212,551.017273 724.804993,551.418945 
	C735.859802,551.878296 746.182007,551.960327 756.504211,551.948303 
	C757.351440,551.947327 758.197876,551.306519 759.044678,550.963013 
	C759.044678,550.963013 758.960022,550.956665 759.322388,550.769531 
	C759.831665,534.828186 759.995117,519.074036 760.073608,503.319519 
	C760.077332,502.574829 759.326172,501.826416 758.926636,501.079712 
M720.321045,593.164612 
	C715.074707,593.442749 709.828308,593.720886 704.119873,594.023560 
	C701.855591,598.572021 702.493225,600.243591 707.591003,602.667236 
	C709.764221,603.700439 711.666382,605.303650 713.362366,606.429199 
	C716.618408,602.078796 719.985168,597.580444 723.407227,593.008240 
	C722.716492,593.008240 721.922119,593.008240 720.321045,593.164612 
z"/>
<path fill="#000000" opacity="1.000000" stroke="none" 
	d="
M392.181702,275.999451 
	C388.585388,275.785339 385.468323,275.571198 382.665894,275.378693 
	C385.072723,251.592850 387.453491,228.064453 389.885498,204.029648 
	C420.820557,203.536880 452.359161,203.034500 484.169800,202.527786 
	C484.477325,207.529922 484.606689,211.788406 485.026245,216.018112 
	C485.947937,225.308716 486.943390,234.593811 488.091827,243.858459 
	C488.300323,245.540558 489.139832,247.274231 490.095856,248.713104 
	C496.994507,259.095612 503.998077,269.408356 511.235870,280.139771 
	C503.583466,279.729645 495.638489,279.318024 487.695343,278.872925 
	C482.765778,278.596710 477.842957,278.136047 472.910248,277.991089 
	C459.415802,277.594482 445.917542,277.327728 432.421082,276.997131 
	C419.167511,276.672485 405.914307,276.332611 392.181702,275.999451 
z"/>
<path fill="#000000" opacity="1.000000" stroke="none" 
	d="
M462.656189,109.793434 
	C453.225098,115.468781 443.270691,118.306633 432.702026,117.901649 
	C420.405090,117.430428 409.249603,113.429459 401.254639,103.588699 
	C396.924622,98.259026 392.965790,92.408592 390.052155,86.221985 
	C388.002228,81.869240 386.849457,76.440041 387.322998,71.693748 
	C388.211639,62.787846 389.739197,53.971306 395.002167,46.005566 
	C401.702972,35.863594 410.876129,29.549908 422.288086,27.191679 
	C439.175903,23.701876 455.299377,25.918629 468.640625,38.093792 
	C479.562134,48.060684 483.711761,60.375961 482.232788,75.330505 
	C480.962402,88.176323 475.292694,98.165932 466.518921,106.923302 
	C465.482117,107.958145 464.146729,108.693863 462.656189,109.793434 
z"/>
<path fill="#000000" opacity="1.000000" stroke="none" 
	d="
M341.000549,200.000214 
	C340.686951,186.494507 341.118652,173.550720 344.566071,160.899734 
	C350.095306,140.609192 363.256744,126.099548 380.100616,114.494362 
	C387.057526,109.701149 394.723053,113.430946 399.005096,122.161873 
	C403.157013,130.627365 407.126953,139.182098 411.233215,147.816254 
	C401.421112,161.109421 392.744232,175.273926 381.573120,187.078003 
	C375.071533,193.947983 375.039581,200.570816 375.014740,208.241272 
	C374.963806,223.969910 374.999451,239.698853 374.999451,255.499435 
	C342.537109,255.499435 311.336365,255.499435 278.593872,255.499435 
	C297.564117,240.851089 317.458588,232.440781 341.000549,231.837738 
	C341.000549,221.368393 341.000549,210.934280 341.000549,200.000214 
z"/>
<path fill="#000000" opacity="1.000000" stroke="none" 
	d="
M518.929504,255.078857 
	C505.998260,254.757675 505.797699,254.816818 502.052795,242.116196 
	C499.676422,234.056702 497.909271,225.810822 496.069641,217.603516 
	C495.433807,214.766983 496.331482,212.472855 499.936005,213.025406 
	C504.499664,213.725006 505.514404,211.325989 504.992493,207.504303 
	C504.243866,202.022766 503.440094,196.548767 502.618469,190.780991 
	C500.639587,190.780991 498.567566,190.780991 496.689880,190.780991 
	C489.288574,176.668686 482.636200,162.180435 474.244446,148.781586 
	C470.334351,142.538528 472.050385,138.645050 474.766907,133.598038 
	C476.374115,130.611969 477.695129,127.403427 478.654999,124.150406 
	C481.351532,115.011658 495.044952,112.597832 502.955841,118.260391 
	C521.700500,131.677673 533.607910,149.657013 536.592834,172.159622 
	C538.590881,187.222977 536.932617,202.761459 537.084534,218.085617 
	C537.129089,222.585663 537.768982,227.079819 538.152893,231.782959 
	C561.107666,232.625320 581.153748,240.909729 599.818787,255.991180 
	C585.323059,255.991180 572.057861,255.991180 558.019958,255.674164 
	C544.474670,255.264374 531.702087,255.171616 518.929504,255.078857 
z"/>
<path fill="#000000" opacity="1.000000" stroke="none" 
	d="
M241.536682,142.567841 
	C250.408493,155.853424 249.834534,169.426254 244.257141,183.281006 
	C237.367706,200.394958 223.581192,208.060379 206.293579,211.040710 
	C186.620300,214.432312 169.612000,205.518509 160.315430,190.251648 
	C149.441193,172.393967 153.454132,148.474731 170.361496,134.218109 
	C181.860764,124.521698 195.157028,122.992714 209.713470,124.741997 
	C222.944962,126.332062 233.342407,131.815720 241.536682,142.567841 
z"/>
<path fill="#000000" opacity="1.000000" stroke="none" 
	d="
M688.648926,210.999283 
	C679.236206,211.682999 670.578064,210.360458 662.384338,206.710449 
	C653.894043,202.928299 648.039429,196.308792 642.908142,188.688263 
	C635.058167,177.030029 635.101257,164.334320 639.335999,152.143555 
	C643.025879,141.521118 650.748596,132.962708 661.629578,128.520905 
	C678.275024,121.725960 694.628723,122.438843 710.287170,131.743805 
	C719.034851,136.942123 724.125183,144.753769 727.061462,154.420227 
	C731.067444,167.608185 729.010132,179.874481 721.967041,191.293961 
	C717.058411,199.252670 709.527527,204.358780 700.767334,207.502533 
	C696.953918,208.871048 692.999207,209.845673 688.648926,210.999283 
z"/>
<path fill="#000000" opacity="1.000000" stroke="none" 
	d="
M596.683044,275.289429 
	C608.693115,278.854065 620.399170,282.073425 632.016296,285.586853 
	C634.975769,286.481903 636.222961,285.584900 637.237305,283.015411 
	C640.097229,275.771088 642.740234,268.412659 646.097961,261.400482 
	C650.365417,252.488617 655.627808,244.241547 666.813965,240.722855 
	C668.219482,246.616928 669.813904,252.403015 670.960571,258.276550 
	C674.781067,277.845520 666.627319,293.324127 653.046509,306.140106 
	C646.102356,312.693268 637.259155,315.201416 627.265930,311.993164 
	C615.588074,308.244110 603.520752,305.690247 591.896423,301.799194 
	C584.965820,299.479340 578.107239,296.263489 572.056824,292.199188 
	C566.701721,288.601990 567.072876,282.096527 568.661377,276.470886 
	C570.261475,270.804047 573.752686,269.439117 579.760925,270.949402 
	C585.284180,272.337708 590.817261,273.686951 596.683044,275.289429 
z"/>
<path fill="#000000" opacity="1.000000" stroke="none" 
	d="
M303.465424,291.464905 
	C295.368652,294.798401 287.703949,298.332245 279.723724,300.876709 
	C267.683289,304.715820 255.441727,307.933746 243.248230,311.279297 
	C236.330887,313.177185 230.166550,311.481659 224.764252,306.790771 
	C214.449966,297.834686 208.072983,286.233093 205.509674,273.236938 
	C204.148438,266.335419 206.483475,258.679199 207.319870,251.383163 
	C207.631088,248.668365 208.664444,246.033676 208.945541,243.318680 
	C209.366211,239.255585 211.117844,239.618668 213.846832,241.319977 
	C220.107117,245.222748 224.849594,250.245361 227.752579,257.212708 
	C231.749420,266.805420 236.276840,276.177094 240.526718,285.532867 
	C257.841003,280.381226 275.355103,275.313385 292.768463,269.920074 
	C299.973816,267.688446 303.885010,269.871521 306.046448,272.939362 
	C309.442932,277.760223 308.448090,283.026489 306.120911,288.053406 
	C305.579102,289.223785 304.557220,290.171936 303.465424,291.464905 
z"/>
<path fill="#000000" opacity="1.000000" stroke="none" 
	d="
M502.833008,310.787354 
	C500.881104,314.850555 499.276520,319.130615 496.903748,322.931061 
	C492.209290,330.450134 487.151276,337.746643 482.076019,345.018219 
	C481.376678,346.020203 479.722443,346.913940 478.508270,346.916504 
	C450.204956,346.976654 421.901306,346.907196 393.597778,346.848541 
	C393.491669,346.848328 393.385956,346.658569 392.549011,345.858337 
	C396.055054,340.753754 399.364136,335.276062 403.330017,330.324310 
	C408.611633,323.729736 414.386108,317.528198 420.007172,311.209686 
	C420.538483,310.612457 421.485352,310.384918 423.078674,309.994843 
	C448.487762,309.931915 473.057495,309.839386 497.627228,309.831512 
	C499.362396,309.830963 501.097748,310.454193 502.833008,310.787354 
M475.776276,325.329376 
	C472.176697,325.711243 468.407379,326.927277 465.025513,326.239136 
	C461.678070,325.557983 460.657990,326.527985 460.020996,329.214996 
	C459.668793,330.700592 459.457520,332.219635 459.160736,333.843903 
	C465.274963,334.184052 471.434052,335.489441 474.021576,327.845184 
	C474.257263,327.148895 475.145447,326.673492 475.776276,325.329376 
M440.321716,322.974243 
	C438.295532,322.697205 436.269348,322.420135 434.463226,322.173187 
	C432.674286,323.841919 430.838440,325.554413 428.189056,328.025757 
	C432.240509,328.025757 435.305817,328.030365 438.371124,328.024719 
	C443.374695,328.015503 443.374695,328.012695 444.527313,322.974213 
	C443.380646,322.974213 442.233978,322.974213 440.321716,322.974243 
z"/>
<path fill="#000000" opacity="1.000000" stroke="none" 
	d="
M398.001068,190.166412 
	C396.748779,190.258362 395.496460,190.350311 392.824158,190.546509 
	C395.634125,186.170532 397.995178,182.267380 400.577637,178.516693 
	C406.920654,169.304306 413.523743,160.264557 419.601288,150.882706 
	C420.526245,149.454865 419.205383,146.572174 418.801910,143.411819 
	C424.594696,139.184509 416.474609,133.929672 418.391907,127.993423 
	C432.596863,130.279037 447.104706,131.426483 462.696625,127.662773 
	C459.734192,137.451080 457.045349,146.335129 454.356720,155.219238 
	C451.218170,165.590027 447.989105,175.934738 444.991852,186.346207 
	C443.976013,189.874908 442.269409,191.438232 438.409760,191.083694 
	C434.279999,190.704330 430.089325,190.988235 425.223694,190.550446 
	C415.681763,190.134293 406.841431,190.150345 398.001068,190.166412 
z"/>
<path fill="#000000" opacity="1.000000" stroke="none" 
	d="
M546.832764,330.997253 
	C528.981689,330.296631 518.883179,313.883453 525.373901,298.431122 
	C528.963623,289.885010 535.884827,284.906494 545.352783,285.105408 
	C555.314514,285.314728 563.180115,290.114655 566.910706,299.418488 
	C573.178467,315.049988 567.039124,326.939575 550.984802,330.007721 
	C549.727417,330.248047 548.503296,330.662109 546.832764,330.997253 
z"/>
<path fill="#000000" opacity="1.000000" stroke="none" 
	d="
M326.199158,331.997223 
	C319.873138,330.316071 313.884155,329.239471 309.608124,323.879944 
	C303.641144,316.401001 303.163177,302.914856 309.224152,295.416046 
	C316.924713,285.888702 331.175751,283.899933 340.941376,291.207214 
	C349.551178,297.649658 353.973450,312.600037 345.825500,322.983459 
	C340.921143,329.233398 334.238739,331.564667 326.199158,331.997223 
z"/>
<path fill="#000000" opacity="1.000000" stroke="none" 
	d="
M456.166931,190.034515 
	C457.444061,185.575073 458.713104,181.113312 460.000153,176.656738 
	C462.134003,169.267960 464.279419,161.882538 466.478027,154.295349 
	C472.364777,166.011963 478.170319,177.566971 483.447052,189.524078 
	C474.001129,189.962311 465.084015,189.998413 456.166931,190.034515 
z"/>
<path fill="#909090" opacity="1.000000" stroke="none" 
	d="
M494.662842,388.987213 
	C495.392029,388.667786 496.575348,388.103516 497.759888,388.100952 
	C521.545715,388.049316 545.331665,388.062317 569.919128,388.062317 
	C569.919128,446.449280 569.919128,504.773712 569.711304,563.558838 
	C569.503479,564.019531 569.167236,564.005859 569.167236,564.005859 
	C569.107544,554.356262 568.996948,544.706726 568.996826,535.057129 
	C568.996216,489.287384 569.025757,443.517609 569.044312,397.747864 
	C569.045349,395.096313 569.044434,392.444733 569.044434,389.003906 
	C544.208191,389.003906 519.662903,389.003906 494.662842,388.987213 
z"/>
<path fill="#B8B8B8" opacity="1.000000" stroke="none" 
	d="
M597.006836,611.388367 
	C596.666443,610.728394 596.024597,609.609863 596.023132,608.490479 
	C595.971558,567.921936 595.976990,527.353333 595.980469,486.784729 
	C595.982361,464.510834 595.994873,442.236908 596.253723,419.505890 
	C596.504883,419.048767 596.833435,419.052979 596.833435,419.052979 
	C596.889709,441.536285 596.980347,464.019592 596.994873,486.502930 
	C597.021545,527.978394 597.003479,569.453918 597.006836,611.388367 
z"/>
<path fill="#808080" opacity="1.000000" stroke="none" 
	d="
M429.376343,547.808228 
	C429.039246,496.571991 429.021790,445.046570 429.012878,393.521149 
	C429.012756,392.860565 429.121857,392.199982 429.506622,391.270020 
	C429.888641,413.434601 429.970367,435.868469 429.992737,458.302429 
	C430.020569,486.224243 430.005066,514.146118 429.986420,542.067932 
	C429.985199,543.885010 429.797546,545.702026 429.376343,547.808228 
z"/>
<path fill="#6C7680" opacity="1.000000" stroke="none" 
	d="
M280.957581,458.007812 
	C280.983124,497.725861 281.021698,537.443909 281.024628,577.161987 
	C281.025330,586.598877 280.906494,596.035706 280.514740,605.742920 
	C280.138245,570.369080 280.081818,534.724976 280.045166,499.080811 
	C280.031433,485.752960 280.063751,472.425018 280.330719,458.597260 
	C280.586365,458.097382 280.957581,458.007812 280.957581,458.007812 
z"/>
<path fill="#818181" opacity="1.000000" stroke="none" 
	d="
M449.506104,400.271637 
	C449.886810,425.773712 449.944519,451.546112 449.995880,477.318542 
	C450.041656,500.265686 450.080444,523.212830 450.032715,546.628235 
	C449.629150,545.698303 449.042053,544.300415 449.040771,542.901917 
	C448.996918,495.943848 449.008423,448.985748 449.019745,402.027618 
	C449.019867,401.532410 449.124481,401.037201 449.506104,400.271637 
z"/>
<path fill="#959595" opacity="1.000000" stroke="none" 
	d="
M33.581108,354.214569 
	C33.865448,384.746185 33.822048,415.554718 33.472672,446.641724 
	C33.195583,416.110596 33.224480,385.301056 33.581108,354.214569 
z"/>
<path fill="#B7B7B7" opacity="1.000000" stroke="none" 
	d="
M502.840118,310.376434 
	C501.097748,310.454193 499.362396,309.830963 497.627228,309.831512 
	C473.057495,309.839386 448.487762,309.931915 423.453247,309.927002 
	C424.042084,309.566315 425.095306,309.036530 426.149353,309.034912 
	C450.707428,308.997437 475.265686,309.005981 499.823730,309.065918 
	C500.832306,309.068359 501.839417,309.652405 502.840118,310.376434 
z"/>
<path fill="#7D8181" opacity="1.000000" stroke="none" 
	d="
M794.805298,470.625641 
	C771.910339,470.904114 748.726013,470.862854 725.271423,470.495422 
	C748.172729,470.214783 771.344360,470.260345 794.805298,470.625641 
z"/>
<path fill="#C0C0C0" opacity="1.000000" stroke="none" 
	d="
M494.488312,539.723633 
	C494.117279,519.975220 494.068146,499.951660 494.092712,479.464600 
	C494.440979,479.727753 494.955658,480.454559 494.955078,481.180969 
	C494.939148,500.603516 494.870209,520.026062 494.488312,539.723633 
z"/>
<path fill="#C0C0C0" opacity="1.000000" stroke="none" 
	d="
M308.488281,492.723755 
	C308.117279,473.308624 308.068146,453.618347 308.092712,433.464600 
	C308.441010,433.727692 308.955719,434.454498 308.955139,435.180817 
	C308.939301,454.270111 308.870178,473.359344 308.488281,492.723755 
z"/>
<path fill="#C0C0C0" opacity="1.000000" stroke="none" 
	d="
M494.488312,447.723755 
	C494.117310,431.308624 494.068176,414.618347 494.092712,397.464600 
	C494.440979,397.727142 494.955475,398.453369 494.954834,399.179138 
	C494.940948,415.268982 494.870148,431.358795 494.488312,447.723755 
z"/>
<path fill="#8E8E8E" opacity="1.000000" stroke="none" 
	d="
M758.974731,501.541138 
	C759.326172,501.826416 760.077332,502.574829 760.073608,503.319519 
	C759.995117,519.074036 759.831665,534.828186 759.313477,550.811035 
	C758.968994,534.693909 758.995911,518.348267 758.974731,501.541138 
z"/>
<path fill="#808080" opacity="1.000000" stroke="none" 
	d="
M145.537384,470.100647 
	C145.278381,470.441772 144.555542,470.957123 143.833069,470.956635 
	C128.734573,470.946381 113.636131,470.877747 98.268394,470.493652 
	C113.690651,470.122681 129.382187,470.078674 145.537384,470.100647 
z"/>
<path fill="#C0C0C0" opacity="1.000000" stroke="none" 
	d="
M92.511673,503.276276 
	C92.882698,518.024658 92.931831,533.048218 92.907257,548.535278 
	C92.559013,548.273193 92.044708,547.547363 92.045334,546.822021 
	C92.057816,532.398438 92.129837,517.974915 92.511673,503.276276 
z"/>
<path fill="#808080" opacity="1.000000" stroke="none" 
	d="
M163.537384,551.100586 
	C163.278519,551.441711 162.555817,551.957031 161.833496,551.956543 
	C147.401520,551.946899 132.969604,551.877686 118.268387,551.493591 
	C133.023987,551.122620 148.048843,551.078613 163.537384,551.100586 
z"/>
<path fill="#C0C0C0" opacity="1.000000" stroke="none" 
	d="
M308.488312,540.723633 
	C308.117279,526.641907 308.068146,512.284973 308.092712,497.464600 
	C308.440948,497.726562 308.955139,498.452209 308.954529,499.177368 
	C308.942719,512.934448 308.870148,526.691467 308.488312,540.723633 
z"/>
<path fill="#B2B2B2" opacity="1.000000" stroke="none" 
	d="
M569.100708,564.469666 
	C569.167236,564.005859 569.503479,564.019531 569.671570,564.028320 
	C569.794617,577.094910 569.749573,590.152832 569.435669,603.508606 
	C569.122681,590.848816 569.078491,577.891174 569.100708,564.469666 
z"/>
<path fill="#8B8F8F" opacity="1.000000" stroke="none" 
	d="
M519.210571,255.403061 
	C531.702087,255.171616 544.474670,255.264374 557.542358,255.637329 
	C545.055481,255.854126 532.273560,255.790695 519.210571,255.403061 
z"/>
<path fill="#8D8D8D" opacity="1.000000" stroke="none" 
	d="
M281.032257,457.543121 
	C280.957581,458.007812 280.586365,458.097382 280.401031,458.145752 
	C280.198883,445.654755 280.182068,433.115356 280.482300,420.300446 
	C280.901886,432.376068 281.004425,444.727264 281.032257,457.543121 
z"/>
<path fill="#C0C0C0" opacity="1.000000" stroke="none" 
	d="
M308.488312,581.723633 
	C308.117279,570.308594 308.068146,558.618408 308.092712,546.464722 
	C308.443939,548.713013 308.944946,551.423706 308.958221,554.136780 
	C309.002686,563.240295 308.873138,572.344543 308.488312,581.723633 
z"/>
<path fill="#808080" opacity="1.000000" stroke="none" 
	d="
M758.572998,550.978271 
	C758.197876,551.306519 757.351440,551.947327 756.504211,551.948303 
	C746.182007,551.960327 735.859802,551.878296 725.268311,551.493652 
	C736.033142,551.108948 747.067200,551.051270 758.572998,550.978271 
z"/>
<path fill="#939393" opacity="1.000000" stroke="none" 
	d="
M596.903809,418.583893 
	C596.833435,419.052979 596.504883,419.048767 596.340576,419.047333 
	C596.189026,408.893616 596.201782,398.741302 596.590271,388.401855 
	C596.968811,398.181427 596.971558,408.148102 596.903809,418.583893 
z"/>
<path fill="#8D8D8D" opacity="1.000000" stroke="none" 
	d="
M116.401314,530.793457 
	C116.215683,521.115479 116.353798,511.155457 116.859314,500.907166 
	C117.059494,510.583038 116.892281,520.547180 116.401314,530.793457 
z"/>
<path fill="#9D9D9D" opacity="1.000000" stroke="none" 
	d="
M198.903625,250.433258 
	C198.524887,243.332687 198.204132,235.777237 197.917023,228.220505 
	C197.847641,226.394363 197.889389,224.564011 197.787750,222.254044 
	C198.124466,223.240982 198.901962,224.704208 198.924301,226.178864 
	C199.044418,234.110306 198.976791,242.044601 198.903625,250.433258 
z"/>
<path fill="#898989" opacity="1.000000" stroke="none" 
	d="
M456.356812,190.409195 
	C465.084015,189.998413 474.001129,189.962311 483.375427,189.891815 
	C483.029663,190.227676 482.227448,190.917084 481.423645,190.918900 
	C473.131470,190.937637 464.839050,190.845306 456.356812,190.409195 
z"/>
<path fill="#C0C0C0" opacity="1.000000" stroke="none" 
	d="
M398.276215,190.488312 
	C406.841431,190.150345 415.681763,190.134293 424.760986,190.475433 
	C416.183685,190.825134 407.367523,190.817673 398.276215,190.488312 
z"/>
<path fill="#F7F708" opacity="1.000000" stroke="none" 
	d="
M167.175293,602.178833 
	C164.721954,603.731628 162.610428,605.152161 160.349884,606.672913 
	C156.613205,602.146057 152.627151,597.317017 148.361038,592.148743 
	C155.443085,592.897400 162.423965,593.635315 169.695282,594.403931 
	C169.614929,597.003174 174.359863,600.935303 167.175293,602.178833 
z"/>
<path fill="#F9F906" opacity="1.000000" stroke="none" 
	d="
M720.724365,593.086426 
	C721.922119,593.008240 722.716492,593.008240 723.407227,593.008240 
	C719.985168,597.580444 716.618408,602.078796 713.362366,606.429199 
	C711.666382,605.303650 709.764221,603.700439 707.591003,602.667236 
	C702.493225,600.243591 701.855591,598.572021 704.119873,594.023560 
	C709.828308,593.720886 715.074707,593.442749 720.724365,593.086426 
z"/>
<path fill="#FAFA05" opacity="1.000000" stroke="none" 
	d="
M475.753479,325.712463 
	C475.145447,326.673492 474.257263,327.148895 474.021576,327.845184 
	C471.434052,335.489441 465.274963,334.184052 459.160736,333.843903 
	C459.457520,332.219635 459.668793,330.700592 460.020996,329.214996 
	C460.657990,326.527985 461.678070,325.557983 465.025513,326.239136 
	C468.407379,326.927277 472.176697,325.711243 475.753479,325.712463 
z"/>
<path fill="#F1F10E" opacity="1.000000" stroke="none" 
	d="
M440.704529,322.974243 
	C442.233978,322.974213 443.380646,322.974213 444.527313,322.973572 
	C443.374695,328.012695 443.374695,328.015503 438.371124,328.024719 
	C435.305817,328.030365 432.240509,328.025757 428.189056,328.025757 
	C430.838440,325.554413 432.674286,323.841919 434.463226,322.173187 
	C436.269348,322.420135 438.295532,322.697205 440.704529,322.974243 
z"/>
</svg>