<svg version="1.1" id="Layer_1" xmlns="http://www.w3.org/2000/svg" xmlns:xlink="http://www.w3.org/1999/xlink" x="0px" y="0px"
	 width="100%" viewBox="0 0 587 470" enable-background="new 0 0 587 470" xml:space="preserve">
<path fill="#FDFDFD" opacity="1.000000" stroke="none" 
	d="
M347.000000,471.000000 
	C231.360550,471.000000 116.221100,471.000000 1.040826,471.000000 
	C1.040826,314.397583 1.040826,157.795151 1.040826,1.096364 
	C196.556137,1.096364 392.112335,1.096364 587.834229,1.096364 
	C587.834229,157.666519 587.834229,314.333252 587.834229,471.000000 
	C507.795074,471.000000 427.647552,471.000000 347.000000,471.000000 
M473.834015,143.775116 
	C473.834015,143.775116 473.725739,143.618301 472.995209,143.723862 
	C471.011719,144.521820 469.028229,145.319794 466.262482,146.025650 
	C465.513885,146.239777 464.765259,146.453918 463.501129,146.423187 
	C463.006714,146.631073 462.512299,146.838943 461.172424,146.851639 
	C459.194092,146.906479 457.097870,146.581329 455.277802,147.146179 
	C454.008423,147.540131 452.257507,149.109695 452.200165,150.229797 
	C451.880554,156.472580 452.012207,162.738449 451.686554,169.546310 
	C451.734802,170.369446 451.783051,171.192581 451.472839,172.794617 
	C451.341644,174.205124 451.210449,175.615646 450.564697,177.512741 
	C449.675995,179.250626 451.124573,182.848557 447.014099,181.224167 
	C447.101288,179.488663 447.188477,177.753174 447.542023,175.365387 
	C447.160797,174.300888 446.779572,173.236389 446.606506,171.479492 
	C446.336823,170.321198 446.067139,169.162918 445.925995,167.431839 
	C445.625977,166.951202 445.325989,166.470551 445.150970,165.235931 
	C444.990540,164.493958 444.830139,163.751968 444.825623,162.313919 
	C442.291748,157.499954 440.870575,162.211304 438.387634,163.083267 
	C437.544678,163.925873 436.701752,164.768463 435.290222,165.898987 
	C434.857727,166.598450 434.425232,167.297913 433.399628,168.232040 
	C432.821991,169.559036 432.244354,170.886032 431.053070,172.614380 
	C430.023132,175.075989 428.993195,177.537598 427.562042,180.444122 
	C427.267212,181.368637 426.972382,182.293152 426.130829,183.689743 
	C425.448364,185.460403 424.765900,187.231049 423.596222,189.473694 
	C422.724976,189.666672 421.853760,189.859634 420.490997,189.623550 
	C419.659851,189.455582 418.828735,189.287628 417.446625,188.754517 
	C416.578064,188.694763 415.709503,188.635010 414.467926,188.038071 
	C413.639893,187.918533 412.811829,187.798996 411.377655,187.274567 
	C410.900543,187.236694 410.423462,187.198822 409.652313,186.653503 
	C409.098480,186.546921 408.544647,186.440338 407.341400,185.990891 
	C405.493134,185.541077 403.644836,185.091278 401.432983,184.104935 
	C400.616608,183.969147 399.800262,183.833359 398.412018,183.229477 
	C397.931091,183.182068 397.450165,183.134644 396.715973,182.546478 
	C396.140747,182.480988 395.565521,182.415497 394.379761,182.027313 
	C393.925476,182.002243 393.471161,181.977188 392.682068,181.455887 
	C392.120392,181.351288 391.558746,181.246704 390.370148,180.803406 
	C389.228302,180.591812 388.086426,180.380219 386.441040,179.703888 
	C384.761230,180.072433 383.081451,180.440979 381.119751,180.800385 
	C381.119751,180.800385 381.001465,181.056396 380.347504,181.268539 
	C379.901093,182.512054 379.454712,183.755554 378.770111,185.474609 
	C378.826385,185.642715 378.882660,185.810837 378.634064,186.421326 
	C378.745087,187.285110 378.856140,188.148911 378.812805,189.529144 
	C378.901306,189.685501 378.989807,189.841873 378.984436,190.599823 
	C379.283997,191.082397 379.583588,191.564957 379.983093,192.740417 
	C382.012482,194.087845 384.041901,195.435272 386.442383,197.367950 
	C387.962250,197.877777 389.482147,198.387604 391.647614,199.260635 
	C393.788727,199.767624 395.929810,200.274612 398.388672,201.261429 
	C398.929596,201.374985 399.470551,201.488556 400.710480,201.958801 
	C404.152863,202.936508 407.595276,203.914215 411.333588,205.395767 
	C411.892120,205.487183 412.450653,205.578598 413.602783,206.035583 
	C414.060577,206.046036 414.518341,206.056488 415.330780,206.552841 
	C415.888184,206.651810 416.445557,206.750778 417.768494,207.154755 
	C420.512238,207.436142 423.255951,207.717514 426.410706,208.535690 
	C428.310333,209.271805 432.106873,205.697327 431.329315,211.337540 
	C427.972046,213.703491 424.755585,214.456711 420.450043,212.932129 
	C411.544800,209.778763 402.375427,207.334564 393.236084,204.892975 
	C388.045288,203.506256 383.946869,205.936722 382.639771,210.547211 
	C381.254028,215.434998 383.129425,219.265564 388.707184,220.651245 
	C402.546661,224.089417 416.399994,227.689453 430.450439,229.982056 
	C439.326019,231.430313 448.534668,230.745804 454.428345,221.706833 
	C455.723877,219.719910 457.898438,218.306183 459.862579,216.444244 
	C467.681030,229.620483 470.555450,243.443756 468.272736,258.465546 
	C466.584717,269.573975 459.909760,274.669464 449.473053,277.445007 
	C439.443085,280.112335 429.641907,284.002899 420.174683,288.310760 
	C412.327637,291.881409 406.661224,298.213501 405.387939,307.176849 
	C404.721741,311.866699 404.874023,316.726379 405.129700,321.483948 
	C406.010956,337.882355 406.363281,354.359833 408.355896,370.631012 
	C409.816284,382.556213 413.533691,394.205078 416.228485,406.587219 
	C416.841766,407.329071 417.455048,408.070923 418.256531,409.485046 
	C420.282867,410.424622 422.309204,411.364197 424.797119,412.812988 
	C425.879913,413.024719 426.962677,413.236450 428.666840,413.692841 
	C429.097107,413.612823 429.527344,413.532806 430.619598,413.663544 
	C431.653076,413.228668 432.686584,412.793793 434.379639,412.484131 
	C435.579498,411.916748 436.779388,411.349365 438.577362,410.786926 
	C439.315674,410.183075 440.053955,409.579193 441.432739,408.639221 
	C442.673981,405.531769 444.946686,402.422577 444.941498,399.317200 
	C444.930756,392.877441 443.688171,386.442047 442.991455,380.000641 
	C441.026703,361.836243 438.646027,343.701904 437.298218,325.491425 
	C436.532196,315.141510 437.771393,314.541931 447.824341,313.046112 
	C448.808289,312.899689 449.768677,312.601624 450.747437,312.412384 
	C458.882843,310.839264 466.997345,308.082794 475.160736,307.928070 
	C501.468109,307.429382 527.793579,307.905334 554.112183,307.971130 
	C560.764832,307.987762 561.888611,306.911652 561.887024,300.037537 
	C561.881897,278.461761 562.157349,256.875244 561.554321,235.314423 
	C561.220093,223.363571 564.536194,212.682129 569.769165,202.361694 
	C576.209045,189.660828 580.139526,176.553940 578.503784,162.068283 
	C577.231079,150.797821 569.115967,143.388870 558.933960,144.835632 
	C553.275391,145.639679 551.924744,147.643372 551.488586,153.370605 
	C550.795898,162.465988 549.991821,171.592346 548.454407,180.571976 
	C547.116882,188.383759 543.804016,195.911697 542.939453,203.739075 
	C540.960388,221.656982 543.709290,239.185654 549.527893,256.245667 
	C551.219482,261.205200 552.611145,266.267029 554.383606,272.079651 
	C546.227966,272.079651 539.248413,271.822876 532.300659,272.181366 
	C528.476379,272.378662 526.730652,271.111481 525.518250,267.533630 
	C518.166748,245.838303 511.186066,223.989548 502.927795,202.638260 
	C496.780426,186.744537 488.889252,171.525284 481.766968,155.352509 
	C481.277435,154.648163 480.787933,153.943802 480.348114,152.632034 
	C479.857361,151.755600 479.366608,150.879166 478.881439,149.309204 
	C477.683807,147.429108 476.486176,145.549011 475.067627,143.855515 
	C475.067627,143.855515 475.318298,143.711334 475.111572,143.026367 
	C474.631317,143.243149 474.151093,143.459915 473.834015,143.775116 
M308.969055,110.749458 
	C307.939362,113.829102 306.909637,116.908745 305.309387,120.052322 
	C305.201691,120.700226 305.093994,121.348122 304.934357,122.895332 
	C304.086334,125.578682 304.737091,127.023407 307.882812,126.788536 
	C309.860992,126.640839 311.893219,127.042465 313.847229,126.786156 
	C316.944122,126.379959 319.995789,125.629181 323.468292,124.774254 
	C323.060089,124.175156 322.651917,123.576065 321.807068,122.470268 
	C321.071960,120.896080 320.336823,119.321884 319.813599,117.014000 
	C319.253174,116.338348 318.692780,115.662697 317.623627,114.492928 
	C316.017883,111.154236 314.412140,107.815536 312.888763,103.705025 
	C312.377838,103.203026 311.866913,102.701027 311.356018,102.199051 
	C310.964081,102.948685 310.572144,103.698326 310.276428,105.163422 
	C310.108551,106.102043 309.940704,107.040665 309.216492,108.041626 
	C309.125793,108.689209 309.035095,109.336792 308.969055,110.749458 
M306.051514,95.338615 
	C306.182800,94.903969 306.314117,94.469330 306.963898,93.960800 
	C307.030548,93.322594 307.097168,92.684387 307.139343,91.312210 
	C307.570984,89.428719 308.002625,87.545227 308.346710,86.043816 
	C298.844879,86.043816 289.509125,86.043816 279.673828,86.043816 
	C279.880463,87.615913 280.439392,89.382378 280.272614,91.077431 
	C279.819397,95.683746 282.084229,100.955261 276.987915,103.873909 
	C275.954712,102.571686 274.921478,101.269463 273.964905,99.318634 
	C272.018127,90.958290 269.094604,83.023140 262.976349,76.752235 
	C260.680054,74.398628 257.852112,74.245132 254.837616,76.147247 
	C240.905075,84.938507 231.375610,96.936836 229.583450,113.575829 
	C228.343170,125.090752 228.659866,136.774002 228.302002,148.382706 
	C228.243179,150.290894 228.293732,152.202454 228.293732,154.081909 
	C217.086914,154.389496 207.332092,157.291046 197.568863,162.178818 
	C196.977341,162.716919 196.385818,163.255020 195.212875,164.119125 
	C193.338455,165.293976 191.464020,166.468811 188.923996,167.693130 
	C188.152740,167.996002 187.381485,168.298874 186.610229,168.601746 
	C186.938705,169.032669 187.267166,169.463577 187.595642,169.894485 
	C188.455627,169.817169 189.315613,169.739868 191.042542,169.560577 
	C193.650665,169.492264 196.258804,169.423950 199.496033,169.702667 
	C199.716644,169.609528 199.937271,169.516373 200.718094,169.520966 
	C201.096191,169.516541 201.474274,169.512131 202.515762,169.762100 
	C202.728668,169.658401 202.941589,169.554688 204.065277,169.576508 
	C219.367126,169.576508 234.668976,169.576508 250.372986,169.576508 
	C250.372986,167.334106 250.321686,165.351212 250.381577,163.371674 
	C250.697708,152.923752 251.041855,142.476669 252.051926,131.840042 
	C252.371353,130.257217 252.690781,128.674408 253.393021,126.549919 
	C255.116562,124.639107 256.840088,122.728302 259.297333,120.866661 
	C260.208069,119.334671 261.118805,117.802681 262.303925,115.658478 
	C263.222656,114.448868 264.141388,113.239250 265.936798,112.423485 
	C267.913940,112.501427 269.891052,112.579361 271.584045,113.486549 
	C268.728302,117.492966 265.872589,121.499382 262.664886,125.999580 
	C265.127075,126.392487 266.541290,126.618172 268.374023,127.448624 
	C273.421692,127.632881 278.470795,127.984428 283.516479,127.940445 
	C286.686279,127.912811 289.850922,127.291641 293.687439,126.703987 
	C294.852997,125.808083 296.018524,124.912178 297.927612,123.817513 
	C298.069550,122.930504 298.211487,122.043495 298.275665,120.450485 
	C299.232025,117.637962 300.188385,114.825447 301.723206,111.942474 
	C301.789734,111.287086 301.856232,110.631699 301.905396,109.203392 
	C303.005585,105.475075 304.105774,101.746758 305.818695,97.968811 
	C306.643188,97.575493 307.467682,97.182182 309.183136,96.363831 
	C307.518097,96.177948 306.818848,96.099884 306.051514,95.338615 
M155.252167,174.900604 
	C154.783295,173.949066 154.314438,172.997513 153.858109,171.400085 
	C153.274063,170.542587 152.690002,169.685104 151.913895,168.172684 
	C148.742783,165.404572 145.571655,162.636444 142.400543,159.868332 
	C141.773178,160.157379 141.145813,160.446426 140.518463,160.735474 
	C139.811020,168.002197 139.103592,175.268906 137.897675,183.146332 
	C137.509811,183.489563 137.121948,183.832779 136.107513,183.664520 
	C135.343872,173.061279 134.398514,162.466171 133.924149,151.850006 
	C133.776306,148.541840 132.864761,147.389786 129.582550,146.702728 
	C122.928185,145.309799 116.421997,143.208984 108.947266,141.150009 
	C108.363167,141.932404 106.842865,143.876404 105.420715,145.889725 
	C99.282310,154.579849 93.025764,163.191803 87.102722,172.026962 
	C82.955498,178.213196 77.735199,184.260193 75.702080,191.166550 
	C71.021935,207.064682 67.771629,223.402664 64.374123,239.652679 
	C62.170223,250.193787 60.729691,260.894501 58.899250,271.809143 
	C50.417950,271.809143 42.315182,271.809143 33.791782,271.809143 
	C36.732464,261.806366 39.761379,252.027496 42.473324,242.161484 
	C47.059647,225.476593 49.740372,208.783081 44.346317,191.578690 
	C42.540970,185.820526 42.198177,179.464218 42.062637,173.361877 
	C41.930599,167.416931 42.992977,161.452072 43.393478,155.486725 
	C43.768749,149.897217 41.161484,146.260391 36.200336,145.124207 
	C26.497677,142.902130 16.116028,147.925781 13.232872,157.353485 
	C9.725843,168.821198 8.771120,180.482590 14.164243,191.952759 
	C21.330011,207.192993 26.702585,222.460342 25.136284,240.206802 
	C23.369452,260.225342 24.516144,280.500641 24.386147,300.664215 
	C24.345755,306.929352 25.266687,307.947876 31.459665,307.946716 
	C52.624249,307.942841 73.799889,308.305969 94.949745,307.733032 
	C110.654999,307.307495 125.628296,311.026581 140.836227,313.702454 
	C145.154617,314.462280 146.770691,316.496307 146.305222,320.711182 
	C144.297913,338.886871 142.456558,357.081543 140.329300,375.242920 
	C139.518433,382.165741 137.379196,388.990936 137.123276,395.907898 
	C136.683319,407.798462 149.067612,416.422638 159.713760,412.347565 
	C165.449707,410.151978 167.179214,405.119843 168.725174,399.976288 
	C177.270157,371.546356 180.488144,342.421143 180.854187,312.802124 
	C181.004135,300.669281 176.027466,292.611664 165.393936,287.976746 
	C155.684906,283.744812 145.702301,280.127869 135.775070,276.414185 
	C130.284988,274.360413 126.653168,270.689880 124.298828,265.378174 
	C120.279243,256.309509 118.377289,246.759003 120.175255,237.120529 
	C121.557823,229.708923 124.826027,222.649048 127.255699,215.432770 
	C127.790764,215.495865 128.325836,215.558960 128.860901,215.622055 
	C131.967148,220.637756 135.073410,225.653458 138.814468,231.694168 
	C146.517349,230.207733 154.786087,228.698990 163.016037,227.002106 
	C173.430923,224.854736 183.852844,222.716751 194.196625,220.258667 
	C200.359253,218.794174 202.743164,213.529800 199.872864,208.427170 
	C197.332260,203.910675 193.136215,204.111572 188.924576,205.193710 
	C180.398361,207.384399 171.863358,209.568115 163.432541,212.090805 
	C159.421097,213.291138 156.060715,212.787079 152.539047,210.659775 
	C145.551788,206.439041 141.809952,200.031601 140.037384,191.813293 
	C140.466156,191.468140 140.894928,191.123001 141.904297,191.165695 
	C143.416519,193.664978 144.812775,196.243805 146.462326,198.648911 
	C151.774979,206.394897 157.334076,208.593765 166.515656,206.040314 
	C177.046844,203.111542 187.487579,199.848083 197.913773,196.559311 
	C199.915894,195.927780 201.982178,194.828720 203.471542,193.381943 
	C206.592102,190.350616 207.534515,186.383545 205.644333,182.437958 
	C203.744293,178.471741 200.092697,178.174286 196.219467,179.333359 
	C195.266846,179.618423 194.308380,179.884064 193.356857,180.172684 
	C182.774246,183.382523 172.192459,186.595123 161.771530,189.758087 
	C160.371277,186.745575 159.052673,183.908737 157.761017,180.376633 
	C156.946213,178.763077 156.131409,177.149536 155.252167,174.900604 
M331.298309,143.338531 
	C332.098053,147.565811 332.657379,151.855759 333.740295,156.009216 
	C337.813995,171.633987 336.937500,169.383224 350.210571,169.682480 
	C365.763824,170.033157 381.330994,169.764526 397.564484,169.764526 
	C396.765045,168.516602 396.458435,167.544388 395.795776,167.077637 
	C385.999756,160.177780 375.372894,155.176514 363.266541,154.380280 
	C359.196869,154.112625 358.359741,152.604309 358.501984,148.887878 
	C358.826385,140.411865 359.046692,131.907043 358.724213,123.436195 
	C358.020691,104.956467 350.960175,89.643181 335.338135,78.923828 
	C330.505219,75.607620 325.373779,75.114456 322.237030,79.146011 
	C318.868256,83.475769 316.643768,88.829697 314.659912,94.019562 
	C314.081909,95.531540 316.037292,98.011940 316.401520,100.399292 
	C316.916290,100.934662 317.431061,101.470024 318.409393,102.485779 
	C319.301270,104.258553 320.193146,106.031326 321.011414,108.536118 
	C321.662903,109.358551 322.314362,110.180992 323.440918,111.486137 
	C324.299622,113.322342 325.158325,115.158554 325.546478,117.331825 
	C326.045563,117.886276 326.544647,118.440727 327.532898,119.461823 
	C328.365509,121.304688 329.198120,123.147552 329.507812,125.412712 
	C329.877258,129.507309 333.058594,127.504250 335.511810,128.604874 
	C335.657501,130.075104 335.803223,131.545334 335.471436,133.357452 
	C335.766663,133.937973 336.061859,134.518494 336.703888,135.884979 
	C336.615417,137.294235 336.526978,138.703476 335.586212,140.044968 
	C334.123322,140.885284 332.660400,141.725616 331.298309,143.338531 
M324.775879,150.334869 
	C324.407928,147.540771 324.039978,144.746658 323.394440,141.082428 
	C323.290497,139.148483 323.186584,137.214539 323.062744,134.910095 
	C316.017487,134.910095 309.422821,134.929474 302.828308,134.904892 
	C295.527161,134.877670 288.226135,134.810242 280.310181,134.220398 
	C274.665710,134.135864 269.018951,133.941940 263.378601,134.057785 
	C262.230499,134.081345 261.106384,135.270737 259.936432,136.853500 
	C259.834991,140.559311 259.733551,144.265106 258.920776,148.199173 
	C258.900604,151.119568 258.880432,154.039978 259.017548,157.796646 
	C258.774597,159.182617 258.531647,160.568588 257.742950,162.160507 
	C257.744873,163.444901 257.746826,164.729309 257.933990,166.799103 
	C257.038849,172.107101 256.143677,177.415100 255.237930,182.785919 
	C284.155945,183.729980 312.329559,184.649734 341.043854,185.587158 
	C333.137207,174.877899 323.965698,165.122055 324.775879,150.334869 
M258.500000,243.092239 
	C229.670746,243.093414 200.836731,243.393784 172.014832,242.933868 
	C161.895035,242.772415 152.772385,245.707993 143.236206,248.358566 
	C156.524521,259.961060 172.528595,258.223053 188.346802,258.002625 
	C188.346802,266.370789 188.364029,274.003113 188.343918,281.635406 
	C188.239853,321.121674 188.115738,360.607880 188.034790,400.094208 
	C188.027893,403.456055 188.209045,406.630981 183.236893,406.028107 
	C180.716858,405.722565 179.297394,406.852448 179.201752,409.753723 
	C178.910980,418.575928 178.232910,427.387695 178.075104,436.210114 
	C178.042770,438.018036 179.161194,440.350006 180.521973,441.597168 
	C188.971329,449.340729 204.494385,450.801941 213.958481,444.493835 
	C215.878830,443.213837 217.469101,439.950317 217.489258,437.586517 
	C217.550049,430.458801 216.242310,423.306976 216.473801,416.197296 
	C216.651245,410.747559 215.184891,407.175812 210.459778,404.347839 
	C208.535538,403.196228 206.438080,400.349030 206.432892,398.268280 
	C206.322296,353.943756 206.498917,309.618530 206.618179,265.293427 
	C206.624710,262.866974 206.619019,260.440460 206.619019,257.688660 
	C223.155136,257.688660 239.107483,257.616821 255.055054,257.858826 
	C256.061676,257.874084 257.834930,260.305786 257.885284,261.663971 
	C258.175262,269.484375 258.081177,277.320160 258.065857,285.150604 
	C258.018646,309.313416 257.921112,333.476166 257.905121,357.638977 
	C257.900909,363.970856 259.660553,369.636017 265.753632,372.701019 
	C276.690765,378.202789 286.869110,371.665619 286.861328,359.213226 
	C286.846588,335.733826 286.736450,312.254517 286.685699,288.775116 
	C286.667633,280.420349 286.661926,272.064941 286.753479,263.710968 
	C286.774689,261.776611 287.217285,259.846924 287.444305,258.083191 
	C291.934326,258.083191 295.945190,258.083191 299.972870,258.083191 
	C299.972870,277.124298 299.985626,295.609283 299.968933,314.094238 
	C299.955200,329.258942 299.793335,344.424652 299.928497,359.587860 
	C299.983154,365.718628 301.905762,371.216095 308.202148,373.750153 
	C313.978424,376.074860 321.726318,374.739868 324.905121,369.726471 
	C327.523865,365.596313 329.541046,360.282562 329.603821,355.464386 
	C330.003418,324.805695 329.786774,294.138947 329.773315,263.474854 
	C329.772552,261.742981 329.773224,260.011108 329.773224,258.086426 
	C346.753937,258.086426 362.918579,258.086426 379.700470,258.086426 
	C379.700470,261.221405 379.715332,264.018829 379.697968,266.816040 
	C379.609009,281.145630 379.443237,295.475037 379.431946,309.804626 
	C379.409485,338.297272 379.372620,366.790771 379.593170,395.281952 
	C379.630005,400.035553 377.935944,402.981537 374.079926,405.475586 
	C372.214294,406.682251 370.113037,408.907227 369.819611,410.919220 
	C368.644470,418.977478 368.092377,427.129242 367.395508,435.253723 
	C366.897430,441.060669 368.761383,443.789520 374.156281,445.972687 
	C382.363159,449.293793 390.402008,448.537842 398.401978,445.281189 
	C405.790436,442.273468 406.955475,440.527435 406.833130,432.536774 
	C406.743896,426.704865 406.612305,420.872925 406.595306,415.040741 
	C406.570221,406.446899 406.605988,406.451996 398.241760,405.641541 
	C397.977417,405.615936 397.747375,405.236633 397.501343,405.018463 
	C397.501343,356.012512 397.501343,307.006561 397.501343,257.157715 
	C413.798126,259.442474 428.835785,255.785309 444.117249,251.840927 
	C442.176636,250.818878 440.444061,250.173431 439.023163,249.111084 
	C433.350067,244.869598 427.097961,243.002411 419.961945,243.018021 
	C366.474854,243.135117 312.987366,243.090210 258.500000,243.092239 
M64.535057,312.186951 
	C62.548168,312.159119 60.554367,312.010254 58.575516,312.123199 
	C46.451969,312.815155 41.056702,320.107025 43.729111,332.858765 
	C50.279442,332.858765 56.967705,332.858765 63.944576,332.858765 
	C63.944576,341.753082 63.903267,350.058990 63.955673,358.364288 
	C64.013237,367.487274 64.027809,367.410278 55.256649,370.041931 
	C43.602695,373.538513 33.057812,378.797455 25.287245,388.681000 
	C24.184860,390.083160 21.704367,390.965363 19.802277,391.077209 
	C11.777595,391.549011 7.639143,395.096130 6.459978,403.096405 
	C5.226095,411.467957 11.130738,419.129700 19.542599,420.072174 
	C26.919172,420.898651 33.301769,415.016785 33.539131,406.525879 
	C33.632736,403.177521 32.367836,399.791168 31.489685,395.213470 
	C35.991531,395.213470 40.252724,395.017334 44.490856,395.246948 
	C64.433777,396.327362 82.721329,403.206085 100.482452,411.703247 
	C101.992058,412.425446 103.143768,414.559052 103.801651,416.288147 
	C107.438629,425.847168 116.137047,429.128326 125.151733,424.197388 
	C129.345566,421.903473 131.042618,418.215271 130.120132,413.767609 
	C129.462265,410.595795 127.678436,407.670349 126.556168,404.577271 
	C125.862350,402.665009 125.036865,400.650604 125.009094,398.671661 
	C124.858284,387.926300 124.937485,377.177704 124.937485,365.932373 
	C109.513458,365.932373 94.624146,365.932373 79.679138,365.932373 
	C79.679138,355.320618 79.580307,345.213776 79.846664,335.116608 
	C79.870766,334.202972 82.218582,332.646973 83.535889,332.593811 
	C89.018456,332.372528 94.519478,332.631714 100.014038,332.679474 
	C111.314186,332.777771 110.426437,334.894653 110.523949,322.032776 
	C110.584671,314.023773 108.654213,312.166992 100.488693,312.179871 
	C88.833771,312.198242 77.178818,312.188538 64.535057,312.186951 
M502.500092,312.238831 
	C497.334137,312.231934 492.168213,312.225281 487.002258,312.218079 
	C473.632202,312.199463 472.813934,313.259979 472.599182,326.731079 
	C472.519775,331.712646 474.177277,332.937134 478.911560,332.731812 
	C487.671295,332.351837 496.459259,332.623047 505.111145,332.623047 
	C505.111145,344.160919 505.111145,354.880219 505.111145,366.062347 
	C489.510620,366.062347 474.410065,366.062347 458.480164,366.062347 
	C458.480164,374.640747 458.539429,382.761200 458.458801,390.880310 
	C458.407196,396.075287 458.734070,400.939117 455.074890,405.866455 
	C450.631927,411.849213 453.870026,419.706818 460.627930,422.882843 
	C467.895081,426.298218 475.310425,424.580170 477.591400,418.101990 
	C479.118134,413.765930 481.966431,411.722534 485.598907,409.976685 
	C488.145203,408.752808 490.689148,407.521881 493.262421,406.356506 
	C512.017944,397.862823 531.555237,393.668457 552.531006,395.436127 
	C551.569763,398.375488 550.507080,400.955261 549.894287,403.637817 
	C548.600891,409.299744 551.693115,416.793427 556.188110,418.786896 
	C561.803406,421.277252 567.294739,420.934875 572.072754,416.836365 
	C577.235535,412.407837 577.770630,406.616577 576.201843,400.415619 
	C574.660034,394.321869 570.046753,392.246002 564.426025,391.291351 
	C562.779480,391.011688 560.765991,390.343079 559.776855,389.145599 
	C551.831543,379.527252 541.226196,374.233673 529.787048,370.262390 
	C521.108093,367.249390 520.929749,367.317719 520.941956,358.079071 
	C520.952820,349.843353 521.356506,341.608093 521.604248,332.752563 
	C528.474792,332.752563 534.223694,332.752563 539.873047,332.752563 
	C541.325317,317.088715 536.895508,312.191345 521.996460,312.236755 
	C515.830994,312.255554 509.665436,312.251862 502.500092,312.238831 
M291.408752,78.600243 
	C293.701111,78.241699 296.014221,77.982414 298.282562,77.508766 
	C315.058319,74.005775 325.938934,55.849796 321.188385,39.346336 
	C316.628662,23.505741 301.023438,14.689627 283.486633,18.046825 
	C263.425964,21.887188 252.937683,44.261047 262.837128,62.131924 
	C268.864136,73.012138 278.361359,78.087234 291.408752,78.600243 
M105.374184,117.774040 
	C109.810051,138.989807 135.889557,148.670578 155.919525,133.201538 
	C168.406479,123.557938 170.588791,105.186607 161.478409,93.520317 
	C149.828339,78.601837 122.517036,78.844017 111.011879,93.870941 
	C105.724869,100.776299 104.288681,108.508560 105.374184,117.774040 
M427.495636,123.909943 
	C433.509430,135.512085 443.493073,140.176865 456.088776,140.228943 
	C473.106781,140.299286 486.674927,125.437836 485.033539,108.555290 
	C483.319672,90.926628 467.023956,79.964760 448.619293,83.076447 
	C428.494019,86.479065 418.444489,108.553062 427.495636,123.909943 
M310.518250,230.297714 
	C311.681610,230.319000 312.880615,230.164642 314.002106,230.392303 
	C318.599396,231.325546 321.720734,230.116241 324.063843,225.597809 
	C326.644623,220.621124 330.274506,216.196198 333.311188,211.443878 
	C334.305511,209.887787 334.873810,208.059448 335.884155,205.803696 
	C323.243317,205.803696 311.350494,206.908905 299.755585,205.522552 
	C285.419769,203.808487 275.614288,208.796204 268.569092,220.830658 
	C266.867615,223.737106 264.662201,226.348541 261.826538,230.295425 
	C278.804291,230.295425 294.221191,230.295425 310.518250,230.297714 
M367.575195,219.170761 
	C377.683624,217.155380 380.790253,209.967026 379.314545,202.746445 
	C377.339508,193.082901 369.011017,187.986557 359.506256,189.969849 
	C352.529266,191.425690 348.138916,198.894135 349.452942,207.071564 
	C350.868225,215.879074 357.210846,220.338867 367.575195,219.170761 
M214.524734,219.333649 
	C223.678314,221.740112 231.305923,218.023087 233.703720,209.987488 
	C235.941345,202.488693 231.685333,194.072784 224.283295,191.359314 
	C216.506226,188.508377 207.627792,192.672363 204.674774,200.555679 
	C202.160477,207.267822 206.357422,215.911469 214.524734,219.333649 
z"/>
<path fill="#040404" opacity="1.000000" stroke="none" 
	d="
M139.547318,192.500809 
	C141.809952,200.031601 145.551788,206.439041 152.539047,210.659775 
	C156.060715,212.787079 159.421097,213.291138 163.432541,212.090805 
	C171.863358,209.568115 180.398361,207.384399 188.924576,205.193710 
	C193.136215,204.111572 197.332260,203.910675 199.872864,208.427170 
	C202.743164,213.529800 200.359253,218.794174 194.196625,220.258667 
	C183.852844,222.716751 173.430923,224.854736 163.016037,227.002106 
	C154.786087,228.698990 146.517349,230.207733 138.814468,231.694168 
	C135.073410,225.653458 131.967148,220.637756 128.860901,215.622055 
	C128.325836,215.558960 127.790764,215.495865 127.255699,215.432770 
	C124.826027,222.649048 121.557823,229.708923 120.175255,237.120529 
	C118.377289,246.759003 120.279243,256.309509 124.298828,265.378174 
	C126.653168,270.689880 130.284988,274.360413 135.775070,276.414185 
	C145.702301,280.127869 155.684906,283.744812 165.393936,287.976746 
	C176.027466,292.611664 181.004135,300.669281 180.854187,312.802124 
	C180.488144,342.421143 177.270157,371.546356 168.725174,399.976288 
	C167.179214,405.119843 165.449707,410.151978 159.713760,412.347565 
	C149.067612,416.422638 136.683319,407.798462 137.123276,395.907898 
	C137.379196,388.990936 139.518433,382.165741 140.329300,375.242920 
	C142.456558,357.081543 144.297913,338.886871 146.305222,320.711182 
	C146.770691,316.496307 145.154617,314.462280 140.836227,313.702454 
	C125.628296,311.026581 110.654999,307.307495 94.949745,307.733032 
	C73.799889,308.305969 52.624249,307.942841 31.459665,307.946716 
	C25.266687,307.947876 24.345755,306.929352 24.386147,300.664215 
	C24.516144,280.500641 23.369452,260.225342 25.136284,240.206802 
	C26.702585,222.460342 21.330011,207.192993 14.164243,191.952759 
	C8.771120,180.482590 9.725843,168.821198 13.232872,157.353485 
	C16.116028,147.925781 26.497677,142.902130 36.200336,145.124207 
	C41.161484,146.260391 43.768749,149.897217 43.393478,155.486725 
	C42.992977,161.452072 41.930599,167.416931 42.062637,173.361877 
	C42.198177,179.464218 42.540970,185.820526 44.346317,191.578690 
	C49.740372,208.783081 47.059647,225.476593 42.473324,242.161484 
	C39.761379,252.027496 36.732464,261.806366 33.791782,271.809143 
	C42.315182,271.809143 50.417950,271.809143 58.899250,271.809143 
	C60.729691,260.894501 62.170223,250.193787 64.374123,239.652679 
	C67.771629,223.402664 71.021935,207.064682 75.702080,191.166550 
	C77.735199,184.260193 82.955498,178.213196 87.102722,172.026962 
	C93.025764,163.191803 99.282310,154.579849 105.420715,145.889725 
	C106.842865,143.876404 108.363167,141.932404 108.947266,141.150009 
	C116.421997,143.208984 122.928185,145.309799 129.582550,146.702728 
	C132.864761,147.389786 133.776306,148.541840 133.924149,151.850006 
	C134.398514,162.466171 135.343872,173.061279 136.432281,184.310364 
	C137.687134,187.471069 138.617233,189.985947 139.547318,192.500809 
z"/>
<path fill="#080809" opacity="1.000000" stroke="none" 
	d="
M259.000000,243.094131 
	C312.987366,243.090210 366.474854,243.135117 419.961945,243.018021 
	C427.097961,243.002411 433.350067,244.869598 439.023163,249.111084 
	C440.444061,250.173431 442.176636,250.818878 444.117249,251.840927 
	C428.835785,255.785309 413.798126,259.442474 397.501343,257.157715 
	C397.501343,307.006561 397.501343,356.012512 397.501343,405.020325 
	C397.747375,405.236633 397.977417,405.615936 398.241760,405.641541 
	C406.605988,406.451996 406.570221,406.446899 406.595306,415.040741 
	C406.612305,420.872925 406.743896,426.704865 406.833130,432.536774 
	C406.955475,440.527435 405.790436,442.273468 398.401978,445.281189 
	C390.402008,448.537842 382.363159,449.293793 374.156281,445.972687 
	C368.761383,443.789520 366.897430,441.060669 367.395508,435.253723 
	C368.092377,427.129242 368.644470,418.977478 369.819611,410.919220 
	C370.113037,408.907227 372.214294,406.682251 374.079926,405.475586 
	C377.935944,402.981537 379.630005,400.035553 379.593170,395.281952 
	C379.372620,366.790771 379.409485,338.297272 379.431946,309.804626 
	C379.443237,295.475037 379.609009,281.145630 379.697968,266.816040 
	C379.715332,264.018829 379.700470,261.221405 379.700470,258.086426 
	C362.918579,258.086426 346.753937,258.086426 329.773224,258.086426 
	C329.773224,260.011108 329.772552,261.742981 329.773315,263.474854 
	C329.786774,294.138947 330.003418,324.805695 329.603821,355.464386 
	C329.541046,360.282562 327.523865,365.596313 324.905121,369.726471 
	C321.726318,374.739868 313.978424,376.074860 308.202148,373.750153 
	C301.905762,371.216095 299.983154,365.718628 299.928497,359.587860 
	C299.793335,344.424652 299.955200,329.258942 299.968933,314.094238 
	C299.985626,295.609283 299.972870,277.124298 299.972870,258.083191 
	C295.945190,258.083191 291.934326,258.083191 287.444305,258.083191 
	C287.217285,259.846924 286.774689,261.776611 286.753479,263.710968 
	C286.661926,272.064941 286.667633,280.420349 286.685699,288.775116 
	C286.736450,312.254517 286.846588,335.733826 286.861328,359.213226 
	C286.869110,371.665619 276.690765,378.202789 265.753632,372.701019 
	C259.660553,369.636017 257.900909,363.970856 257.905121,357.638977 
	C257.921112,333.476166 258.018646,309.313416 258.065857,285.150604 
	C258.081177,277.320160 258.175262,269.484375 257.885284,261.663971 
	C257.834930,260.305786 256.061676,257.874084 255.055054,257.858826 
	C239.107483,257.616821 223.155136,257.688660 206.619019,257.688660 
	C206.619019,260.440460 206.624710,262.866974 206.618179,265.293427 
	C206.498917,309.618530 206.322296,353.943756 206.432892,398.268280 
	C206.438080,400.349030 208.535538,403.196228 210.459778,404.347839 
	C215.184891,407.175812 216.651245,410.747559 216.473801,416.197296 
	C216.242310,423.306976 217.550049,430.458801 217.489258,437.586517 
	C217.469101,439.950317 215.878830,443.213837 213.958481,444.493835 
	C204.494385,450.801941 188.971329,449.340729 180.521973,441.597168 
	C179.161194,440.350006 178.042770,438.018036 178.075104,436.210114 
	C178.232910,427.387695 178.910980,418.575928 179.201752,409.753723 
	C179.297394,406.852448 180.716858,405.722565 183.236893,406.028107 
	C188.209045,406.630981 188.027893,403.456055 188.034790,400.094208 
	C188.115738,360.607880 188.239853,321.121674 188.343918,281.635406 
	C188.364029,274.003113 188.346802,266.370789 188.346802,258.002625 
	C172.528595,258.223053 156.524521,259.961060 143.236206,248.358566 
	C152.772385,245.707993 161.895035,242.772415 172.014832,242.933868 
	C200.836731,243.393784 229.670746,243.093414 259.000000,243.094131 
z"/>
<path fill="#050505" opacity="1.000000" stroke="none" 
	d="
M437.979248,410.781952 
	C436.779388,411.349365 435.579498,411.916748 433.685303,412.302246 
	C431.979858,412.564484 430.968719,413.008636 429.957611,413.452789 
	C429.527344,413.532806 429.097107,413.612823 428.218872,413.234894 
	C426.625763,412.619232 425.480652,412.461517 424.335541,412.303772 
	C422.309204,411.364197 420.282867,410.424622 418.173035,408.822296 
	C417.474762,407.432037 416.859985,406.704559 416.245209,405.977081 
	C413.533691,394.205078 409.816284,382.556213 408.355896,370.631012 
	C406.363281,354.359833 406.010956,337.882355 405.129700,321.483948 
	C404.874023,316.726379 404.721741,311.866699 405.387939,307.176849 
	C406.661224,298.213501 412.327637,291.881409 420.174683,288.310760 
	C429.641907,284.002899 439.443085,280.112335 449.473053,277.445007 
	C459.909760,274.669464 466.584717,269.573975 468.272736,258.465546 
	C470.555450,243.443756 467.681030,229.620483 459.862579,216.444244 
	C457.898438,218.306183 455.723877,219.719910 454.428345,221.706833 
	C448.534668,230.745804 439.326019,231.430313 430.450439,229.982056 
	C416.399994,227.689453 402.546661,224.089417 388.707184,220.651245 
	C383.129425,219.265564 381.254028,215.434998 382.639771,210.547211 
	C383.946869,205.936722 388.045288,203.506256 393.236084,204.892975 
	C402.375427,207.334564 411.544800,209.778763 420.450043,212.932129 
	C424.755585,214.456711 427.972046,213.703491 432.015259,211.241516 
	C438.959991,207.401764 441.778992,201.032303 445.150818,194.910950 
	C445.270508,194.828476 445.189056,194.549393 445.465454,194.289536 
	C446.267639,192.354782 446.793396,190.679871 447.650024,188.918350 
	C449.013733,184.896545 450.046509,180.961349 451.079285,177.026154 
	C451.210449,175.615646 451.341644,174.205124 451.902588,172.283432 
	C452.218048,170.846970 452.103760,169.921707 451.989502,168.996429 
	C452.012207,162.738449 451.880554,156.472580 452.200165,150.229797 
	C452.257507,149.109695 454.008423,147.540131 455.277802,147.146179 
	C457.097870,146.581329 459.194092,146.906479 461.721802,147.160706 
	C462.853027,147.202545 463.434845,146.935303 464.016663,146.668060 
	C464.765259,146.453918 465.513885,146.239777 466.883789,146.322327 
	C469.578613,145.618774 471.652191,144.618546 473.725739,143.618301 
	C473.725739,143.618301 473.834015,143.775116 474.163513,143.776199 
	C474.768127,143.755295 475.043213,143.733322 475.318298,143.711334 
	C475.318298,143.711334 475.067627,143.855515 475.115601,144.131409 
	C476.400970,146.272446 477.638397,148.137589 478.875824,150.002731 
	C479.366608,150.879166 479.857361,151.755600 480.251282,153.303986 
	C480.694519,154.652512 481.234650,155.329056 481.774750,156.005615 
	C488.889252,171.525284 496.780426,186.744537 502.927795,202.638260 
	C511.186066,223.989548 518.166748,245.838303 525.518250,267.533630 
	C526.730652,271.111481 528.476379,272.378662 532.300659,272.181366 
	C539.248413,271.822876 546.227966,272.079651 554.383606,272.079651 
	C552.611145,266.267029 551.219482,261.205200 549.527893,256.245667 
	C543.709290,239.185654 540.960388,221.656982 542.939453,203.739075 
	C543.804016,195.911697 547.116882,188.383759 548.454407,180.571976 
	C549.991821,171.592346 550.795898,162.465988 551.488586,153.370605 
	C551.924744,147.643372 553.275391,145.639679 558.933960,144.835632 
	C569.115967,143.388870 577.231079,150.797821 578.503784,162.068283 
	C580.139526,176.553940 576.209045,189.660828 569.769165,202.361694 
	C564.536194,212.682129 561.220093,223.363571 561.554321,235.314423 
	C562.157349,256.875244 561.881897,278.461761 561.887024,300.037537 
	C561.888611,306.911652 560.764832,307.987762 554.112183,307.971130 
	C527.793579,307.905334 501.468109,307.429382 475.160736,307.928070 
	C466.997345,308.082794 458.882843,310.839264 450.747437,312.412384 
	C449.768677,312.601624 448.808289,312.899689 447.824341,313.046112 
	C437.771393,314.541931 436.532196,315.141510 437.298218,325.491425 
	C438.646027,343.701904 441.026703,361.836243 442.991455,380.000641 
	C443.688171,386.442047 444.930756,392.877441 444.941498,399.317200 
	C444.946686,402.422577 442.673981,405.531769 440.786255,408.788269 
	C439.419586,409.552185 438.699402,410.167084 437.979248,410.781952 
z"/>
<path fill="#080808" opacity="1.000000" stroke="none" 
	d="
M65.029465,312.188904 
	C77.178818,312.188538 88.833771,312.198242 100.488693,312.179871 
	C108.654213,312.166992 110.584671,314.023773 110.523949,322.032776 
	C110.426437,334.894653 111.314186,332.777771 100.014038,332.679474 
	C94.519478,332.631714 89.018456,332.372528 83.535889,332.593811 
	C82.218582,332.646973 79.870766,334.202972 79.846664,335.116608 
	C79.580307,345.213776 79.679138,355.320618 79.679138,365.932373 
	C94.624146,365.932373 109.513458,365.932373 124.937485,365.932373 
	C124.937485,377.177704 124.858284,387.926300 125.009094,398.671661 
	C125.036865,400.650604 125.862350,402.665009 126.556168,404.577271 
	C127.678436,407.670349 129.462265,410.595795 130.120132,413.767609 
	C131.042618,418.215271 129.345566,421.903473 125.151733,424.197388 
	C116.137047,429.128326 107.438629,425.847168 103.801651,416.288147 
	C103.143768,414.559052 101.992058,412.425446 100.482452,411.703247 
	C82.721329,403.206085 64.433777,396.327362 44.490856,395.246948 
	C40.252724,395.017334 35.991531,395.213470 31.489685,395.213470 
	C32.367836,399.791168 33.632736,403.177521 33.539131,406.525879 
	C33.301769,415.016785 26.919172,420.898651 19.542599,420.072174 
	C11.130738,419.129700 5.226095,411.467957 6.459978,403.096405 
	C7.639143,395.096130 11.777595,391.549011 19.802277,391.077209 
	C21.704367,390.965363 24.184860,390.083160 25.287245,388.681000 
	C33.057812,378.797455 43.602695,373.538513 55.256649,370.041931 
	C64.027809,367.410278 64.013237,367.487274 63.955673,358.364288 
	C63.903267,350.058990 63.944576,341.753082 63.944576,332.858765 
	C56.967705,332.858765 50.279442,332.858765 43.729111,332.858765 
	C41.056702,320.107025 46.451969,312.815155 58.575516,312.123199 
	C60.554367,312.010254 62.548168,312.159119 65.029465,312.188904 
M103.825005,393.398193 
	C103.017380,393.398193 102.209763,393.398193 101.086533,393.398193 
	C103.858345,396.893280 106.258698,399.919983 108.950562,403.314270 
	C110.203384,399.582550 117.965317,400.775024 115.025040,394.011047 
	C111.501747,393.849518 108.064987,393.691956 103.825005,393.398193 
z"/>
<path fill="#080808" opacity="1.000000" stroke="none" 
	d="
M503.000000,312.248596 
	C509.665436,312.251862 515.830994,312.255554 521.996460,312.236755 
	C536.895508,312.191345 541.325317,317.088715 539.873047,332.752563 
	C534.223694,332.752563 528.474792,332.752563 521.604248,332.752563 
	C521.356506,341.608093 520.952820,349.843353 520.941956,358.079071 
	C520.929749,367.317719 521.108093,367.249390 529.787048,370.262390 
	C541.226196,374.233673 551.831543,379.527252 559.776855,389.145599 
	C560.765991,390.343079 562.779480,391.011688 564.426025,391.291351 
	C570.046753,392.246002 574.660034,394.321869 576.201843,400.415619 
	C577.770630,406.616577 577.235535,412.407837 572.072754,416.836365 
	C567.294739,420.934875 561.803406,421.277252 556.188110,418.786896 
	C551.693115,416.793427 548.600891,409.299744 549.894287,403.637817 
	C550.507080,400.955261 551.569763,398.375488 552.531006,395.436127 
	C531.555237,393.668457 512.017944,397.862823 493.262421,406.356506 
	C490.689148,407.521881 488.145203,408.752808 485.598907,409.976685 
	C481.966431,411.722534 479.118134,413.765930 477.591400,418.101990 
	C475.310425,424.580170 467.895081,426.298218 460.627930,422.882843 
	C453.870026,419.706818 450.631927,411.849213 455.074890,405.866455 
	C458.734070,400.939117 458.407196,396.075287 458.458801,390.880310 
	C458.539429,382.761200 458.480164,374.640747 458.480164,366.062347 
	C474.410065,366.062347 489.510620,366.062347 505.111145,366.062347 
	C505.111145,354.880219 505.111145,344.160919 505.111145,332.623047 
	C496.459259,332.623047 487.671295,332.351837 478.911560,332.731812 
	C474.177277,332.937134 472.519775,331.712646 472.599182,326.731079 
	C472.813934,313.259979 473.632202,312.199463 487.002258,312.218079 
	C492.168213,312.225281 497.334137,312.231934 503.000000,312.248596 
M471.741089,393.826569 
	C467.790833,393.168610 468.218903,396.061096 467.805145,398.363586 
	C470.294830,399.793030 472.599487,401.116241 474.933228,402.456116 
	C476.990936,399.601318 478.938629,396.899139 481.134735,393.852295 
	C477.908813,393.852295 475.278992,393.852295 471.741089,393.826569 
z"/>
<path fill="#050505" opacity="1.000000" stroke="none" 
	d="
M280.925079,134.760315 
	C288.226135,134.810242 295.527161,134.877670 302.828308,134.904892 
	C309.422821,134.929474 316.017487,134.910095 323.062744,134.910095 
	C323.186584,137.214539 323.290497,139.148483 323.388855,141.934509 
	C323.682983,145.495468 323.982727,148.204330 324.282471,150.913193 
	C323.965698,165.122055 333.137207,174.877899 341.043854,185.587158 
	C312.329559,184.649734 284.155945,183.729980 255.237930,182.785919 
	C256.143677,177.415100 257.038849,172.107101 258.052612,166.120163 
	C258.210358,164.279007 258.249512,163.116776 258.288696,161.954559 
	C258.531647,160.568588 258.774597,159.182617 259.186523,157.067322 
	C259.447693,153.548965 259.539886,150.759949 259.632111,147.970917 
	C259.733551,144.265106 259.834991,140.559311 260.416077,136.289948 
	C263.034454,135.616516 265.172943,135.500122 267.312073,135.398041 
	C271.849548,135.181534 276.387390,134.972458 280.925079,134.760315 
z"/>
<path fill="#050505" opacity="1.000000" stroke="none" 
	d="
M290.983948,78.598434 
	C278.361359,78.087234 268.864136,73.012138 262.837128,62.131924 
	C252.937683,44.261047 263.425964,21.887188 283.486633,18.046825 
	C301.023438,14.689627 316.628662,23.505741 321.188385,39.346336 
	C325.938934,55.849796 315.058319,74.005775 298.282562,77.508766 
	C296.014221,77.982414 293.701111,78.241699 290.983948,78.598434 
z"/>
<path fill="#070707" opacity="1.000000" stroke="none" 
	d="
M258.563629,120.817490 
	C256.840088,122.728302 255.116562,124.639107 252.848404,126.900497 
	C251.994614,128.843811 251.685455,130.436554 251.376282,132.029297 
	C251.041855,142.476669 250.697708,152.923752 250.381577,163.371674 
	C250.321686,165.351212 250.372986,167.334106 250.372986,169.576508 
	C234.668976,169.576508 219.367126,169.576508 203.501831,169.304657 
	C202.576385,169.191116 202.214386,169.349411 201.852371,169.507706 
	C201.474274,169.512131 201.096191,169.516541 200.349823,169.263367 
	C199.610001,169.122391 199.238464,169.239029 198.866928,169.355652 
	C196.258804,169.423950 193.650665,169.492264 190.556305,169.263489 
	C189.909912,168.525467 189.749741,168.084564 189.589584,167.643646 
	C191.464020,166.468811 193.338455,165.293976 195.815750,164.032028 
	C197.005859,163.411179 197.593109,162.877426 198.180359,162.343689 
	C207.332092,157.291046 217.086914,154.389496 228.293732,154.081909 
	C228.293732,152.202454 228.243179,150.290894 228.302002,148.382706 
	C228.659866,136.774002 228.343170,125.090752 229.583450,113.575829 
	C231.375610,96.936836 240.905075,84.938507 254.837616,76.147247 
	C257.852112,74.245132 260.680054,74.398628 262.976349,76.752235 
	C269.094604,83.023140 272.018127,90.958290 273.634521,99.800018 
	C271.858002,102.517151 270.411865,104.752884 268.670837,107.137451 
	C267.968109,108.057426 267.560272,108.828568 266.885529,109.687119 
	C266.099121,110.526230 265.579620,111.277939 265.060120,112.029640 
	C264.141388,113.239250 263.222656,114.448868 261.859100,116.062729 
	C260.464050,117.917145 259.513855,119.367317 258.563629,120.817490 
z"/>
<path fill="#080909" opacity="1.000000" stroke="none" 
	d="
M336.438538,140.112732 
	C336.526978,138.703476 336.615417,137.294235 336.665833,135.291931 
	C336.401489,134.137787 336.175201,133.576675 335.948944,133.015564 
	C335.803223,131.545334 335.657501,130.075104 335.346344,128.002197 
	C333.464142,126.596481 331.747437,125.793442 330.030701,124.990410 
	C329.198120,123.147552 328.365509,121.304688 327.315430,118.927147 
	C326.737610,117.926575 326.377319,117.460670 326.016998,116.994766 
	C325.158325,115.158554 324.299622,113.322342 323.193024,110.917900 
	C322.325104,109.501137 321.705078,108.652618 321.085022,107.804092 
	C320.193146,106.031326 319.301270,104.258553 318.199097,101.939514 
	C317.602997,100.944977 317.217194,100.496696 316.831421,100.048424 
	C316.037292,98.011940 314.081909,95.531540 314.659912,94.019562 
	C316.643768,88.829697 318.868256,83.475769 322.237030,79.146011 
	C325.373779,75.114456 330.505219,75.607620 335.338135,78.923828 
	C350.960175,89.643181 358.020691,104.956467 358.724213,123.436195 
	C359.046692,131.907043 358.826385,140.411865 358.501984,148.887878 
	C358.359741,152.604309 359.196869,154.112625 363.266541,154.380280 
	C375.372894,155.176514 385.999756,160.177780 395.795776,167.077637 
	C396.458435,167.544388 396.765045,168.516602 397.564484,169.764526 
	C381.330994,169.764526 365.763824,170.033157 350.210571,169.682480 
	C336.937500,169.383224 337.813995,171.633987 333.740295,156.009216 
	C332.657379,151.855759 332.098053,147.565811 331.605682,142.778839 
	C333.421539,141.516998 334.930023,140.814865 336.438538,140.112732 
z"/>
<path fill="#050505" opacity="1.000000" stroke="none" 
	d="
M105.329468,117.341934 
	C104.288681,108.508560 105.724869,100.776299 111.011879,93.870941 
	C122.517036,78.844017 149.828339,78.601837 161.478409,93.520317 
	C170.588791,105.186607 168.406479,123.557938 155.919525,133.201538 
	C135.889557,148.670578 109.810051,138.989807 105.329468,117.341934 
z"/>
<path fill="#050505" opacity="1.000000" stroke="none" 
	d="
M427.304443,123.585876 
	C418.444489,108.553062 428.494019,86.479065 448.619293,83.076447 
	C467.023956,79.964760 483.319672,90.926628 485.033539,108.555290 
	C486.674927,125.437836 473.106781,140.299286 456.088776,140.228943 
	C443.493073,140.176865 433.509430,135.512085 427.304443,123.585876 
z"/>
<path fill="#080909" opacity="1.000000" stroke="none" 
	d="
M138.396149,182.535629 
	C139.103592,175.268906 139.811020,168.002197 140.518463,160.735474 
	C141.145813,160.446426 141.773178,160.157379 142.400543,159.868332 
	C145.571655,162.636444 148.742783,165.404572 151.952301,168.852173 
	C152.608978,170.369751 153.227280,171.207870 153.845566,172.045975 
	C154.314438,172.997513 154.783295,173.949066 155.176239,175.585022 
	C155.978241,177.870239 156.856155,179.471069 157.734070,181.071884 
	C159.052673,183.908737 160.371277,186.745575 161.771530,189.758087 
	C172.192459,186.595123 182.774246,183.382523 193.356857,180.172684 
	C194.308380,179.884064 195.266846,179.618423 196.219467,179.333359 
	C200.092697,178.174286 203.744293,178.471741 205.644333,182.437958 
	C207.534515,186.383545 206.592102,190.350616 203.471542,193.381943 
	C201.982178,194.828720 199.915894,195.927780 197.913773,196.559311 
	C187.487579,199.848083 177.046844,203.111542 166.515656,206.040314 
	C157.334076,208.593765 151.774979,206.394897 146.462326,198.648911 
	C144.812775,196.243805 143.416519,193.664978 141.633698,190.584869 
	C140.374115,187.514587 139.385132,185.025101 138.396149,182.535629 
z"/>
<path fill="#050505" opacity="1.000000" stroke="none" 
	d="
M386.071289,196.782700 
	C384.041901,195.435272 382.012482,194.087845 380.178894,192.240524 
	C379.942596,191.159836 379.510437,190.579025 379.078308,189.998230 
	C378.989807,189.841873 378.901306,189.685501 379.145844,189.085220 
	C379.298889,187.753845 379.118927,186.866394 378.938934,185.978943 
	C378.882660,185.810837 378.826385,185.642715 379.192047,185.081345 
	C380.076477,183.477524 380.538971,182.266968 381.001465,181.056396 
	C381.001465,181.056396 381.119751,180.800385 381.603577,180.847717 
	C383.706451,180.652893 385.325500,180.410751 386.944580,180.168610 
	C388.086426,180.380219 389.228302,180.591812 390.719666,181.257965 
	C391.718414,181.792404 392.367645,181.872269 393.016876,181.952148 
	C393.471161,181.977188 393.925476,182.002243 394.727386,182.452927 
	C395.706421,182.948105 396.337830,183.017654 396.969238,183.087219 
	C397.450165,183.134644 397.931091,183.182068 398.849915,183.762939 
	C400.124054,184.411423 400.960297,184.526443 401.796570,184.641464 
	C403.644836,185.091278 405.493134,185.541077 407.704651,186.424271 
	C408.694061,186.958740 409.320190,187.059845 409.946350,187.160950 
	C410.423462,187.198822 410.900543,187.236694 411.834503,187.782135 
	C413.141205,188.384872 413.991089,188.480057 414.840942,188.575241 
	C415.709503,188.635010 416.578064,188.694763 417.769165,189.250824 
	C419.055298,189.848953 420.018890,189.950790 420.982513,190.052612 
	C421.853760,189.859634 422.724976,189.666672 424.205139,189.164581 
	C425.435211,186.976212 426.056366,185.096939 426.677521,183.217651 
	C426.972382,182.293152 427.267212,181.368637 428.123962,180.164459 
	C429.679504,177.327560 430.673126,174.770309 431.666748,172.213043 
	C432.244354,170.886032 432.821991,169.559036 434.047363,168.060699 
	C435.083008,167.129944 435.470917,166.370499 435.858826,165.611053 
	C436.701752,164.768463 437.544678,163.925873 438.989441,163.172821 
	C441.284088,163.178238 442.976898,163.094116 444.669708,163.009995 
	C444.830139,163.751968 444.990540,164.493958 444.857361,165.765808 
	C444.974976,166.865341 445.386200,167.434982 445.797424,168.004623 
	C446.067139,169.162918 446.336823,170.321198 446.390533,172.190430 
	C446.541595,173.940140 446.908630,174.978912 447.275665,176.017670 
	C447.188477,177.753174 447.101288,179.488663 446.748108,181.792938 
	C446.669952,183.727051 446.857788,185.092392 446.695740,186.639618 
	C445.308807,188.847488 444.271667,190.873474 442.991577,193.009033 
	C442.613800,193.610382 442.478973,194.102188 442.104614,194.821289 
	C438.012451,201.124405 433.069489,205.864441 425.999695,207.998886 
	C423.255951,207.717514 420.512238,207.436142 417.349365,206.716278 
	C416.278900,206.207504 415.627502,206.137207 414.976135,206.066925 
	C414.518341,206.056488 414.060577,206.046036 413.265228,205.588486 
	C412.297668,205.058243 411.667664,204.975082 411.037659,204.891937 
	C407.595276,203.914215 404.152863,202.936508 400.321075,201.525665 
	C399.311432,200.988876 398.691162,200.885239 398.070923,200.781601 
	C395.929810,200.274612 393.788727,199.767624 391.273071,198.756027 
	C389.289429,197.761856 387.680359,197.272278 386.071289,196.782700 
z"/>
<path fill="#090A0A" opacity="1.000000" stroke="none" 
	d="
M310.078186,230.296570 
	C294.221191,230.295425 278.804291,230.295425 261.826538,230.295425 
	C264.662201,226.348541 266.867615,223.737106 268.569092,220.830658 
	C275.614288,208.796204 285.419769,203.808487 299.755585,205.522552 
	C311.350494,206.908905 323.243317,205.803696 335.884155,205.803696 
	C334.873810,208.059448 334.305511,209.887787 333.311188,211.443878 
	C330.274506,216.196198 326.644623,220.621124 324.063843,225.597809 
	C321.720734,230.116241 318.599396,231.325546 314.002106,230.392303 
	C312.880615,230.164642 311.681610,230.319000 310.078186,230.296570 
M312.867737,221.945557 
	C314.473938,220.111450 316.080109,218.277328 317.686310,216.443222 
	C313.883667,218.246658 306.553558,212.750107 306.703552,221.989471 
	C308.532532,221.989471 310.302277,221.989471 312.867737,221.945557 
M294.200500,214.226166 
	C290.891388,213.322754 288.141541,213.597809 286.758026,217.959503 
	C289.563751,217.959503 292.006073,218.144958 294.392303,217.860168 
	C295.241699,217.758789 295.954956,216.516144 296.730377,215.794495 
	C296.167328,215.264526 295.604279,214.734543 294.200500,214.226166 
z"/>
<path fill="#0A0A0A" opacity="1.000000" stroke="none" 
	d="
M301.144775,112.012924 
	C300.188385,114.825447 299.232025,117.637962 298.095856,121.039505 
	C297.672058,122.424431 297.428040,123.220345 297.184052,124.016258 
	C296.018524,124.912178 294.852997,125.808083 292.981201,126.652641 
	C284.168488,126.682152 276.062012,126.763008 267.955505,126.843857 
	C266.541290,126.618172 265.127075,126.392487 262.664886,125.999580 
	C265.872589,121.499382 268.728302,117.492966 271.792145,113.026215 
	C272.000244,112.565880 272.039062,112.407715 272.262329,112.351753 
	C273.448883,110.796432 274.412201,109.297073 275.628418,107.595604 
	C276.332520,106.454140 276.783722,105.514778 277.234924,104.575417 
	C282.084229,100.955261 279.819397,95.683746 280.272614,91.077431 
	C280.439392,89.382378 279.880463,87.615913 279.673828,86.043816 
	C289.509125,86.043816 298.844879,86.043816 308.346710,86.043816 
	C308.002625,87.545227 307.570984,89.428719 306.887695,91.816727 
	C306.572479,92.892395 306.508942,93.463539 306.445404,94.034683 
	C306.314117,94.469330 306.182800,94.903969 305.848877,95.860016 
	C305.499481,96.927094 305.352722,97.472771 305.205933,98.018433 
	C304.105774,101.746758 303.005585,105.475075 301.647461,109.736298 
	C301.307922,110.850441 301.226318,111.431679 301.144775,112.012924 
z"/>
<path fill="#0A0A0A" opacity="1.000000" stroke="none" 
	d="
M367.180054,219.214630 
	C357.210846,220.338867 350.868225,215.879074 349.452942,207.071564 
	C348.138916,198.894135 352.529266,191.425690 359.506256,189.969849 
	C369.011017,187.986557 377.339508,193.082901 379.314545,202.746445 
	C380.790253,209.967026 377.683624,217.155380 367.180054,219.214630 
z"/>
<path fill="#0A0A0B" opacity="1.000000" stroke="none" 
	d="
M214.123413,219.261139 
	C206.357422,215.911469 202.160477,207.267822 204.674774,200.555679 
	C207.627792,192.672363 216.506226,188.508377 224.283295,191.359314 
	C231.685333,194.072784 235.941345,202.488693 233.703720,209.987488 
	C231.305923,218.023087 223.678314,221.740112 214.123413,219.261139 
z"/>
<path fill="#171717" opacity="1.000000" stroke="none" 
	d="
M319.601685,117.747704 
	C320.336823,119.321884 321.071960,120.896080 322.015259,123.118179 
	C322.504486,124.185455 322.785553,124.604820 323.066589,125.024185 
	C319.995789,125.629181 316.944122,126.379959 313.847229,126.786156 
	C311.893219,127.042465 309.860992,126.640839 307.882812,126.788536 
	C304.737091,127.023407 304.086334,125.578682 305.220795,122.293289 
	C305.631470,121.123619 305.755676,120.556000 305.879883,119.988380 
	C306.909637,116.908745 307.939362,113.829102 309.204224,110.204971 
	C309.550537,109.100082 309.661682,108.539688 309.772827,107.979286 
	C309.940704,107.040665 310.108551,106.102043 310.554565,104.689705 
	C311.490570,104.302940 312.148499,104.389893 312.806396,104.476837 
	C314.412140,107.815536 316.017883,111.154236 317.865051,115.069176 
	C318.604889,116.346184 319.103302,117.046944 319.601685,117.747704 
z"/>
<path fill="#E5E5E5" opacity="1.000000" stroke="none" 
	d="
M426.205200,208.267288 
	C433.069489,205.864441 438.012451,201.124405 442.547821,194.916245 
	C443.830780,194.853745 444.430939,194.923599 445.031128,194.993439 
	C441.778992,201.032303 438.959991,207.401764 432.350220,211.070206 
	C432.106873,205.697327 428.310333,209.271805 426.205200,208.267288 
z"/>
<path fill="#EBECEC" opacity="1.000000" stroke="none" 
	d="
M268.164764,127.146240 
	C276.062012,126.763008 284.168488,126.682152 292.646423,126.769028 
	C289.850922,127.291641 286.686279,127.912811 283.516479,127.940445 
	C278.470795,127.984428 273.421692,127.632881 268.164764,127.146240 
z"/>
<path fill="#EBECEC" opacity="1.000000" stroke="none" 
	d="
M280.617615,134.490356 
	C276.387390,134.972458 271.849548,135.181534 267.312073,135.398041 
	C265.172943,135.500122 263.034454,135.616516 260.433441,135.824539 
	C261.106384,135.270737 262.230499,134.081345 263.378601,134.057785 
	C269.018951,133.941940 274.665710,134.135864 280.617615,134.490356 
z"/>
<path fill="#EBECEC" opacity="1.000000" stroke="none" 
	d="
M277.111420,104.224663 
	C276.783722,105.514778 276.332520,106.454140 275.506348,107.206642 
	C274.102417,106.668404 273.075012,106.047760 272.043945,106.041634 
	C271.019806,106.035553 269.991943,106.647621 268.965759,106.988617 
	C270.411865,104.752884 271.858002,102.517151 273.596191,100.124329 
	C274.921478,101.269463 275.954712,102.571686 277.111420,104.224663 
z"/>
<path fill="#0A0A0A" opacity="1.000000" stroke="none" 
	d="
M447.045593,186.457733 
	C446.857788,185.092392 446.669952,183.727051 446.736359,182.182709 
	C451.124573,182.848557 449.675995,179.250626 450.821991,177.269440 
	C450.046509,180.961349 449.013733,184.896545 447.525818,188.506287 
	C447.062317,187.606491 447.053986,187.032104 447.045593,186.457733 
z"/>
<path fill="#C4C4C5" opacity="1.000000" stroke="none" 
	d="
M138.146912,182.840973 
	C139.385132,185.025101 140.374115,187.514587 141.343414,190.390961 
	C140.894928,191.123001 140.466156,191.468140 139.792358,192.157043 
	C138.617233,189.985947 137.687134,187.471069 136.745560,184.566101 
	C137.121948,183.832779 137.509811,183.489563 138.146912,182.840973 
z"/>
<path fill="#EBECEC" opacity="1.000000" stroke="none" 
	d="
M259.276428,148.085052 
	C259.539886,150.759949 259.447693,153.548965 259.107849,156.649185 
	C258.880432,154.039978 258.900604,151.119568 259.276428,148.085052 
z"/>
<path fill="#EBECEC" opacity="1.000000" stroke="none" 
	d="
M324.529175,150.624023 
	C323.982727,148.204330 323.682983,145.495468 323.527618,142.369583 
	C324.039978,144.746658 324.407928,147.540771 324.529175,150.624023 
z"/>
<path fill="#0A0A0A" opacity="1.000000" stroke="none" 
	d="
M444.747681,162.661957 
	C442.976898,163.094116 441.284088,163.178238 439.290955,163.128937 
	C440.870575,162.211304 442.291748,157.499954 444.747681,162.661957 
z"/>
<path fill="#0A0A0A" opacity="1.000000" stroke="none" 
	d="
M431.359924,172.413712 
	C430.673126,174.770309 429.679504,177.327560 428.324554,179.942017 
	C428.993195,177.537598 430.023132,175.075989 431.359924,172.413712 
z"/>
<path fill="#0A0A0A" opacity="1.000000" stroke="none" 
	d="
M478.878632,149.655975 
	C477.638397,148.137589 476.400970,146.272446 475.226013,144.038116 
	C476.486176,145.549011 477.683807,147.429108 478.878632,149.655975 
z"/>
<path fill="#0A0A0A" opacity="1.000000" stroke="none" 
	d="
M473.360474,143.671082 
	C471.652191,144.618546 469.578613,145.618774 467.274902,146.368393 
	C469.028229,145.319794 471.011719,144.521820 473.360474,143.671082 
z"/>
<path fill="#EBECEC" opacity="1.000000" stroke="none" 
	d="
M329.769257,125.201561 
	C331.747437,125.793442 333.464142,126.596481 335.136963,127.693916 
	C333.058594,127.504250 329.877258,129.507309 329.769257,125.201561 
z"/>
<path fill="#EBECEC" opacity="1.000000" stroke="none" 
	d="
M272.039062,112.407715 
	C272.039062,112.407715 272.000244,112.565880 271.934204,112.611588 
	C269.891052,112.579361 267.913940,112.501427 265.498474,112.226562 
	C265.579620,111.277939 266.099121,110.526230 267.379333,109.983795 
	C269.439697,110.931282 270.739380,111.669495 272.039062,112.407715 
z"/>
<path fill="#0A0A0A" opacity="1.000000" stroke="none" 
	d="
M426.404175,183.453705 
	C426.056366,185.096939 425.435211,186.976212 424.448730,188.928589 
	C424.765900,187.231049 425.448364,185.460403 426.404175,183.453705 
z"/>
<path fill="#0A0A0A" opacity="1.000000" stroke="none" 
	d="
M386.692810,179.936249 
	C385.325500,180.410751 383.706451,180.652893 381.744507,180.852280 
	C383.081451,180.440979 384.761230,180.072433 386.692810,179.936249 
z"/>
<path fill="#3C3D3D" opacity="1.000000" stroke="none" 
	d="
M157.747559,180.724258 
	C156.856155,179.471069 155.978241,177.870239 155.208450,175.902710 
	C156.131409,177.149536 156.946213,178.763077 157.747559,180.724258 
z"/>
<path fill="#EBECEC" opacity="1.000000" stroke="none" 
	d="
M258.015808,162.057526 
	C258.249512,163.116776 258.210358,164.279007 257.959991,165.727463 
	C257.746826,164.729309 257.744873,163.444901 258.015808,162.057526 
z"/>
<path fill="#EBECEC" opacity="1.000000" stroke="none" 
	d="
M336.012360,140.078857 
	C334.930023,140.814865 333.421539,141.516998 331.555298,142.392548 
	C332.660400,141.725616 334.123322,140.885284 336.012360,140.078857 
z"/>
<path fill="#0A0A0A" opacity="1.000000" stroke="none" 
	d="
M386.256836,197.075317 
	C387.680359,197.272278 389.289429,197.761856 390.950256,198.574417 
	C389.482147,198.387604 387.962250,197.877777 386.256836,197.075317 
z"/>
<path fill="#EBECEC" opacity="1.000000" stroke="none" 
	d="
M251.714111,131.934662 
	C251.685455,130.436554 251.994614,128.843811 252.657013,127.171326 
	C252.690781,128.674408 252.371353,130.257217 251.714111,131.934662 
z"/>
<path fill="#EBECEC" opacity="1.000000" stroke="none" 
	d="
M258.930481,120.842072 
	C259.513855,119.367317 260.464050,117.917145 261.721924,116.368835 
	C261.118805,117.802681 260.208069,119.334671 258.930481,120.842072 
z"/>
<path fill="#0A0A0A" opacity="1.000000" stroke="none" 
	d="
M378.786499,186.200134 
	C379.118927,186.866394 379.298889,187.753845 379.223022,188.826996 
	C378.856140,188.148911 378.745087,187.285110 378.786499,186.200134 
z"/>
<path fill="#0A0A0A" opacity="1.000000" stroke="none" 
	d="
M420.736755,189.838074 
	C420.018890,189.950790 419.055298,189.848953 418.044617,189.433395 
	C418.828735,189.287628 419.659851,189.455582 420.736755,189.838074 
z"/>
<path fill="#0A0A0A" opacity="1.000000" stroke="none" 
	d="
M380.674500,181.162476 
	C380.538971,182.266968 380.076477,183.477524 379.311157,184.843567 
	C379.454712,183.755554 379.901093,182.512054 380.674500,181.162476 
z"/>
<path fill="#171717" opacity="1.000000" stroke="none" 
	d="
M424.566345,412.558380 
	C425.480652,412.461517 426.625763,412.619232 427.908173,413.112579 
	C426.962677,413.236450 425.879913,413.024719 424.566345,412.558380 
z"/>
<path fill="#171717" opacity="1.000000" stroke="none" 
	d="
M430.288605,413.558167 
	C430.968719,413.008636 431.979858,412.564484 433.355530,412.239624 
	C432.686584,412.793793 431.653076,413.228668 430.288605,413.558167 
z"/>
<path fill="#0A0A0A" opacity="1.000000" stroke="none" 
	d="
M451.838013,169.271362 
	C452.103760,169.921707 452.218048,170.846970 452.081818,171.893982 
	C451.783051,171.192581 451.734802,170.369446 451.838013,169.271362 
z"/>
<path fill="#0A0A0A" opacity="1.000000" stroke="none" 
	d="
M447.408844,175.691528 
	C446.908630,174.978912 446.541595,173.940140 446.286438,172.536621 
	C446.779572,173.236389 447.160797,174.300888 447.408844,175.691528 
z"/>
<path fill="#EBECEC" opacity="1.000000" stroke="none" 
	d="
M305.512329,97.993622 
	C305.352722,97.472771 305.499481,96.927094 305.882935,96.201630 
	C306.818848,96.099884 307.518097,96.177948 309.183136,96.363831 
	C307.467682,97.182182 306.643188,97.575493 305.512329,97.993622 
z"/>
<path fill="#EBECEC" opacity="1.000000" stroke="none" 
	d="
M312.847595,104.090935 
	C312.148499,104.389893 311.490570,104.302940 310.506470,104.331978 
	C310.572144,103.698326 310.964081,102.948685 311.356018,102.199043 
	C311.866913,102.701027 312.377838,103.203026 312.847595,104.090935 
z"/>
<path fill="#171717" opacity="1.000000" stroke="none" 
	d="
M438.278320,410.784424 
	C438.699402,410.167084 439.419586,409.552185 440.466003,408.956299 
	C440.053955,409.579193 439.315674,410.183075 438.278320,410.784424 
z"/>
<path fill="#171717" opacity="1.000000" stroke="none" 
	d="
M416.236847,406.282166 
	C416.859985,406.704559 417.474762,407.432037 418.078918,408.486145 
	C417.455048,408.070923 416.841766,407.329071 416.236847,406.282166 
z"/>
<path fill="#3C3D3D" opacity="1.000000" stroke="none" 
	d="
M153.851837,171.723022 
	C153.227280,171.207870 152.608978,170.369751 152.048325,169.179626 
	C152.690002,169.685104 153.274063,170.542587 153.851837,171.723022 
z"/>
<path fill="#6A6C6B" opacity="1.000000" stroke="none" 
	d="
M189.256790,167.668396 
	C189.749741,168.084564 189.909912,168.525467 190.122833,169.314468 
	C189.315613,169.739868 188.455627,169.817169 187.595642,169.894485 
	C187.267166,169.463577 186.938705,169.032669 186.610229,168.601746 
	C187.381485,168.298874 188.152740,167.996002 189.256790,167.668396 
z"/>
<path fill="#EBECEC" opacity="1.000000" stroke="none" 
	d="
M321.048218,108.170105 
	C321.705078,108.652618 322.325104,109.501137 322.955505,110.676544 
	C322.314362,110.180992 321.662903,109.358551 321.048218,108.170105 
z"/>
<path fill="#0A0A0A" opacity="1.000000" stroke="none" 
	d="
M411.185608,205.143860 
	C411.667664,204.975082 412.297668,205.058243 412.968445,205.405701 
	C412.450653,205.578598 411.892120,205.487183 411.185608,205.143860 
z"/>
<path fill="#EBECEC" opacity="1.000000" stroke="none" 
	d="
M306.704651,93.997742 
	C306.508942,93.463539 306.572479,92.892395 306.899902,92.183716 
	C307.097168,92.684387 307.030548,93.322594 306.704651,93.997742 
z"/>
<path fill="#EBECEC" opacity="1.000000" stroke="none" 
	d="
M323.267456,124.899216 
	C322.785553,124.604820 322.504486,124.185455 322.233582,123.371529 
	C322.651917,123.576065 323.060089,124.175156 323.267456,124.899216 
z"/>
<path fill="#EBECEC" opacity="1.000000" stroke="none" 
	d="
M297.555847,123.916885 
	C297.428040,123.220345 297.672058,122.424431 298.134766,121.392509 
	C298.211487,122.043495 298.069550,122.930504 297.555847,123.916885 
z"/>
<path fill="#0A0A0A" opacity="1.000000" stroke="none" 
	d="
M415.153442,206.309875 
	C415.627502,206.137207 416.278900,206.207504 416.966614,206.563766 
	C416.445557,206.750778 415.888184,206.651810 415.153442,206.309875 
z"/>
<path fill="#EBECEC" opacity="1.000000" stroke="none" 
	d="
M305.594635,120.020355 
	C305.755676,120.556000 305.631470,121.123619 305.246765,121.843628 
	C305.093994,121.348122 305.201691,120.700226 305.594635,120.020355 
z"/>
<path fill="#EBECEC" opacity="1.000000" stroke="none" 
	d="
M325.781738,117.163300 
	C326.377319,117.460670 326.737610,117.926575 327.070831,118.693832 
	C326.544647,118.440727 326.045563,117.886276 325.781738,117.163300 
z"/>
<path fill="#EBECEC" opacity="1.000000" stroke="none" 
	d="
M319.707642,117.380859 
	C319.103302,117.046944 318.604889,116.346184 318.119415,115.316231 
	C318.692780,115.662697 319.253174,116.338348 319.707642,117.380859 
z"/>
<path fill="#EBECEC" opacity="1.000000" stroke="none" 
	d="
M301.433960,111.977692 
	C301.226318,111.431679 301.307922,110.850441 301.656128,110.122757 
	C301.856232,110.631699 301.789734,111.287086 301.433960,111.977692 
z"/>
<path fill="#EBECEC" opacity="1.000000" stroke="none" 
	d="
M309.494659,108.010452 
	C309.661682,108.539688 309.550537,109.100082 309.191864,109.822433 
	C309.035095,109.336792 309.125793,108.689209 309.494659,108.010452 
z"/>
<path fill="#EBECEC" opacity="1.000000" stroke="none" 
	d="
M316.616455,100.223862 
	C317.217194,100.496696 317.602997,100.944977 317.967316,101.699326 
	C317.431061,101.470024 316.916290,100.934662 316.616455,100.223862 
z"/>
<path fill="#EBECEC" opacity="1.000000" stroke="none" 
	d="
M335.710205,133.186508 
	C336.175201,133.576675 336.401489,134.137787 336.492432,134.898956 
	C336.061859,134.518494 335.766663,133.937973 335.710205,133.186508 
z"/>
<path fill="#0A0A0A" opacity="1.000000" stroke="none" 
	d="
M392.849487,181.704010 
	C392.367645,181.872269 391.718414,181.792404 391.033142,181.427338 
	C391.558746,181.246704 392.120392,181.351288 392.849487,181.704010 
z"/>
<path fill="#0A0A0A" opacity="1.000000" stroke="none" 
	d="
M396.842590,182.816849 
	C396.337830,183.017654 395.706421,182.948105 395.032654,182.614273 
	C395.565521,182.415497 396.140747,182.480988 396.842590,182.816849 
z"/>
<path fill="#0A0A0A" opacity="1.000000" stroke="none" 
	d="
M401.614777,184.373199 
	C400.960297,184.526443 400.124054,184.411423 399.135834,183.996979 
	C399.800262,183.833359 400.616608,183.969147 401.614777,184.373199 
z"/>
<path fill="#0A0A0A" opacity="1.000000" stroke="none" 
	d="
M445.861694,167.718231 
	C445.386200,167.434982 444.974976,166.865341 444.794861,166.142807 
	C445.325989,166.470551 445.625977,166.951202 445.861694,167.718231 
z"/>
<path fill="#0A0A0A" opacity="1.000000" stroke="none" 
	d="
M409.799316,186.907227 
	C409.320190,187.059845 408.694061,186.958740 408.029358,186.595703 
	C408.544647,186.440338 409.098480,186.546921 409.799316,186.907227 
z"/>
<path fill="#0A0A0A" opacity="1.000000" stroke="none" 
	d="
M414.654419,188.306656 
	C413.991089,188.480057 413.141205,188.384872 412.137573,187.984589 
	C412.811829,187.798996 413.639893,187.918533 414.654419,188.306656 
z"/>
<path fill="#0A0A0A" opacity="1.000000" stroke="none" 
	d="
M435.574524,165.755020 
	C435.470917,166.370499 435.083008,167.129944 434.343903,167.943375 
	C434.425232,167.297913 434.857727,166.598450 435.574524,165.755020 
z"/>
<path fill="#6A6C6B" opacity="1.000000" stroke="none" 
	d="
M197.874603,162.261261 
	C197.593109,162.877426 197.005859,163.411179 196.106461,163.869019 
	C196.385818,163.255020 196.977341,162.716919 197.874603,162.261261 
z"/>
<path fill="#0A0A0A" opacity="1.000000" stroke="none" 
	d="
M481.770874,155.679062 
	C481.234650,155.329056 480.694519,154.652512 480.226410,153.607697 
	C480.787933,153.943802 481.277435,154.648163 481.770874,155.679062 
z"/>
<path fill="#0A0A0A" opacity="1.000000" stroke="none" 
	d="
M463.758911,146.545624 
	C463.434845,146.935303 462.853027,147.202545 462.144531,147.258301 
	C462.512299,146.838943 463.006714,146.631073 463.758911,146.545624 
z"/>
<path fill="#0A0A0A" opacity="1.000000" stroke="none" 
	d="
M379.031372,190.299026 
	C379.510437,190.579025 379.942596,191.159836 380.128967,191.894073 
	C379.583588,191.564957 379.283997,191.082397 379.031372,190.299026 
z"/>
<path fill="#0A0A0A" opacity="1.000000" stroke="none" 
	d="
M398.229797,201.021515 
	C398.691162,200.885239 399.311432,200.988876 399.971558,201.347321 
	C399.470551,201.488556 398.929596,201.374985 398.229797,201.021515 
z"/>
<path fill="#0A0A0A" opacity="1.000000" stroke="none" 
	d="
M475.214935,143.368851 
	C475.043213,143.733322 474.768127,143.755295 474.081909,143.726990 
	C474.151093,143.459915 474.631317,143.243149 475.214935,143.368851 
z"/>
<path fill="#6A6C6B" opacity="1.000000" stroke="none" 
	d="
M199.181488,169.529175 
	C199.238464,169.239029 199.610001,169.122391 200.069733,169.214478 
	C199.937271,169.516373 199.716644,169.609528 199.181488,169.529175 
z"/>
<path fill="#6A6C6B" opacity="1.000000" stroke="none" 
	d="
M202.184067,169.634903 
	C202.214386,169.349411 202.576385,169.191116 203.046448,169.241882 
	C202.941589,169.554688 202.728668,169.658401 202.184067,169.634903 
z"/>
<path fill="#E5E5E5" opacity="1.000000" stroke="none" 
	d="
M446.695770,186.639618 
	C447.053986,187.032104 447.062317,187.606491 447.194916,188.592926 
	C446.793396,190.679871 446.267639,192.354782 445.235168,193.913208 
	C444.230530,193.497650 443.732544,193.198547 443.234528,192.899445 
	C444.271667,190.873474 445.308807,188.847488 446.695770,186.639618 
z"/>
<path fill="#C4C4C5" opacity="1.000000" stroke="none" 
	d="
M442.991577,193.009018 
	C443.732544,193.198547 444.230530,193.497650 444.958801,194.173065 
	C445.189056,194.549393 445.270508,194.828476 445.150818,194.910965 
	C444.430939,194.923599 443.830780,194.853745 442.787384,194.688934 
	C442.478973,194.102188 442.613800,193.610382 442.991577,193.009018 
z"/>
<path fill="#E5E5E5" opacity="1.000000" stroke="none" 
	d="
M104.226616,393.466309 
	C108.064987,393.691956 111.501747,393.849518 115.025040,394.011047 
	C117.965317,400.775024 110.203384,399.582550 108.950562,403.314270 
	C106.258698,399.919983 103.858345,396.893280 101.086533,393.398193 
	C102.209763,393.398193 103.017380,393.398193 104.226616,393.466309 
z"/>
<path fill="#E5E5E5" opacity="1.000000" stroke="none" 
	d="
M472.195129,393.839417 
	C475.278992,393.852295 477.908813,393.852295 481.134735,393.852295 
	C478.938629,396.899139 476.990936,399.601318 474.933228,402.456116 
	C472.599487,401.116241 470.294830,399.793030 467.805145,398.363586 
	C468.218903,396.061096 467.790833,393.168610 472.195129,393.839417 
z"/>
<path fill="#FDFDFD" opacity="1.000000" stroke="none" 
	d="
M272.262329,112.351746 
	C270.739380,111.669495 269.439697,110.931282 267.646240,109.896378 
	C267.560272,108.828568 267.968109,108.057426 268.670837,107.137451 
	C269.991943,106.647621 271.019806,106.035553 272.043945,106.041634 
	C273.075012,106.047760 274.102417,106.668404 275.253479,107.408745 
	C274.412201,109.297073 273.448883,110.796432 272.262329,112.351746 
z"/>
<path fill="#C4C4C5" opacity="1.000000" stroke="none" 
	d="
M312.469910,221.967514 
	C310.302277,221.989471 308.532532,221.989471 306.703552,221.989471 
	C306.553558,212.750107 313.883667,218.246658 317.686310,216.443222 
	C316.080109,218.277328 314.473938,220.111450 312.469910,221.967514 
z"/>
<path fill="#C4C4C5" opacity="1.000000" stroke="none" 
	d="
M294.620850,214.215363 
	C295.604279,214.734543 296.167328,215.264526 296.730377,215.794495 
	C295.954956,216.516144 295.241699,217.758789 294.392303,217.860168 
	C292.006073,218.144958 289.563751,217.959503 286.758026,217.959503 
	C288.141541,213.597809 290.891388,213.322754 294.620850,214.215363 
z"/>
</svg>